%TF.GenerationSoftware,KiCad,Pcbnew,7.0.1*%
%TF.CreationDate,2024-07-03T15:17:04+02:00*%
%TF.ProjectId,iCE40DevBoard,69434534-3044-4657-9642-6f6172642e6b,rev?*%
%TF.SameCoordinates,Original*%
%TF.FileFunction,Drillmap*%
%TF.FilePolarity,Positive*%
%FSLAX45Y45*%
G04 Gerber Fmt 4.5, Leading zero omitted, Abs format (unit mm)*
G04 Created by KiCad (PCBNEW 7.0.1) date 2024-07-03 15:17:04*
%MOMM*%
%LPD*%
G01*
G04 APERTURE LIST*
%ADD10C,0.100000*%
%ADD11C,0.200000*%
G04 APERTURE END LIST*
D10*
X17550000Y-9625000D02*
X20300000Y-9625000D01*
X17550000Y-4800000D02*
X17550000Y-9625000D01*
X20300000Y-4800000D02*
X17550000Y-4800000D01*
X20300000Y-9625000D02*
X20300000Y-4800000D01*
D11*
X17792619Y-9942524D02*
X17792619Y-9742524D01*
X17792619Y-9742524D02*
X17840238Y-9742524D01*
X17840238Y-9742524D02*
X17868810Y-9752048D01*
X17868810Y-9752048D02*
X17887857Y-9771095D01*
X17887857Y-9771095D02*
X17897381Y-9790143D01*
X17897381Y-9790143D02*
X17906905Y-9828238D01*
X17906905Y-9828238D02*
X17906905Y-9856810D01*
X17906905Y-9856810D02*
X17897381Y-9894905D01*
X17897381Y-9894905D02*
X17887857Y-9913952D01*
X17887857Y-9913952D02*
X17868810Y-9933000D01*
X17868810Y-9933000D02*
X17840238Y-9942524D01*
X17840238Y-9942524D02*
X17792619Y-9942524D01*
X17992619Y-9942524D02*
X17992619Y-9809190D01*
X17992619Y-9847286D02*
X18002143Y-9828238D01*
X18002143Y-9828238D02*
X18011667Y-9818714D01*
X18011667Y-9818714D02*
X18030714Y-9809190D01*
X18030714Y-9809190D02*
X18049762Y-9809190D01*
X18116429Y-9942524D02*
X18116429Y-9809190D01*
X18116429Y-9742524D02*
X18106905Y-9752048D01*
X18106905Y-9752048D02*
X18116429Y-9761571D01*
X18116429Y-9761571D02*
X18125952Y-9752048D01*
X18125952Y-9752048D02*
X18116429Y-9742524D01*
X18116429Y-9742524D02*
X18116429Y-9761571D01*
X18240238Y-9942524D02*
X18221190Y-9933000D01*
X18221190Y-9933000D02*
X18211667Y-9913952D01*
X18211667Y-9913952D02*
X18211667Y-9742524D01*
X18345000Y-9942524D02*
X18325952Y-9933000D01*
X18325952Y-9933000D02*
X18316429Y-9913952D01*
X18316429Y-9913952D02*
X18316429Y-9742524D01*
X18573571Y-9942524D02*
X18573571Y-9742524D01*
X18573571Y-9742524D02*
X18640238Y-9885381D01*
X18640238Y-9885381D02*
X18706905Y-9742524D01*
X18706905Y-9742524D02*
X18706905Y-9942524D01*
X18887857Y-9942524D02*
X18887857Y-9837762D01*
X18887857Y-9837762D02*
X18878333Y-9818714D01*
X18878333Y-9818714D02*
X18859286Y-9809190D01*
X18859286Y-9809190D02*
X18821190Y-9809190D01*
X18821190Y-9809190D02*
X18802143Y-9818714D01*
X18887857Y-9933000D02*
X18868810Y-9942524D01*
X18868810Y-9942524D02*
X18821190Y-9942524D01*
X18821190Y-9942524D02*
X18802143Y-9933000D01*
X18802143Y-9933000D02*
X18792619Y-9913952D01*
X18792619Y-9913952D02*
X18792619Y-9894905D01*
X18792619Y-9894905D02*
X18802143Y-9875857D01*
X18802143Y-9875857D02*
X18821190Y-9866333D01*
X18821190Y-9866333D02*
X18868810Y-9866333D01*
X18868810Y-9866333D02*
X18887857Y-9856810D01*
X18983095Y-9809190D02*
X18983095Y-10009190D01*
X18983095Y-9818714D02*
X19002143Y-9809190D01*
X19002143Y-9809190D02*
X19040238Y-9809190D01*
X19040238Y-9809190D02*
X19059286Y-9818714D01*
X19059286Y-9818714D02*
X19068810Y-9828238D01*
X19068810Y-9828238D02*
X19078333Y-9847286D01*
X19078333Y-9847286D02*
X19078333Y-9904429D01*
X19078333Y-9904429D02*
X19068810Y-9923476D01*
X19068810Y-9923476D02*
X19059286Y-9933000D01*
X19059286Y-9933000D02*
X19040238Y-9942524D01*
X19040238Y-9942524D02*
X19002143Y-9942524D01*
X19002143Y-9942524D02*
X18983095Y-9933000D01*
X19164048Y-9923476D02*
X19173571Y-9933000D01*
X19173571Y-9933000D02*
X19164048Y-9942524D01*
X19164048Y-9942524D02*
X19154524Y-9933000D01*
X19154524Y-9933000D02*
X19164048Y-9923476D01*
X19164048Y-9923476D02*
X19164048Y-9942524D01*
X19164048Y-9818714D02*
X19173571Y-9828238D01*
X19173571Y-9828238D02*
X19164048Y-9837762D01*
X19164048Y-9837762D02*
X19154524Y-9828238D01*
X19154524Y-9828238D02*
X19164048Y-9818714D01*
X19164048Y-9818714D02*
X19164048Y-9837762D01*
M02*
