%TF.GenerationSoftware,KiCad,Pcbnew,7.0.1*%
%TF.CreationDate,2024-07-03T15:17:04+02:00*%
%TF.ProjectId,iCE40DevBoard,69434534-3044-4657-9642-6f6172642e6b,rev?*%
%TF.SameCoordinates,Original*%
%TF.FileFunction,Drillmap*%
%TF.FilePolarity,Positive*%
%FSLAX45Y45*%
G04 Gerber Fmt 4.5, Leading zero omitted, Abs format (unit mm)*
G04 Created by KiCad (PCBNEW 7.0.1) date 2024-07-03 15:17:04*
%MOMM*%
%LPD*%
G01*
G04 APERTURE LIST*
%ADD10C,0.100000*%
%ADD11C,0.200000*%
%ADD12C,0.030000*%
%ADD13C,0.050000*%
%ADD14C,0.055000*%
G04 APERTURE END LIST*
D10*
X17550000Y-9625000D02*
X20300000Y-9625000D01*
X17550000Y-4800000D02*
X17550000Y-9625000D01*
X20300000Y-4800000D02*
X17550000Y-4800000D01*
X20300000Y-9625000D02*
X20300000Y-4800000D01*
D11*
D12*
X17638000Y-8671800D02*
X17668000Y-8701800D01*
X17668000Y-8671800D02*
X17638000Y-8701800D01*
X17660000Y-9110000D02*
X17690000Y-9140000D01*
X17690000Y-9110000D02*
X17660000Y-9140000D01*
X17760000Y-4860000D02*
X17790000Y-4890000D01*
X17790000Y-4860000D02*
X17760000Y-4890000D01*
X17861520Y-6944600D02*
X17891520Y-6974600D01*
X17891520Y-6944600D02*
X17861520Y-6974600D01*
X17866600Y-9103600D02*
X17896600Y-9133600D01*
X17896600Y-9103600D02*
X17866600Y-9133600D01*
X17917400Y-6893800D02*
X17947400Y-6923800D01*
X17947400Y-6893800D02*
X17917400Y-6923800D01*
X17917400Y-7224000D02*
X17947400Y-7254000D01*
X17947400Y-7224000D02*
X17917400Y-7254000D01*
X17955000Y-8875000D02*
X17985000Y-8905000D01*
X17985000Y-8875000D02*
X17955000Y-8905000D01*
X17968200Y-8494000D02*
X17998200Y-8524000D01*
X17998200Y-8494000D02*
X17968200Y-8524000D01*
X17995000Y-8075000D02*
X18025000Y-8105000D01*
X18025000Y-8075000D02*
X17995000Y-8105000D01*
X18006300Y-5979400D02*
X18036300Y-6009400D01*
X18036300Y-5979400D02*
X18006300Y-6009400D01*
X18010000Y-5285000D02*
X18040000Y-5315000D01*
X18040000Y-5285000D02*
X18010000Y-5315000D01*
X18019000Y-8671800D02*
X18049000Y-8701800D01*
X18049000Y-8671800D02*
X18019000Y-8701800D01*
X18035000Y-7785000D02*
X18065000Y-7815000D01*
X18065000Y-7785000D02*
X18035000Y-7815000D01*
X18044400Y-6373100D02*
X18074400Y-6403100D01*
X18074400Y-6373100D02*
X18044400Y-6403100D01*
X18057100Y-6131800D02*
X18087100Y-6161800D01*
X18087100Y-6131800D02*
X18057100Y-6161800D01*
X18120600Y-7782800D02*
X18150600Y-7812800D01*
X18150600Y-7782800D02*
X18120600Y-7812800D01*
X18135000Y-9560000D02*
X18165000Y-9590000D01*
X18165000Y-9560000D02*
X18135000Y-9590000D01*
X18146000Y-8773400D02*
X18176000Y-8803400D01*
X18176000Y-8773400D02*
X18146000Y-8803400D01*
X18158700Y-6411200D02*
X18188700Y-6441200D01*
X18188700Y-6411200D02*
X18158700Y-6441200D01*
X18158700Y-6589000D02*
X18188700Y-6619000D01*
X18188700Y-6589000D02*
X18158700Y-6619000D01*
X18185000Y-5785000D02*
X18215000Y-5815000D01*
X18215000Y-5785000D02*
X18185000Y-5815000D01*
X18196800Y-7681200D02*
X18226800Y-7711200D01*
X18226800Y-7681200D02*
X18196800Y-7711200D01*
X18205000Y-7275000D02*
X18235000Y-7305000D01*
X18235000Y-7275000D02*
X18205000Y-7305000D01*
X18222200Y-7478000D02*
X18252200Y-7508000D01*
X18252200Y-7478000D02*
X18222200Y-7508000D01*
X18234900Y-6322300D02*
X18264900Y-6352300D01*
X18264900Y-6322300D02*
X18234900Y-6352300D01*
X18237500Y-8478700D02*
X18267500Y-8508700D01*
X18267500Y-8478700D02*
X18237500Y-8508700D01*
X18247600Y-8722600D02*
X18277600Y-8752600D01*
X18277600Y-8722600D02*
X18247600Y-8752600D01*
X18285700Y-9090900D02*
X18315700Y-9120900D01*
X18315700Y-9090900D02*
X18285700Y-9120900D01*
X18310000Y-7060000D02*
X18340000Y-7090000D01*
X18340000Y-7060000D02*
X18310000Y-7090000D01*
X18311100Y-6525500D02*
X18341100Y-6555500D01*
X18341100Y-6525500D02*
X18311100Y-6555500D01*
X18323800Y-7808200D02*
X18353800Y-7838200D01*
X18353800Y-7808200D02*
X18323800Y-7838200D01*
X18360000Y-4910000D02*
X18390000Y-4940000D01*
X18390000Y-4910000D02*
X18360000Y-4940000D01*
X18400000Y-8189200D02*
X18430000Y-8219200D01*
X18430000Y-8189200D02*
X18400000Y-8219200D01*
X18400000Y-9256000D02*
X18430000Y-9286000D01*
X18430000Y-9256000D02*
X18400000Y-9286000D01*
X18405080Y-9090900D02*
X18435080Y-9120900D01*
X18435080Y-9090900D02*
X18405080Y-9120900D01*
X18425400Y-7782800D02*
X18455400Y-7812800D01*
X18455400Y-7782800D02*
X18425400Y-7812800D01*
X18425400Y-8570200D02*
X18455400Y-8600200D01*
X18455400Y-8570200D02*
X18425400Y-8600200D01*
X18425400Y-8748000D02*
X18455400Y-8778000D01*
X18455400Y-8748000D02*
X18425400Y-8778000D01*
X18435000Y-7310000D02*
X18465000Y-7340000D01*
X18465000Y-7310000D02*
X18435000Y-7340000D01*
X18463500Y-6550900D02*
X18493500Y-6580900D01*
X18493500Y-6550900D02*
X18463500Y-6580900D01*
X18476200Y-5115800D02*
X18506200Y-5145800D01*
X18506200Y-5115800D02*
X18476200Y-5145800D01*
X18485000Y-5310000D02*
X18515000Y-5340000D01*
X18515000Y-5310000D02*
X18485000Y-5340000D01*
X18501600Y-9090900D02*
X18531600Y-9120900D01*
X18531600Y-9090900D02*
X18501600Y-9120900D01*
X18552400Y-6550900D02*
X18582400Y-6580900D01*
X18582400Y-6550900D02*
X18552400Y-6580900D01*
X18585000Y-6325000D02*
X18615000Y-6355000D01*
X18615000Y-6325000D02*
X18585000Y-6355000D01*
X18610000Y-7360000D02*
X18640000Y-7390000D01*
X18640000Y-7360000D02*
X18610000Y-7390000D01*
X18628600Y-6563600D02*
X18658600Y-6593600D01*
X18658600Y-6563600D02*
X18628600Y-6593600D01*
X18628600Y-8544800D02*
X18658600Y-8574800D01*
X18658600Y-8544800D02*
X18628600Y-8574800D01*
X18635000Y-7060000D02*
X18665000Y-7090000D01*
X18665000Y-7060000D02*
X18635000Y-7090000D01*
X18641300Y-9154400D02*
X18671300Y-9184400D01*
X18671300Y-9154400D02*
X18641300Y-9184400D01*
X18654000Y-6639800D02*
X18684000Y-6669800D01*
X18684000Y-6639800D02*
X18654000Y-6669800D01*
X18692100Y-9281400D02*
X18722100Y-9311400D01*
X18722100Y-9281400D02*
X18692100Y-9311400D01*
X18704800Y-6208000D02*
X18734800Y-6238000D01*
X18734800Y-6208000D02*
X18704800Y-6238000D01*
X18704800Y-8570200D02*
X18734800Y-8600200D01*
X18734800Y-8570200D02*
X18704800Y-8600200D01*
X18755600Y-8494000D02*
X18785600Y-8524000D01*
X18785600Y-8494000D02*
X18755600Y-8524000D01*
X18765000Y-8115000D02*
X18795000Y-8145000D01*
X18795000Y-8115000D02*
X18765000Y-8145000D01*
X18781000Y-6792200D02*
X18811000Y-6822200D01*
X18811000Y-6792200D02*
X18781000Y-6822200D01*
X18795000Y-4965000D02*
X18825000Y-4995000D01*
X18825000Y-4965000D02*
X18795000Y-4995000D01*
X18819100Y-7579600D02*
X18849100Y-7609600D01*
X18849100Y-7579600D02*
X18819100Y-7609600D01*
X18830500Y-5700000D02*
X18860500Y-5730000D01*
X18860500Y-5700000D02*
X18830500Y-5730000D01*
X18831800Y-6716000D02*
X18861800Y-6746000D01*
X18861800Y-6716000D02*
X18831800Y-6746000D01*
X18831800Y-8265400D02*
X18861800Y-8295400D01*
X18861800Y-8265400D02*
X18831800Y-8295400D01*
X18831800Y-8773400D02*
X18861800Y-8803400D01*
X18861800Y-8773400D02*
X18831800Y-8803400D01*
X18844500Y-7986000D02*
X18874500Y-8016000D01*
X18874500Y-7986000D02*
X18844500Y-8016000D01*
X18857200Y-6792200D02*
X18887200Y-6822200D01*
X18887200Y-6792200D02*
X18857200Y-6822200D01*
X18857200Y-8113000D02*
X18887200Y-8143000D01*
X18887200Y-8113000D02*
X18857200Y-8143000D01*
X18910540Y-8699740D02*
X18940540Y-8729740D01*
X18940540Y-8699740D02*
X18910540Y-8729740D01*
X18933400Y-6893800D02*
X18963400Y-6923800D01*
X18963400Y-6893800D02*
X18933400Y-6923800D01*
X18935000Y-6310000D02*
X18965000Y-6340000D01*
X18965000Y-6310000D02*
X18935000Y-6340000D01*
X18945000Y-6675000D02*
X18975000Y-6705000D01*
X18975000Y-6675000D02*
X18945000Y-6705000D01*
X18958800Y-7198600D02*
X18988800Y-7228600D01*
X18988800Y-7198600D02*
X18958800Y-7228600D01*
X19005000Y-4925000D02*
X19035000Y-4955000D01*
X19035000Y-4925000D02*
X19005000Y-4955000D01*
X19009600Y-6741400D02*
X19039600Y-6771400D01*
X19039600Y-6741400D02*
X19009600Y-6771400D01*
X19022300Y-6855700D02*
X19052300Y-6885700D01*
X19052300Y-6855700D02*
X19022300Y-6885700D01*
X19035000Y-5515000D02*
X19065000Y-5545000D01*
X19065000Y-5515000D02*
X19035000Y-5545000D01*
X19047700Y-6601700D02*
X19077700Y-6631700D01*
X19077700Y-6601700D02*
X19047700Y-6631700D01*
X19060400Y-8494000D02*
X19090400Y-8524000D01*
X19090400Y-8494000D02*
X19060400Y-8524000D01*
X19073100Y-6792200D02*
X19103100Y-6822200D01*
X19103100Y-6792200D02*
X19073100Y-6822200D01*
X19085000Y-6285000D02*
X19115000Y-6315000D01*
X19115000Y-6285000D02*
X19085000Y-6315000D01*
X19095000Y-5705000D02*
X19125000Y-5735000D01*
X19125000Y-5705000D02*
X19095000Y-5735000D01*
X19111200Y-8748000D02*
X19141200Y-8778000D01*
X19141200Y-8748000D02*
X19111200Y-8778000D01*
X19136600Y-8189200D02*
X19166600Y-8219200D01*
X19166600Y-8189200D02*
X19136600Y-8219200D01*
X19149300Y-6766800D02*
X19179300Y-6796800D01*
X19179300Y-6766800D02*
X19149300Y-6796800D01*
X19172160Y-7843760D02*
X19202160Y-7873760D01*
X19202160Y-7843760D02*
X19172160Y-7873760D01*
X19174700Y-9129000D02*
X19204700Y-9159000D01*
X19204700Y-9129000D02*
X19174700Y-9159000D01*
X19212800Y-6119100D02*
X19242800Y-6149100D01*
X19242800Y-6119100D02*
X19212800Y-6149100D01*
X19243280Y-7767560D02*
X19273280Y-7797560D01*
X19273280Y-7767560D02*
X19243280Y-7797560D01*
X19255000Y-6675000D02*
X19285000Y-6705000D01*
X19285000Y-6675000D02*
X19255000Y-6705000D01*
X19263600Y-5941300D02*
X19293600Y-5971300D01*
X19293600Y-5941300D02*
X19263600Y-5971300D01*
X19263600Y-8748000D02*
X19293600Y-8778000D01*
X19293600Y-8748000D02*
X19263600Y-8778000D01*
X19276300Y-6766800D02*
X19306300Y-6796800D01*
X19306300Y-6766800D02*
X19276300Y-6796800D01*
X19285000Y-6315000D02*
X19315000Y-6345000D01*
X19315000Y-6315000D02*
X19285000Y-6345000D01*
X19310000Y-5310000D02*
X19340000Y-5340000D01*
X19340000Y-5310000D02*
X19310000Y-5340000D01*
X19314400Y-7389100D02*
X19344400Y-7419100D01*
X19344400Y-7389100D02*
X19314400Y-7419100D01*
X19315000Y-5695000D02*
X19345000Y-5725000D01*
X19345000Y-5695000D02*
X19315000Y-5725000D01*
X19339800Y-7998700D02*
X19369800Y-8028700D01*
X19369800Y-7998700D02*
X19339800Y-8028700D01*
X19339800Y-8138400D02*
X19369800Y-8168400D01*
X19369800Y-8138400D02*
X19339800Y-8168400D01*
X19352500Y-8582900D02*
X19382500Y-8612900D01*
X19382500Y-8582900D02*
X19352500Y-8612900D01*
X19360000Y-7235000D02*
X19390000Y-7265000D01*
X19390000Y-7235000D02*
X19360000Y-7265000D01*
X19390600Y-7414500D02*
X19420600Y-7444500D01*
X19420600Y-7414500D02*
X19390600Y-7444500D01*
X19410000Y-9260000D02*
X19440000Y-9290000D01*
X19440000Y-9260000D02*
X19410000Y-9290000D01*
X19466800Y-7452600D02*
X19496800Y-7482600D01*
X19496800Y-7452600D02*
X19466800Y-7482600D01*
X19466800Y-7541500D02*
X19496800Y-7571500D01*
X19496800Y-7541500D02*
X19466800Y-7571500D01*
X19479500Y-7725000D02*
X19509500Y-7755000D01*
X19509500Y-7725000D02*
X19479500Y-7755000D01*
X19485000Y-8795000D02*
X19515000Y-8825000D01*
X19515000Y-8795000D02*
X19485000Y-8825000D01*
X19504900Y-6347700D02*
X19534900Y-6377700D01*
X19534900Y-6347700D02*
X19504900Y-6377700D01*
X19535000Y-5760000D02*
X19565000Y-5790000D01*
X19565000Y-5760000D02*
X19535000Y-5790000D01*
X19535000Y-9535000D02*
X19565000Y-9565000D01*
X19565000Y-9535000D02*
X19535000Y-9565000D01*
X19543000Y-7363700D02*
X19573000Y-7393700D01*
X19573000Y-7363700D02*
X19543000Y-7393700D01*
X19543000Y-7960600D02*
X19573000Y-7990600D01*
X19573000Y-7960600D02*
X19543000Y-7990600D01*
X19543000Y-9129000D02*
X19573000Y-9159000D01*
X19573000Y-9129000D02*
X19543000Y-9159000D01*
X19555700Y-6601700D02*
X19585700Y-6631700D01*
X19585700Y-6601700D02*
X19555700Y-6631700D01*
X19581100Y-6296900D02*
X19611100Y-6326900D01*
X19611100Y-6296900D02*
X19581100Y-6326900D01*
X19619200Y-9281400D02*
X19649200Y-9311400D01*
X19649200Y-9281400D02*
X19619200Y-9311400D01*
X19635000Y-4835000D02*
X19665000Y-4865000D01*
X19665000Y-4835000D02*
X19635000Y-4865000D01*
X19657300Y-7528800D02*
X19687300Y-7558800D01*
X19687300Y-7528800D02*
X19657300Y-7558800D01*
X19670000Y-8748000D02*
X19700000Y-8778000D01*
X19700000Y-8748000D02*
X19670000Y-8778000D01*
X19682700Y-7947900D02*
X19712700Y-7977900D01*
X19712700Y-7947900D02*
X19682700Y-7977900D01*
X19695400Y-8976600D02*
X19725400Y-9006600D01*
X19725400Y-8976600D02*
X19695400Y-9006600D01*
X19733500Y-7452600D02*
X19763500Y-7482600D01*
X19763500Y-7452600D02*
X19733500Y-7482600D01*
X19735000Y-5285000D02*
X19765000Y-5315000D01*
X19765000Y-5285000D02*
X19735000Y-5315000D01*
X19771600Y-8265400D02*
X19801600Y-8295400D01*
X19801600Y-8265400D02*
X19771600Y-8295400D01*
X19771600Y-8748000D02*
X19801600Y-8778000D01*
X19801600Y-8748000D02*
X19771600Y-8778000D01*
X19860000Y-4885000D02*
X19890000Y-4915000D01*
X19890000Y-4885000D02*
X19860000Y-4915000D01*
X19873200Y-6677900D02*
X19903200Y-6707900D01*
X19903200Y-6677900D02*
X19873200Y-6707900D01*
X19911300Y-6601700D02*
X19941300Y-6631700D01*
X19941300Y-6601700D02*
X19911300Y-6631700D01*
X19924000Y-8697200D02*
X19954000Y-8727200D01*
X19954000Y-8697200D02*
X19924000Y-8727200D01*
X19949400Y-6500100D02*
X19979400Y-6530100D01*
X19979400Y-6500100D02*
X19949400Y-6530100D01*
X19962100Y-7249400D02*
X19992100Y-7279400D01*
X19992100Y-7249400D02*
X19962100Y-7279400D01*
X20000200Y-8240000D02*
X20030200Y-8270000D01*
X20030200Y-8240000D02*
X20000200Y-8270000D01*
X20115000Y-9145000D02*
X20145000Y-9175000D01*
X20145000Y-9145000D02*
X20115000Y-9175000D01*
X20178000Y-5204700D02*
X20208000Y-5234700D01*
X20208000Y-5204700D02*
X20178000Y-5234700D01*
X20238400Y-6462000D02*
X20268400Y-6492000D01*
X20268400Y-6462000D02*
X20238400Y-6492000D01*
D13*
X18598000Y-4953000D02*
G75*
G03*
X18598000Y-4953000I-25000J0D01*
G01*
D11*
X18598000Y-4985500D02*
X18598000Y-4920500D01*
X18598000Y-4920500D02*
G75*
G03*
X18548000Y-4920500I-25000J0D01*
G01*
X18548000Y-4920500D02*
X18548000Y-4985500D01*
X18548000Y-4985500D02*
G75*
G03*
X18598000Y-4985500I25000J0D01*
G01*
D13*
X19298000Y-4953000D02*
G75*
G03*
X19298000Y-4953000I-25000J0D01*
G01*
D11*
X19298000Y-4985500D02*
X19298000Y-4920500D01*
X19298000Y-4920500D02*
G75*
G03*
X19248000Y-4920500I-25000J0D01*
G01*
X19248000Y-4920500D02*
X19248000Y-4985500D01*
X19248000Y-4985500D02*
G75*
G03*
X19298000Y-4985500I25000J0D01*
G01*
D14*
X18673000Y-5195500D02*
X18673000Y-5250500D01*
X18645500Y-5223000D02*
X18700500Y-5223000D01*
D11*
X18688025Y-5195500D02*
X18657975Y-5195500D01*
X18657975Y-5195500D02*
G75*
G03*
X18657975Y-5250500I0J-27500D01*
G01*
X18657975Y-5250500D02*
X18688025Y-5250500D01*
X18688025Y-5250500D02*
G75*
G03*
X18688025Y-5195500I0J27500D01*
G01*
D14*
X19173000Y-5195500D02*
X19173000Y-5250500D01*
X19145500Y-5223000D02*
X19200500Y-5223000D01*
D11*
X19188025Y-5195500D02*
X19157975Y-5195500D01*
X19157975Y-5195500D02*
G75*
G03*
X19157975Y-5250500I0J-27500D01*
G01*
X19157975Y-5250500D02*
X19188025Y-5250500D01*
X19188025Y-5250500D02*
G75*
G03*
X19188025Y-5195500I0J27500D01*
G01*
D10*
X17815356Y-5115356D02*
X17815356Y-5044644D01*
X17744644Y-5044644D01*
X17744644Y-5115356D01*
X17815356Y-5115356D01*
X17815356Y-5369356D02*
X17815356Y-5298644D01*
X17744644Y-5298644D01*
X17744644Y-5369356D01*
X17815356Y-5369356D01*
X17815356Y-5623356D02*
X17815356Y-5552644D01*
X17744644Y-5552644D01*
X17744644Y-5623356D01*
X17815356Y-5623356D01*
X17815356Y-5877356D02*
X17815356Y-5806644D01*
X17744644Y-5806644D01*
X17744644Y-5877356D01*
X17815356Y-5877356D01*
X17815356Y-6131356D02*
X17815356Y-6060644D01*
X17744644Y-6060644D01*
X17744644Y-6131356D01*
X17815356Y-6131356D01*
X17815356Y-6385356D02*
X17815356Y-6314644D01*
X17744644Y-6314644D01*
X17744644Y-6385356D01*
X17815356Y-6385356D01*
X17815356Y-6639356D02*
X17815356Y-6568644D01*
X17744644Y-6568644D01*
X17744644Y-6639356D01*
X17815356Y-6639356D01*
X17815356Y-6893356D02*
X17815356Y-6822644D01*
X17744644Y-6822644D01*
X17744644Y-6893356D01*
X17815356Y-6893356D01*
X17815356Y-7147356D02*
X17815356Y-7076644D01*
X17744644Y-7076644D01*
X17744644Y-7147356D01*
X17815356Y-7147356D01*
X17815356Y-7401356D02*
X17815356Y-7330644D01*
X17744644Y-7330644D01*
X17744644Y-7401356D01*
X17815356Y-7401356D01*
X17815356Y-7655356D02*
X17815356Y-7584644D01*
X17744644Y-7584644D01*
X17744644Y-7655356D01*
X17815356Y-7655356D01*
X17815356Y-7909356D02*
X17815356Y-7838644D01*
X17744644Y-7838644D01*
X17744644Y-7909356D01*
X17815356Y-7909356D01*
X17815356Y-8163356D02*
X17815356Y-8092644D01*
X17744644Y-8092644D01*
X17744644Y-8163356D01*
X17815356Y-8163356D01*
X17815356Y-8417356D02*
X17815356Y-8346644D01*
X17744644Y-8346644D01*
X17744644Y-8417356D01*
X17815356Y-8417356D01*
X17815356Y-8671356D02*
X17815356Y-8600644D01*
X17744644Y-8600644D01*
X17744644Y-8671356D01*
X17815356Y-8671356D01*
X17815356Y-8925356D02*
X17815356Y-8854644D01*
X17744644Y-8854644D01*
X17744644Y-8925356D01*
X17815356Y-8925356D01*
X17815356Y-9433356D02*
X17815356Y-9362644D01*
X17744644Y-9362644D01*
X17744644Y-9433356D01*
X17815356Y-9433356D01*
X18069356Y-9433356D02*
X18069356Y-9362644D01*
X17998644Y-9362644D01*
X17998644Y-9433356D01*
X18069356Y-9433356D01*
X18323356Y-9433356D02*
X18323356Y-9362644D01*
X18252644Y-9362644D01*
X18252644Y-9433356D01*
X18323356Y-9433356D01*
X18577356Y-9433356D02*
X18577356Y-9362644D01*
X18506644Y-9362644D01*
X18506644Y-9433356D01*
X18577356Y-9433356D01*
X18831356Y-9433356D02*
X18831356Y-9362644D01*
X18760644Y-9362644D01*
X18760644Y-9433356D01*
X18831356Y-9433356D01*
X19085356Y-9433356D02*
X19085356Y-9362644D01*
X19014644Y-9362644D01*
X19014644Y-9433356D01*
X19085356Y-9433356D01*
X19339356Y-9433356D02*
X19339356Y-9362644D01*
X19268644Y-9362644D01*
X19268644Y-9433356D01*
X19339356Y-9433356D01*
X20101356Y-5115356D02*
X20101356Y-5044644D01*
X20030644Y-5044644D01*
X20030644Y-5115356D01*
X20101356Y-5115356D01*
X20101356Y-5369356D02*
X20101356Y-5298644D01*
X20030644Y-5298644D01*
X20030644Y-5369356D01*
X20101356Y-5369356D01*
X20101356Y-5623356D02*
X20101356Y-5552644D01*
X20030644Y-5552644D01*
X20030644Y-5623356D01*
X20101356Y-5623356D01*
X20101356Y-5877356D02*
X20101356Y-5806644D01*
X20030644Y-5806644D01*
X20030644Y-5877356D01*
X20101356Y-5877356D01*
X20101356Y-6131356D02*
X20101356Y-6060644D01*
X20030644Y-6060644D01*
X20030644Y-6131356D01*
X20101356Y-6131356D01*
X20101356Y-6385356D02*
X20101356Y-6314644D01*
X20030644Y-6314644D01*
X20030644Y-6385356D01*
X20101356Y-6385356D01*
X20101356Y-6639356D02*
X20101356Y-6568644D01*
X20030644Y-6568644D01*
X20030644Y-6639356D01*
X20101356Y-6639356D01*
X20101356Y-6893356D02*
X20101356Y-6822644D01*
X20030644Y-6822644D01*
X20030644Y-6893356D01*
X20101356Y-6893356D01*
X20101356Y-7147356D02*
X20101356Y-7076644D01*
X20030644Y-7076644D01*
X20030644Y-7147356D01*
X20101356Y-7147356D01*
X20101356Y-7401356D02*
X20101356Y-7330644D01*
X20030644Y-7330644D01*
X20030644Y-7401356D01*
X20101356Y-7401356D01*
X20101356Y-7655356D02*
X20101356Y-7584644D01*
X20030644Y-7584644D01*
X20030644Y-7655356D01*
X20101356Y-7655356D01*
X20101356Y-7909356D02*
X20101356Y-7838644D01*
X20030644Y-7838644D01*
X20030644Y-7909356D01*
X20101356Y-7909356D01*
X20101356Y-8163356D02*
X20101356Y-8092644D01*
X20030644Y-8092644D01*
X20030644Y-8163356D01*
X20101356Y-8163356D01*
X20101356Y-8417356D02*
X20101356Y-8346644D01*
X20030644Y-8346644D01*
X20030644Y-8417356D01*
X20101356Y-8417356D01*
X20101356Y-8671356D02*
X20101356Y-8600644D01*
X20030644Y-8600644D01*
X20030644Y-8671356D01*
X20101356Y-8671356D01*
X20101356Y-8925356D02*
X20101356Y-8854644D01*
X20030644Y-8854644D01*
X20030644Y-8925356D01*
X20101356Y-8925356D01*
D11*
X17792619Y-9942524D02*
X17792619Y-9742524D01*
X17792619Y-9742524D02*
X17840238Y-9742524D01*
X17840238Y-9742524D02*
X17868810Y-9752048D01*
X17868810Y-9752048D02*
X17887857Y-9771095D01*
X17887857Y-9771095D02*
X17897381Y-9790143D01*
X17897381Y-9790143D02*
X17906905Y-9828238D01*
X17906905Y-9828238D02*
X17906905Y-9856810D01*
X17906905Y-9856810D02*
X17897381Y-9894905D01*
X17897381Y-9894905D02*
X17887857Y-9913952D01*
X17887857Y-9913952D02*
X17868810Y-9933000D01*
X17868810Y-9933000D02*
X17840238Y-9942524D01*
X17840238Y-9942524D02*
X17792619Y-9942524D01*
X17992619Y-9942524D02*
X17992619Y-9809190D01*
X17992619Y-9847286D02*
X18002143Y-9828238D01*
X18002143Y-9828238D02*
X18011667Y-9818714D01*
X18011667Y-9818714D02*
X18030714Y-9809190D01*
X18030714Y-9809190D02*
X18049762Y-9809190D01*
X18116429Y-9942524D02*
X18116429Y-9809190D01*
X18116429Y-9742524D02*
X18106905Y-9752048D01*
X18106905Y-9752048D02*
X18116429Y-9761571D01*
X18116429Y-9761571D02*
X18125952Y-9752048D01*
X18125952Y-9752048D02*
X18116429Y-9742524D01*
X18116429Y-9742524D02*
X18116429Y-9761571D01*
X18240238Y-9942524D02*
X18221190Y-9933000D01*
X18221190Y-9933000D02*
X18211667Y-9913952D01*
X18211667Y-9913952D02*
X18211667Y-9742524D01*
X18345000Y-9942524D02*
X18325952Y-9933000D01*
X18325952Y-9933000D02*
X18316429Y-9913952D01*
X18316429Y-9913952D02*
X18316429Y-9742524D01*
X18573571Y-9942524D02*
X18573571Y-9742524D01*
X18573571Y-9742524D02*
X18640238Y-9885381D01*
X18640238Y-9885381D02*
X18706905Y-9742524D01*
X18706905Y-9742524D02*
X18706905Y-9942524D01*
X18887857Y-9942524D02*
X18887857Y-9837762D01*
X18887857Y-9837762D02*
X18878333Y-9818714D01*
X18878333Y-9818714D02*
X18859286Y-9809190D01*
X18859286Y-9809190D02*
X18821190Y-9809190D01*
X18821190Y-9809190D02*
X18802143Y-9818714D01*
X18887857Y-9933000D02*
X18868810Y-9942524D01*
X18868810Y-9942524D02*
X18821190Y-9942524D01*
X18821190Y-9942524D02*
X18802143Y-9933000D01*
X18802143Y-9933000D02*
X18792619Y-9913952D01*
X18792619Y-9913952D02*
X18792619Y-9894905D01*
X18792619Y-9894905D02*
X18802143Y-9875857D01*
X18802143Y-9875857D02*
X18821190Y-9866333D01*
X18821190Y-9866333D02*
X18868810Y-9866333D01*
X18868810Y-9866333D02*
X18887857Y-9856810D01*
X18983095Y-9809190D02*
X18983095Y-10009190D01*
X18983095Y-9818714D02*
X19002143Y-9809190D01*
X19002143Y-9809190D02*
X19040238Y-9809190D01*
X19040238Y-9809190D02*
X19059286Y-9818714D01*
X19059286Y-9818714D02*
X19068810Y-9828238D01*
X19068810Y-9828238D02*
X19078333Y-9847286D01*
X19078333Y-9847286D02*
X19078333Y-9904429D01*
X19078333Y-9904429D02*
X19068810Y-9923476D01*
X19068810Y-9923476D02*
X19059286Y-9933000D01*
X19059286Y-9933000D02*
X19040238Y-9942524D01*
X19040238Y-9942524D02*
X19002143Y-9942524D01*
X19002143Y-9942524D02*
X18983095Y-9933000D01*
X19164048Y-9923476D02*
X19173571Y-9933000D01*
X19173571Y-9933000D02*
X19164048Y-9942524D01*
X19164048Y-9942524D02*
X19154524Y-9933000D01*
X19154524Y-9933000D02*
X19164048Y-9923476D01*
X19164048Y-9923476D02*
X19164048Y-9942524D01*
X19164048Y-9818714D02*
X19173571Y-9828238D01*
X19173571Y-9828238D02*
X19164048Y-9837762D01*
X19164048Y-9837762D02*
X19154524Y-9828238D01*
X19154524Y-9828238D02*
X19164048Y-9818714D01*
X19164048Y-9818714D02*
X19164048Y-9837762D01*
D12*
X17515000Y-10255000D02*
X17545000Y-10285000D01*
X17545000Y-10255000D02*
X17515000Y-10285000D01*
D11*
X17830714Y-10162524D02*
X17849762Y-10162524D01*
X17849762Y-10162524D02*
X17868810Y-10172048D01*
X17868810Y-10172048D02*
X17878333Y-10181571D01*
X17878333Y-10181571D02*
X17887857Y-10200619D01*
X17887857Y-10200619D02*
X17897381Y-10238714D01*
X17897381Y-10238714D02*
X17897381Y-10286333D01*
X17897381Y-10286333D02*
X17887857Y-10324429D01*
X17887857Y-10324429D02*
X17878333Y-10343476D01*
X17878333Y-10343476D02*
X17868810Y-10353000D01*
X17868810Y-10353000D02*
X17849762Y-10362524D01*
X17849762Y-10362524D02*
X17830714Y-10362524D01*
X17830714Y-10362524D02*
X17811667Y-10353000D01*
X17811667Y-10353000D02*
X17802143Y-10343476D01*
X17802143Y-10343476D02*
X17792619Y-10324429D01*
X17792619Y-10324429D02*
X17783095Y-10286333D01*
X17783095Y-10286333D02*
X17783095Y-10238714D01*
X17783095Y-10238714D02*
X17792619Y-10200619D01*
X17792619Y-10200619D02*
X17802143Y-10181571D01*
X17802143Y-10181571D02*
X17811667Y-10172048D01*
X17811667Y-10172048D02*
X17830714Y-10162524D01*
X17983095Y-10343476D02*
X17992619Y-10353000D01*
X17992619Y-10353000D02*
X17983095Y-10362524D01*
X17983095Y-10362524D02*
X17973571Y-10353000D01*
X17973571Y-10353000D02*
X17983095Y-10343476D01*
X17983095Y-10343476D02*
X17983095Y-10362524D01*
X18059286Y-10162524D02*
X18183095Y-10162524D01*
X18183095Y-10162524D02*
X18116429Y-10238714D01*
X18116429Y-10238714D02*
X18145000Y-10238714D01*
X18145000Y-10238714D02*
X18164048Y-10248238D01*
X18164048Y-10248238D02*
X18173571Y-10257762D01*
X18173571Y-10257762D02*
X18183095Y-10276810D01*
X18183095Y-10276810D02*
X18183095Y-10324429D01*
X18183095Y-10324429D02*
X18173571Y-10343476D01*
X18173571Y-10343476D02*
X18164048Y-10353000D01*
X18164048Y-10353000D02*
X18145000Y-10362524D01*
X18145000Y-10362524D02*
X18087857Y-10362524D01*
X18087857Y-10362524D02*
X18068810Y-10353000D01*
X18068810Y-10353000D02*
X18059286Y-10343476D01*
X18306905Y-10162524D02*
X18325952Y-10162524D01*
X18325952Y-10162524D02*
X18345000Y-10172048D01*
X18345000Y-10172048D02*
X18354524Y-10181571D01*
X18354524Y-10181571D02*
X18364048Y-10200619D01*
X18364048Y-10200619D02*
X18373571Y-10238714D01*
X18373571Y-10238714D02*
X18373571Y-10286333D01*
X18373571Y-10286333D02*
X18364048Y-10324429D01*
X18364048Y-10324429D02*
X18354524Y-10343476D01*
X18354524Y-10343476D02*
X18345000Y-10353000D01*
X18345000Y-10353000D02*
X18325952Y-10362524D01*
X18325952Y-10362524D02*
X18306905Y-10362524D01*
X18306905Y-10362524D02*
X18287857Y-10353000D01*
X18287857Y-10353000D02*
X18278333Y-10343476D01*
X18278333Y-10343476D02*
X18268810Y-10324429D01*
X18268810Y-10324429D02*
X18259286Y-10286333D01*
X18259286Y-10286333D02*
X18259286Y-10238714D01*
X18259286Y-10238714D02*
X18268810Y-10200619D01*
X18268810Y-10200619D02*
X18278333Y-10181571D01*
X18278333Y-10181571D02*
X18287857Y-10172048D01*
X18287857Y-10172048D02*
X18306905Y-10162524D01*
X18497381Y-10162524D02*
X18516429Y-10162524D01*
X18516429Y-10162524D02*
X18535476Y-10172048D01*
X18535476Y-10172048D02*
X18545000Y-10181571D01*
X18545000Y-10181571D02*
X18554524Y-10200619D01*
X18554524Y-10200619D02*
X18564048Y-10238714D01*
X18564048Y-10238714D02*
X18564048Y-10286333D01*
X18564048Y-10286333D02*
X18554524Y-10324429D01*
X18554524Y-10324429D02*
X18545000Y-10343476D01*
X18545000Y-10343476D02*
X18535476Y-10353000D01*
X18535476Y-10353000D02*
X18516429Y-10362524D01*
X18516429Y-10362524D02*
X18497381Y-10362524D01*
X18497381Y-10362524D02*
X18478333Y-10353000D01*
X18478333Y-10353000D02*
X18468810Y-10343476D01*
X18468810Y-10343476D02*
X18459286Y-10324429D01*
X18459286Y-10324429D02*
X18449762Y-10286333D01*
X18449762Y-10286333D02*
X18449762Y-10238714D01*
X18449762Y-10238714D02*
X18459286Y-10200619D01*
X18459286Y-10200619D02*
X18468810Y-10181571D01*
X18468810Y-10181571D02*
X18478333Y-10172048D01*
X18478333Y-10172048D02*
X18497381Y-10162524D01*
X18649762Y-10362524D02*
X18649762Y-10229190D01*
X18649762Y-10248238D02*
X18659286Y-10238714D01*
X18659286Y-10238714D02*
X18678333Y-10229190D01*
X18678333Y-10229190D02*
X18706905Y-10229190D01*
X18706905Y-10229190D02*
X18725952Y-10238714D01*
X18725952Y-10238714D02*
X18735476Y-10257762D01*
X18735476Y-10257762D02*
X18735476Y-10362524D01*
X18735476Y-10257762D02*
X18745000Y-10238714D01*
X18745000Y-10238714D02*
X18764048Y-10229190D01*
X18764048Y-10229190D02*
X18792619Y-10229190D01*
X18792619Y-10229190D02*
X18811667Y-10238714D01*
X18811667Y-10238714D02*
X18821191Y-10257762D01*
X18821191Y-10257762D02*
X18821191Y-10362524D01*
X18916429Y-10362524D02*
X18916429Y-10229190D01*
X18916429Y-10248238D02*
X18925952Y-10238714D01*
X18925952Y-10238714D02*
X18945000Y-10229190D01*
X18945000Y-10229190D02*
X18973572Y-10229190D01*
X18973572Y-10229190D02*
X18992619Y-10238714D01*
X18992619Y-10238714D02*
X19002143Y-10257762D01*
X19002143Y-10257762D02*
X19002143Y-10362524D01*
X19002143Y-10257762D02*
X19011667Y-10238714D01*
X19011667Y-10238714D02*
X19030714Y-10229190D01*
X19030714Y-10229190D02*
X19059286Y-10229190D01*
X19059286Y-10229190D02*
X19078333Y-10238714D01*
X19078333Y-10238714D02*
X19087857Y-10257762D01*
X19087857Y-10257762D02*
X19087857Y-10362524D01*
X19478333Y-10153000D02*
X19306905Y-10410143D01*
X19735476Y-10162524D02*
X19754524Y-10162524D01*
X19754524Y-10162524D02*
X19773572Y-10172048D01*
X19773572Y-10172048D02*
X19783095Y-10181571D01*
X19783095Y-10181571D02*
X19792619Y-10200619D01*
X19792619Y-10200619D02*
X19802143Y-10238714D01*
X19802143Y-10238714D02*
X19802143Y-10286333D01*
X19802143Y-10286333D02*
X19792619Y-10324429D01*
X19792619Y-10324429D02*
X19783095Y-10343476D01*
X19783095Y-10343476D02*
X19773572Y-10353000D01*
X19773572Y-10353000D02*
X19754524Y-10362524D01*
X19754524Y-10362524D02*
X19735476Y-10362524D01*
X19735476Y-10362524D02*
X19716429Y-10353000D01*
X19716429Y-10353000D02*
X19706905Y-10343476D01*
X19706905Y-10343476D02*
X19697381Y-10324429D01*
X19697381Y-10324429D02*
X19687857Y-10286333D01*
X19687857Y-10286333D02*
X19687857Y-10238714D01*
X19687857Y-10238714D02*
X19697381Y-10200619D01*
X19697381Y-10200619D02*
X19706905Y-10181571D01*
X19706905Y-10181571D02*
X19716429Y-10172048D01*
X19716429Y-10172048D02*
X19735476Y-10162524D01*
X19887857Y-10343476D02*
X19897381Y-10353000D01*
X19897381Y-10353000D02*
X19887857Y-10362524D01*
X19887857Y-10362524D02*
X19878334Y-10353000D01*
X19878334Y-10353000D02*
X19887857Y-10343476D01*
X19887857Y-10343476D02*
X19887857Y-10362524D01*
X20021191Y-10162524D02*
X20040238Y-10162524D01*
X20040238Y-10162524D02*
X20059286Y-10172048D01*
X20059286Y-10172048D02*
X20068810Y-10181571D01*
X20068810Y-10181571D02*
X20078334Y-10200619D01*
X20078334Y-10200619D02*
X20087857Y-10238714D01*
X20087857Y-10238714D02*
X20087857Y-10286333D01*
X20087857Y-10286333D02*
X20078334Y-10324429D01*
X20078334Y-10324429D02*
X20068810Y-10343476D01*
X20068810Y-10343476D02*
X20059286Y-10353000D01*
X20059286Y-10353000D02*
X20040238Y-10362524D01*
X20040238Y-10362524D02*
X20021191Y-10362524D01*
X20021191Y-10362524D02*
X20002143Y-10353000D01*
X20002143Y-10353000D02*
X19992619Y-10343476D01*
X19992619Y-10343476D02*
X19983095Y-10324429D01*
X19983095Y-10324429D02*
X19973572Y-10286333D01*
X19973572Y-10286333D02*
X19973572Y-10238714D01*
X19973572Y-10238714D02*
X19983095Y-10200619D01*
X19983095Y-10200619D02*
X19992619Y-10181571D01*
X19992619Y-10181571D02*
X20002143Y-10172048D01*
X20002143Y-10172048D02*
X20021191Y-10162524D01*
X20278334Y-10362524D02*
X20164048Y-10362524D01*
X20221191Y-10362524D02*
X20221191Y-10162524D01*
X20221191Y-10162524D02*
X20202143Y-10191095D01*
X20202143Y-10191095D02*
X20183095Y-10210143D01*
X20183095Y-10210143D02*
X20164048Y-10219667D01*
X20468810Y-10362524D02*
X20354524Y-10362524D01*
X20411667Y-10362524D02*
X20411667Y-10162524D01*
X20411667Y-10162524D02*
X20392619Y-10191095D01*
X20392619Y-10191095D02*
X20373572Y-10210143D01*
X20373572Y-10210143D02*
X20354524Y-10219667D01*
X20583095Y-10248238D02*
X20564048Y-10238714D01*
X20564048Y-10238714D02*
X20554524Y-10229190D01*
X20554524Y-10229190D02*
X20545000Y-10210143D01*
X20545000Y-10210143D02*
X20545000Y-10200619D01*
X20545000Y-10200619D02*
X20554524Y-10181571D01*
X20554524Y-10181571D02*
X20564048Y-10172048D01*
X20564048Y-10172048D02*
X20583095Y-10162524D01*
X20583095Y-10162524D02*
X20621191Y-10162524D01*
X20621191Y-10162524D02*
X20640238Y-10172048D01*
X20640238Y-10172048D02*
X20649762Y-10181571D01*
X20649762Y-10181571D02*
X20659286Y-10200619D01*
X20659286Y-10200619D02*
X20659286Y-10210143D01*
X20659286Y-10210143D02*
X20649762Y-10229190D01*
X20649762Y-10229190D02*
X20640238Y-10238714D01*
X20640238Y-10238714D02*
X20621191Y-10248238D01*
X20621191Y-10248238D02*
X20583095Y-10248238D01*
X20583095Y-10248238D02*
X20564048Y-10257762D01*
X20564048Y-10257762D02*
X20554524Y-10267286D01*
X20554524Y-10267286D02*
X20545000Y-10286333D01*
X20545000Y-10286333D02*
X20545000Y-10324429D01*
X20545000Y-10324429D02*
X20554524Y-10343476D01*
X20554524Y-10343476D02*
X20564048Y-10353000D01*
X20564048Y-10353000D02*
X20583095Y-10362524D01*
X20583095Y-10362524D02*
X20621191Y-10362524D01*
X20621191Y-10362524D02*
X20640238Y-10353000D01*
X20640238Y-10353000D02*
X20649762Y-10343476D01*
X20649762Y-10343476D02*
X20659286Y-10324429D01*
X20659286Y-10324429D02*
X20659286Y-10286333D01*
X20659286Y-10286333D02*
X20649762Y-10267286D01*
X20649762Y-10267286D02*
X20640238Y-10257762D01*
X20640238Y-10257762D02*
X20621191Y-10248238D01*
X20735476Y-10162524D02*
X20735476Y-10200619D01*
X20811667Y-10162524D02*
X20811667Y-10200619D01*
X21106905Y-10438714D02*
X21097381Y-10429190D01*
X21097381Y-10429190D02*
X21078334Y-10400619D01*
X21078334Y-10400619D02*
X21068810Y-10381571D01*
X21068810Y-10381571D02*
X21059286Y-10353000D01*
X21059286Y-10353000D02*
X21049762Y-10305381D01*
X21049762Y-10305381D02*
X21049762Y-10267286D01*
X21049762Y-10267286D02*
X21059286Y-10219667D01*
X21059286Y-10219667D02*
X21068810Y-10191095D01*
X21068810Y-10191095D02*
X21078334Y-10172048D01*
X21078334Y-10172048D02*
X21097381Y-10143476D01*
X21097381Y-10143476D02*
X21106905Y-10133952D01*
X21287857Y-10362524D02*
X21173572Y-10362524D01*
X21230715Y-10362524D02*
X21230715Y-10162524D01*
X21230715Y-10162524D02*
X21211667Y-10191095D01*
X21211667Y-10191095D02*
X21192619Y-10210143D01*
X21192619Y-10210143D02*
X21173572Y-10219667D01*
X21354524Y-10162524D02*
X21478334Y-10162524D01*
X21478334Y-10162524D02*
X21411667Y-10238714D01*
X21411667Y-10238714D02*
X21440238Y-10238714D01*
X21440238Y-10238714D02*
X21459286Y-10248238D01*
X21459286Y-10248238D02*
X21468810Y-10257762D01*
X21468810Y-10257762D02*
X21478334Y-10276810D01*
X21478334Y-10276810D02*
X21478334Y-10324429D01*
X21478334Y-10324429D02*
X21468810Y-10343476D01*
X21468810Y-10343476D02*
X21459286Y-10353000D01*
X21459286Y-10353000D02*
X21440238Y-10362524D01*
X21440238Y-10362524D02*
X21383096Y-10362524D01*
X21383096Y-10362524D02*
X21364048Y-10353000D01*
X21364048Y-10353000D02*
X21354524Y-10343476D01*
X21649762Y-10229190D02*
X21649762Y-10362524D01*
X21602143Y-10153000D02*
X21554524Y-10295857D01*
X21554524Y-10295857D02*
X21678334Y-10295857D01*
X21906905Y-10362524D02*
X21906905Y-10162524D01*
X21992619Y-10362524D02*
X21992619Y-10257762D01*
X21992619Y-10257762D02*
X21983096Y-10238714D01*
X21983096Y-10238714D02*
X21964048Y-10229190D01*
X21964048Y-10229190D02*
X21935477Y-10229190D01*
X21935477Y-10229190D02*
X21916429Y-10238714D01*
X21916429Y-10238714D02*
X21906905Y-10248238D01*
X22116429Y-10362524D02*
X22097381Y-10353000D01*
X22097381Y-10353000D02*
X22087858Y-10343476D01*
X22087858Y-10343476D02*
X22078334Y-10324429D01*
X22078334Y-10324429D02*
X22078334Y-10267286D01*
X22078334Y-10267286D02*
X22087858Y-10248238D01*
X22087858Y-10248238D02*
X22097381Y-10238714D01*
X22097381Y-10238714D02*
X22116429Y-10229190D01*
X22116429Y-10229190D02*
X22145000Y-10229190D01*
X22145000Y-10229190D02*
X22164048Y-10238714D01*
X22164048Y-10238714D02*
X22173572Y-10248238D01*
X22173572Y-10248238D02*
X22183096Y-10267286D01*
X22183096Y-10267286D02*
X22183096Y-10324429D01*
X22183096Y-10324429D02*
X22173572Y-10343476D01*
X22173572Y-10343476D02*
X22164048Y-10353000D01*
X22164048Y-10353000D02*
X22145000Y-10362524D01*
X22145000Y-10362524D02*
X22116429Y-10362524D01*
X22297381Y-10362524D02*
X22278334Y-10353000D01*
X22278334Y-10353000D02*
X22268810Y-10333952D01*
X22268810Y-10333952D02*
X22268810Y-10162524D01*
X22449762Y-10353000D02*
X22430715Y-10362524D01*
X22430715Y-10362524D02*
X22392619Y-10362524D01*
X22392619Y-10362524D02*
X22373572Y-10353000D01*
X22373572Y-10353000D02*
X22364048Y-10333952D01*
X22364048Y-10333952D02*
X22364048Y-10257762D01*
X22364048Y-10257762D02*
X22373572Y-10238714D01*
X22373572Y-10238714D02*
X22392619Y-10229190D01*
X22392619Y-10229190D02*
X22430715Y-10229190D01*
X22430715Y-10229190D02*
X22449762Y-10238714D01*
X22449762Y-10238714D02*
X22459286Y-10257762D01*
X22459286Y-10257762D02*
X22459286Y-10276810D01*
X22459286Y-10276810D02*
X22364048Y-10295857D01*
X22535477Y-10353000D02*
X22554524Y-10362524D01*
X22554524Y-10362524D02*
X22592619Y-10362524D01*
X22592619Y-10362524D02*
X22611667Y-10353000D01*
X22611667Y-10353000D02*
X22621191Y-10333952D01*
X22621191Y-10333952D02*
X22621191Y-10324429D01*
X22621191Y-10324429D02*
X22611667Y-10305381D01*
X22611667Y-10305381D02*
X22592619Y-10295857D01*
X22592619Y-10295857D02*
X22564048Y-10295857D01*
X22564048Y-10295857D02*
X22545000Y-10286333D01*
X22545000Y-10286333D02*
X22535477Y-10267286D01*
X22535477Y-10267286D02*
X22535477Y-10257762D01*
X22535477Y-10257762D02*
X22545000Y-10238714D01*
X22545000Y-10238714D02*
X22564048Y-10229190D01*
X22564048Y-10229190D02*
X22592619Y-10229190D01*
X22592619Y-10229190D02*
X22611667Y-10238714D01*
X22687858Y-10438714D02*
X22697381Y-10429190D01*
X22697381Y-10429190D02*
X22716429Y-10400619D01*
X22716429Y-10400619D02*
X22725953Y-10381571D01*
X22725953Y-10381571D02*
X22735477Y-10353000D01*
X22735477Y-10353000D02*
X22745000Y-10305381D01*
X22745000Y-10305381D02*
X22745000Y-10267286D01*
X22745000Y-10267286D02*
X22735477Y-10219667D01*
X22735477Y-10219667D02*
X22725953Y-10191095D01*
X22725953Y-10191095D02*
X22716429Y-10172048D01*
X22716429Y-10172048D02*
X22697381Y-10143476D01*
X22697381Y-10143476D02*
X22687858Y-10133952D01*
D13*
X17545000Y-10534000D02*
G75*
G03*
X17545000Y-10534000I-25000J0D01*
G01*
D11*
X17830714Y-10426524D02*
X17849762Y-10426524D01*
X17849762Y-10426524D02*
X17868810Y-10436048D01*
X17868810Y-10436048D02*
X17878333Y-10445571D01*
X17878333Y-10445571D02*
X17887857Y-10464619D01*
X17887857Y-10464619D02*
X17897381Y-10502714D01*
X17897381Y-10502714D02*
X17897381Y-10550333D01*
X17897381Y-10550333D02*
X17887857Y-10588429D01*
X17887857Y-10588429D02*
X17878333Y-10607476D01*
X17878333Y-10607476D02*
X17868810Y-10617000D01*
X17868810Y-10617000D02*
X17849762Y-10626524D01*
X17849762Y-10626524D02*
X17830714Y-10626524D01*
X17830714Y-10626524D02*
X17811667Y-10617000D01*
X17811667Y-10617000D02*
X17802143Y-10607476D01*
X17802143Y-10607476D02*
X17792619Y-10588429D01*
X17792619Y-10588429D02*
X17783095Y-10550333D01*
X17783095Y-10550333D02*
X17783095Y-10502714D01*
X17783095Y-10502714D02*
X17792619Y-10464619D01*
X17792619Y-10464619D02*
X17802143Y-10445571D01*
X17802143Y-10445571D02*
X17811667Y-10436048D01*
X17811667Y-10436048D02*
X17830714Y-10426524D01*
X17983095Y-10607476D02*
X17992619Y-10617000D01*
X17992619Y-10617000D02*
X17983095Y-10626524D01*
X17983095Y-10626524D02*
X17973571Y-10617000D01*
X17973571Y-10617000D02*
X17983095Y-10607476D01*
X17983095Y-10607476D02*
X17983095Y-10626524D01*
X18173571Y-10426524D02*
X18078333Y-10426524D01*
X18078333Y-10426524D02*
X18068810Y-10521762D01*
X18068810Y-10521762D02*
X18078333Y-10512238D01*
X18078333Y-10512238D02*
X18097381Y-10502714D01*
X18097381Y-10502714D02*
X18145000Y-10502714D01*
X18145000Y-10502714D02*
X18164048Y-10512238D01*
X18164048Y-10512238D02*
X18173571Y-10521762D01*
X18173571Y-10521762D02*
X18183095Y-10540810D01*
X18183095Y-10540810D02*
X18183095Y-10588429D01*
X18183095Y-10588429D02*
X18173571Y-10607476D01*
X18173571Y-10607476D02*
X18164048Y-10617000D01*
X18164048Y-10617000D02*
X18145000Y-10626524D01*
X18145000Y-10626524D02*
X18097381Y-10626524D01*
X18097381Y-10626524D02*
X18078333Y-10617000D01*
X18078333Y-10617000D02*
X18068810Y-10607476D01*
X18306905Y-10426524D02*
X18325952Y-10426524D01*
X18325952Y-10426524D02*
X18345000Y-10436048D01*
X18345000Y-10436048D02*
X18354524Y-10445571D01*
X18354524Y-10445571D02*
X18364048Y-10464619D01*
X18364048Y-10464619D02*
X18373571Y-10502714D01*
X18373571Y-10502714D02*
X18373571Y-10550333D01*
X18373571Y-10550333D02*
X18364048Y-10588429D01*
X18364048Y-10588429D02*
X18354524Y-10607476D01*
X18354524Y-10607476D02*
X18345000Y-10617000D01*
X18345000Y-10617000D02*
X18325952Y-10626524D01*
X18325952Y-10626524D02*
X18306905Y-10626524D01*
X18306905Y-10626524D02*
X18287857Y-10617000D01*
X18287857Y-10617000D02*
X18278333Y-10607476D01*
X18278333Y-10607476D02*
X18268810Y-10588429D01*
X18268810Y-10588429D02*
X18259286Y-10550333D01*
X18259286Y-10550333D02*
X18259286Y-10502714D01*
X18259286Y-10502714D02*
X18268810Y-10464619D01*
X18268810Y-10464619D02*
X18278333Y-10445571D01*
X18278333Y-10445571D02*
X18287857Y-10436048D01*
X18287857Y-10436048D02*
X18306905Y-10426524D01*
X18497381Y-10426524D02*
X18516429Y-10426524D01*
X18516429Y-10426524D02*
X18535476Y-10436048D01*
X18535476Y-10436048D02*
X18545000Y-10445571D01*
X18545000Y-10445571D02*
X18554524Y-10464619D01*
X18554524Y-10464619D02*
X18564048Y-10502714D01*
X18564048Y-10502714D02*
X18564048Y-10550333D01*
X18564048Y-10550333D02*
X18554524Y-10588429D01*
X18554524Y-10588429D02*
X18545000Y-10607476D01*
X18545000Y-10607476D02*
X18535476Y-10617000D01*
X18535476Y-10617000D02*
X18516429Y-10626524D01*
X18516429Y-10626524D02*
X18497381Y-10626524D01*
X18497381Y-10626524D02*
X18478333Y-10617000D01*
X18478333Y-10617000D02*
X18468810Y-10607476D01*
X18468810Y-10607476D02*
X18459286Y-10588429D01*
X18459286Y-10588429D02*
X18449762Y-10550333D01*
X18449762Y-10550333D02*
X18449762Y-10502714D01*
X18449762Y-10502714D02*
X18459286Y-10464619D01*
X18459286Y-10464619D02*
X18468810Y-10445571D01*
X18468810Y-10445571D02*
X18478333Y-10436048D01*
X18478333Y-10436048D02*
X18497381Y-10426524D01*
X18649762Y-10626524D02*
X18649762Y-10493190D01*
X18649762Y-10512238D02*
X18659286Y-10502714D01*
X18659286Y-10502714D02*
X18678333Y-10493190D01*
X18678333Y-10493190D02*
X18706905Y-10493190D01*
X18706905Y-10493190D02*
X18725952Y-10502714D01*
X18725952Y-10502714D02*
X18735476Y-10521762D01*
X18735476Y-10521762D02*
X18735476Y-10626524D01*
X18735476Y-10521762D02*
X18745000Y-10502714D01*
X18745000Y-10502714D02*
X18764048Y-10493190D01*
X18764048Y-10493190D02*
X18792619Y-10493190D01*
X18792619Y-10493190D02*
X18811667Y-10502714D01*
X18811667Y-10502714D02*
X18821191Y-10521762D01*
X18821191Y-10521762D02*
X18821191Y-10626524D01*
X18916429Y-10626524D02*
X18916429Y-10493190D01*
X18916429Y-10512238D02*
X18925952Y-10502714D01*
X18925952Y-10502714D02*
X18945000Y-10493190D01*
X18945000Y-10493190D02*
X18973572Y-10493190D01*
X18973572Y-10493190D02*
X18992619Y-10502714D01*
X18992619Y-10502714D02*
X19002143Y-10521762D01*
X19002143Y-10521762D02*
X19002143Y-10626524D01*
X19002143Y-10521762D02*
X19011667Y-10502714D01*
X19011667Y-10502714D02*
X19030714Y-10493190D01*
X19030714Y-10493190D02*
X19059286Y-10493190D01*
X19059286Y-10493190D02*
X19078333Y-10502714D01*
X19078333Y-10502714D02*
X19087857Y-10521762D01*
X19087857Y-10521762D02*
X19087857Y-10626524D01*
X19478333Y-10417000D02*
X19306905Y-10674143D01*
X19735476Y-10426524D02*
X19754524Y-10426524D01*
X19754524Y-10426524D02*
X19773572Y-10436048D01*
X19773572Y-10436048D02*
X19783095Y-10445571D01*
X19783095Y-10445571D02*
X19792619Y-10464619D01*
X19792619Y-10464619D02*
X19802143Y-10502714D01*
X19802143Y-10502714D02*
X19802143Y-10550333D01*
X19802143Y-10550333D02*
X19792619Y-10588429D01*
X19792619Y-10588429D02*
X19783095Y-10607476D01*
X19783095Y-10607476D02*
X19773572Y-10617000D01*
X19773572Y-10617000D02*
X19754524Y-10626524D01*
X19754524Y-10626524D02*
X19735476Y-10626524D01*
X19735476Y-10626524D02*
X19716429Y-10617000D01*
X19716429Y-10617000D02*
X19706905Y-10607476D01*
X19706905Y-10607476D02*
X19697381Y-10588429D01*
X19697381Y-10588429D02*
X19687857Y-10550333D01*
X19687857Y-10550333D02*
X19687857Y-10502714D01*
X19687857Y-10502714D02*
X19697381Y-10464619D01*
X19697381Y-10464619D02*
X19706905Y-10445571D01*
X19706905Y-10445571D02*
X19716429Y-10436048D01*
X19716429Y-10436048D02*
X19735476Y-10426524D01*
X19887857Y-10607476D02*
X19897381Y-10617000D01*
X19897381Y-10617000D02*
X19887857Y-10626524D01*
X19887857Y-10626524D02*
X19878334Y-10617000D01*
X19878334Y-10617000D02*
X19887857Y-10607476D01*
X19887857Y-10607476D02*
X19887857Y-10626524D01*
X20021191Y-10426524D02*
X20040238Y-10426524D01*
X20040238Y-10426524D02*
X20059286Y-10436048D01*
X20059286Y-10436048D02*
X20068810Y-10445571D01*
X20068810Y-10445571D02*
X20078334Y-10464619D01*
X20078334Y-10464619D02*
X20087857Y-10502714D01*
X20087857Y-10502714D02*
X20087857Y-10550333D01*
X20087857Y-10550333D02*
X20078334Y-10588429D01*
X20078334Y-10588429D02*
X20068810Y-10607476D01*
X20068810Y-10607476D02*
X20059286Y-10617000D01*
X20059286Y-10617000D02*
X20040238Y-10626524D01*
X20040238Y-10626524D02*
X20021191Y-10626524D01*
X20021191Y-10626524D02*
X20002143Y-10617000D01*
X20002143Y-10617000D02*
X19992619Y-10607476D01*
X19992619Y-10607476D02*
X19983095Y-10588429D01*
X19983095Y-10588429D02*
X19973572Y-10550333D01*
X19973572Y-10550333D02*
X19973572Y-10502714D01*
X19973572Y-10502714D02*
X19983095Y-10464619D01*
X19983095Y-10464619D02*
X19992619Y-10445571D01*
X19992619Y-10445571D02*
X20002143Y-10436048D01*
X20002143Y-10436048D02*
X20021191Y-10426524D01*
X20278334Y-10626524D02*
X20164048Y-10626524D01*
X20221191Y-10626524D02*
X20221191Y-10426524D01*
X20221191Y-10426524D02*
X20202143Y-10455095D01*
X20202143Y-10455095D02*
X20183095Y-10474143D01*
X20183095Y-10474143D02*
X20164048Y-10483667D01*
X20373572Y-10626524D02*
X20411667Y-10626524D01*
X20411667Y-10626524D02*
X20430715Y-10617000D01*
X20430715Y-10617000D02*
X20440238Y-10607476D01*
X20440238Y-10607476D02*
X20459286Y-10578905D01*
X20459286Y-10578905D02*
X20468810Y-10540810D01*
X20468810Y-10540810D02*
X20468810Y-10464619D01*
X20468810Y-10464619D02*
X20459286Y-10445571D01*
X20459286Y-10445571D02*
X20449762Y-10436048D01*
X20449762Y-10436048D02*
X20430715Y-10426524D01*
X20430715Y-10426524D02*
X20392619Y-10426524D01*
X20392619Y-10426524D02*
X20373572Y-10436048D01*
X20373572Y-10436048D02*
X20364048Y-10445571D01*
X20364048Y-10445571D02*
X20354524Y-10464619D01*
X20354524Y-10464619D02*
X20354524Y-10512238D01*
X20354524Y-10512238D02*
X20364048Y-10531286D01*
X20364048Y-10531286D02*
X20373572Y-10540810D01*
X20373572Y-10540810D02*
X20392619Y-10550333D01*
X20392619Y-10550333D02*
X20430715Y-10550333D01*
X20430715Y-10550333D02*
X20449762Y-10540810D01*
X20449762Y-10540810D02*
X20459286Y-10531286D01*
X20459286Y-10531286D02*
X20468810Y-10512238D01*
X20535476Y-10426524D02*
X20668810Y-10426524D01*
X20668810Y-10426524D02*
X20583095Y-10626524D01*
X20735476Y-10426524D02*
X20735476Y-10464619D01*
X20811667Y-10426524D02*
X20811667Y-10464619D01*
X21106905Y-10702714D02*
X21097381Y-10693190D01*
X21097381Y-10693190D02*
X21078334Y-10664619D01*
X21078334Y-10664619D02*
X21068810Y-10645571D01*
X21068810Y-10645571D02*
X21059286Y-10617000D01*
X21059286Y-10617000D02*
X21049762Y-10569381D01*
X21049762Y-10569381D02*
X21049762Y-10531286D01*
X21049762Y-10531286D02*
X21059286Y-10483667D01*
X21059286Y-10483667D02*
X21068810Y-10455095D01*
X21068810Y-10455095D02*
X21078334Y-10436048D01*
X21078334Y-10436048D02*
X21097381Y-10407476D01*
X21097381Y-10407476D02*
X21106905Y-10397952D01*
X21221191Y-10426524D02*
X21240238Y-10426524D01*
X21240238Y-10426524D02*
X21259286Y-10436048D01*
X21259286Y-10436048D02*
X21268810Y-10445571D01*
X21268810Y-10445571D02*
X21278334Y-10464619D01*
X21278334Y-10464619D02*
X21287857Y-10502714D01*
X21287857Y-10502714D02*
X21287857Y-10550333D01*
X21287857Y-10550333D02*
X21278334Y-10588429D01*
X21278334Y-10588429D02*
X21268810Y-10607476D01*
X21268810Y-10607476D02*
X21259286Y-10617000D01*
X21259286Y-10617000D02*
X21240238Y-10626524D01*
X21240238Y-10626524D02*
X21221191Y-10626524D01*
X21221191Y-10626524D02*
X21202143Y-10617000D01*
X21202143Y-10617000D02*
X21192619Y-10607476D01*
X21192619Y-10607476D02*
X21183096Y-10588429D01*
X21183096Y-10588429D02*
X21173572Y-10550333D01*
X21173572Y-10550333D02*
X21173572Y-10502714D01*
X21173572Y-10502714D02*
X21183096Y-10464619D01*
X21183096Y-10464619D02*
X21192619Y-10445571D01*
X21192619Y-10445571D02*
X21202143Y-10436048D01*
X21202143Y-10436048D02*
X21221191Y-10426524D01*
X21525953Y-10626524D02*
X21525953Y-10426524D01*
X21611667Y-10626524D02*
X21611667Y-10521762D01*
X21611667Y-10521762D02*
X21602143Y-10502714D01*
X21602143Y-10502714D02*
X21583096Y-10493190D01*
X21583096Y-10493190D02*
X21554524Y-10493190D01*
X21554524Y-10493190D02*
X21535477Y-10502714D01*
X21535477Y-10502714D02*
X21525953Y-10512238D01*
X21735477Y-10626524D02*
X21716429Y-10617000D01*
X21716429Y-10617000D02*
X21706905Y-10607476D01*
X21706905Y-10607476D02*
X21697381Y-10588429D01*
X21697381Y-10588429D02*
X21697381Y-10531286D01*
X21697381Y-10531286D02*
X21706905Y-10512238D01*
X21706905Y-10512238D02*
X21716429Y-10502714D01*
X21716429Y-10502714D02*
X21735477Y-10493190D01*
X21735477Y-10493190D02*
X21764048Y-10493190D01*
X21764048Y-10493190D02*
X21783096Y-10502714D01*
X21783096Y-10502714D02*
X21792619Y-10512238D01*
X21792619Y-10512238D02*
X21802143Y-10531286D01*
X21802143Y-10531286D02*
X21802143Y-10588429D01*
X21802143Y-10588429D02*
X21792619Y-10607476D01*
X21792619Y-10607476D02*
X21783096Y-10617000D01*
X21783096Y-10617000D02*
X21764048Y-10626524D01*
X21764048Y-10626524D02*
X21735477Y-10626524D01*
X21916429Y-10626524D02*
X21897381Y-10617000D01*
X21897381Y-10617000D02*
X21887858Y-10597952D01*
X21887858Y-10597952D02*
X21887858Y-10426524D01*
X22068810Y-10617000D02*
X22049762Y-10626524D01*
X22049762Y-10626524D02*
X22011667Y-10626524D01*
X22011667Y-10626524D02*
X21992619Y-10617000D01*
X21992619Y-10617000D02*
X21983096Y-10597952D01*
X21983096Y-10597952D02*
X21983096Y-10521762D01*
X21983096Y-10521762D02*
X21992619Y-10502714D01*
X21992619Y-10502714D02*
X22011667Y-10493190D01*
X22011667Y-10493190D02*
X22049762Y-10493190D01*
X22049762Y-10493190D02*
X22068810Y-10502714D01*
X22068810Y-10502714D02*
X22078334Y-10521762D01*
X22078334Y-10521762D02*
X22078334Y-10540810D01*
X22078334Y-10540810D02*
X21983096Y-10559857D01*
X22154524Y-10617000D02*
X22173572Y-10626524D01*
X22173572Y-10626524D02*
X22211667Y-10626524D01*
X22211667Y-10626524D02*
X22230715Y-10617000D01*
X22230715Y-10617000D02*
X22240239Y-10597952D01*
X22240239Y-10597952D02*
X22240239Y-10588429D01*
X22240239Y-10588429D02*
X22230715Y-10569381D01*
X22230715Y-10569381D02*
X22211667Y-10559857D01*
X22211667Y-10559857D02*
X22183096Y-10559857D01*
X22183096Y-10559857D02*
X22164048Y-10550333D01*
X22164048Y-10550333D02*
X22154524Y-10531286D01*
X22154524Y-10531286D02*
X22154524Y-10521762D01*
X22154524Y-10521762D02*
X22164048Y-10502714D01*
X22164048Y-10502714D02*
X22183096Y-10493190D01*
X22183096Y-10493190D02*
X22211667Y-10493190D01*
X22211667Y-10493190D02*
X22230715Y-10502714D01*
X22478334Y-10550333D02*
X22630715Y-10550333D01*
X22554524Y-10626524D02*
X22554524Y-10474143D01*
X22868810Y-10445571D02*
X22878334Y-10436048D01*
X22878334Y-10436048D02*
X22897381Y-10426524D01*
X22897381Y-10426524D02*
X22945000Y-10426524D01*
X22945000Y-10426524D02*
X22964048Y-10436048D01*
X22964048Y-10436048D02*
X22973572Y-10445571D01*
X22973572Y-10445571D02*
X22983096Y-10464619D01*
X22983096Y-10464619D02*
X22983096Y-10483667D01*
X22983096Y-10483667D02*
X22973572Y-10512238D01*
X22973572Y-10512238D02*
X22859286Y-10626524D01*
X22859286Y-10626524D02*
X22983096Y-10626524D01*
X23211667Y-10617000D02*
X23230715Y-10626524D01*
X23230715Y-10626524D02*
X23268810Y-10626524D01*
X23268810Y-10626524D02*
X23287858Y-10617000D01*
X23287858Y-10617000D02*
X23297381Y-10597952D01*
X23297381Y-10597952D02*
X23297381Y-10588429D01*
X23297381Y-10588429D02*
X23287858Y-10569381D01*
X23287858Y-10569381D02*
X23268810Y-10559857D01*
X23268810Y-10559857D02*
X23240239Y-10559857D01*
X23240239Y-10559857D02*
X23221191Y-10550333D01*
X23221191Y-10550333D02*
X23211667Y-10531286D01*
X23211667Y-10531286D02*
X23211667Y-10521762D01*
X23211667Y-10521762D02*
X23221191Y-10502714D01*
X23221191Y-10502714D02*
X23240239Y-10493190D01*
X23240239Y-10493190D02*
X23268810Y-10493190D01*
X23268810Y-10493190D02*
X23287858Y-10502714D01*
X23411667Y-10626524D02*
X23392620Y-10617000D01*
X23392620Y-10617000D02*
X23383096Y-10597952D01*
X23383096Y-10597952D02*
X23383096Y-10426524D01*
X23516429Y-10626524D02*
X23497381Y-10617000D01*
X23497381Y-10617000D02*
X23487858Y-10607476D01*
X23487858Y-10607476D02*
X23478334Y-10588429D01*
X23478334Y-10588429D02*
X23478334Y-10531286D01*
X23478334Y-10531286D02*
X23487858Y-10512238D01*
X23487858Y-10512238D02*
X23497381Y-10502714D01*
X23497381Y-10502714D02*
X23516429Y-10493190D01*
X23516429Y-10493190D02*
X23545001Y-10493190D01*
X23545001Y-10493190D02*
X23564048Y-10502714D01*
X23564048Y-10502714D02*
X23573572Y-10512238D01*
X23573572Y-10512238D02*
X23583096Y-10531286D01*
X23583096Y-10531286D02*
X23583096Y-10588429D01*
X23583096Y-10588429D02*
X23573572Y-10607476D01*
X23573572Y-10607476D02*
X23564048Y-10617000D01*
X23564048Y-10617000D02*
X23545001Y-10626524D01*
X23545001Y-10626524D02*
X23516429Y-10626524D01*
X23640239Y-10493190D02*
X23716429Y-10493190D01*
X23668810Y-10426524D02*
X23668810Y-10597952D01*
X23668810Y-10597952D02*
X23678334Y-10617000D01*
X23678334Y-10617000D02*
X23697381Y-10626524D01*
X23697381Y-10626524D02*
X23716429Y-10626524D01*
X23773572Y-10617000D02*
X23792620Y-10626524D01*
X23792620Y-10626524D02*
X23830715Y-10626524D01*
X23830715Y-10626524D02*
X23849762Y-10617000D01*
X23849762Y-10617000D02*
X23859286Y-10597952D01*
X23859286Y-10597952D02*
X23859286Y-10588429D01*
X23859286Y-10588429D02*
X23849762Y-10569381D01*
X23849762Y-10569381D02*
X23830715Y-10559857D01*
X23830715Y-10559857D02*
X23802143Y-10559857D01*
X23802143Y-10559857D02*
X23783096Y-10550333D01*
X23783096Y-10550333D02*
X23773572Y-10531286D01*
X23773572Y-10531286D02*
X23773572Y-10521762D01*
X23773572Y-10521762D02*
X23783096Y-10502714D01*
X23783096Y-10502714D02*
X23802143Y-10493190D01*
X23802143Y-10493190D02*
X23830715Y-10493190D01*
X23830715Y-10493190D02*
X23849762Y-10502714D01*
X23925953Y-10702714D02*
X23935477Y-10693190D01*
X23935477Y-10693190D02*
X23954524Y-10664619D01*
X23954524Y-10664619D02*
X23964048Y-10645571D01*
X23964048Y-10645571D02*
X23973572Y-10617000D01*
X23973572Y-10617000D02*
X23983096Y-10569381D01*
X23983096Y-10569381D02*
X23983096Y-10531286D01*
X23983096Y-10531286D02*
X23973572Y-10483667D01*
X23973572Y-10483667D02*
X23964048Y-10455095D01*
X23964048Y-10455095D02*
X23954524Y-10436048D01*
X23954524Y-10436048D02*
X23935477Y-10407476D01*
X23935477Y-10407476D02*
X23925953Y-10397952D01*
D14*
X17517500Y-10770500D02*
X17517500Y-10825500D01*
X17490000Y-10798000D02*
X17545000Y-10798000D01*
D11*
X17830714Y-10690524D02*
X17849762Y-10690524D01*
X17849762Y-10690524D02*
X17868810Y-10700048D01*
X17868810Y-10700048D02*
X17878333Y-10709571D01*
X17878333Y-10709571D02*
X17887857Y-10728619D01*
X17887857Y-10728619D02*
X17897381Y-10766714D01*
X17897381Y-10766714D02*
X17897381Y-10814333D01*
X17897381Y-10814333D02*
X17887857Y-10852429D01*
X17887857Y-10852429D02*
X17878333Y-10871476D01*
X17878333Y-10871476D02*
X17868810Y-10881000D01*
X17868810Y-10881000D02*
X17849762Y-10890524D01*
X17849762Y-10890524D02*
X17830714Y-10890524D01*
X17830714Y-10890524D02*
X17811667Y-10881000D01*
X17811667Y-10881000D02*
X17802143Y-10871476D01*
X17802143Y-10871476D02*
X17792619Y-10852429D01*
X17792619Y-10852429D02*
X17783095Y-10814333D01*
X17783095Y-10814333D02*
X17783095Y-10766714D01*
X17783095Y-10766714D02*
X17792619Y-10728619D01*
X17792619Y-10728619D02*
X17802143Y-10709571D01*
X17802143Y-10709571D02*
X17811667Y-10700048D01*
X17811667Y-10700048D02*
X17830714Y-10690524D01*
X17983095Y-10871476D02*
X17992619Y-10881000D01*
X17992619Y-10881000D02*
X17983095Y-10890524D01*
X17983095Y-10890524D02*
X17973571Y-10881000D01*
X17973571Y-10881000D02*
X17983095Y-10871476D01*
X17983095Y-10871476D02*
X17983095Y-10890524D01*
X18173571Y-10690524D02*
X18078333Y-10690524D01*
X18078333Y-10690524D02*
X18068810Y-10785762D01*
X18068810Y-10785762D02*
X18078333Y-10776238D01*
X18078333Y-10776238D02*
X18097381Y-10766714D01*
X18097381Y-10766714D02*
X18145000Y-10766714D01*
X18145000Y-10766714D02*
X18164048Y-10776238D01*
X18164048Y-10776238D02*
X18173571Y-10785762D01*
X18173571Y-10785762D02*
X18183095Y-10804810D01*
X18183095Y-10804810D02*
X18183095Y-10852429D01*
X18183095Y-10852429D02*
X18173571Y-10871476D01*
X18173571Y-10871476D02*
X18164048Y-10881000D01*
X18164048Y-10881000D02*
X18145000Y-10890524D01*
X18145000Y-10890524D02*
X18097381Y-10890524D01*
X18097381Y-10890524D02*
X18078333Y-10881000D01*
X18078333Y-10881000D02*
X18068810Y-10871476D01*
X18364048Y-10690524D02*
X18268810Y-10690524D01*
X18268810Y-10690524D02*
X18259286Y-10785762D01*
X18259286Y-10785762D02*
X18268810Y-10776238D01*
X18268810Y-10776238D02*
X18287857Y-10766714D01*
X18287857Y-10766714D02*
X18335476Y-10766714D01*
X18335476Y-10766714D02*
X18354524Y-10776238D01*
X18354524Y-10776238D02*
X18364048Y-10785762D01*
X18364048Y-10785762D02*
X18373571Y-10804810D01*
X18373571Y-10804810D02*
X18373571Y-10852429D01*
X18373571Y-10852429D02*
X18364048Y-10871476D01*
X18364048Y-10871476D02*
X18354524Y-10881000D01*
X18354524Y-10881000D02*
X18335476Y-10890524D01*
X18335476Y-10890524D02*
X18287857Y-10890524D01*
X18287857Y-10890524D02*
X18268810Y-10881000D01*
X18268810Y-10881000D02*
X18259286Y-10871476D01*
X18497381Y-10690524D02*
X18516429Y-10690524D01*
X18516429Y-10690524D02*
X18535476Y-10700048D01*
X18535476Y-10700048D02*
X18545000Y-10709571D01*
X18545000Y-10709571D02*
X18554524Y-10728619D01*
X18554524Y-10728619D02*
X18564048Y-10766714D01*
X18564048Y-10766714D02*
X18564048Y-10814333D01*
X18564048Y-10814333D02*
X18554524Y-10852429D01*
X18554524Y-10852429D02*
X18545000Y-10871476D01*
X18545000Y-10871476D02*
X18535476Y-10881000D01*
X18535476Y-10881000D02*
X18516429Y-10890524D01*
X18516429Y-10890524D02*
X18497381Y-10890524D01*
X18497381Y-10890524D02*
X18478333Y-10881000D01*
X18478333Y-10881000D02*
X18468810Y-10871476D01*
X18468810Y-10871476D02*
X18459286Y-10852429D01*
X18459286Y-10852429D02*
X18449762Y-10814333D01*
X18449762Y-10814333D02*
X18449762Y-10766714D01*
X18449762Y-10766714D02*
X18459286Y-10728619D01*
X18459286Y-10728619D02*
X18468810Y-10709571D01*
X18468810Y-10709571D02*
X18478333Y-10700048D01*
X18478333Y-10700048D02*
X18497381Y-10690524D01*
X18649762Y-10890524D02*
X18649762Y-10757190D01*
X18649762Y-10776238D02*
X18659286Y-10766714D01*
X18659286Y-10766714D02*
X18678333Y-10757190D01*
X18678333Y-10757190D02*
X18706905Y-10757190D01*
X18706905Y-10757190D02*
X18725952Y-10766714D01*
X18725952Y-10766714D02*
X18735476Y-10785762D01*
X18735476Y-10785762D02*
X18735476Y-10890524D01*
X18735476Y-10785762D02*
X18745000Y-10766714D01*
X18745000Y-10766714D02*
X18764048Y-10757190D01*
X18764048Y-10757190D02*
X18792619Y-10757190D01*
X18792619Y-10757190D02*
X18811667Y-10766714D01*
X18811667Y-10766714D02*
X18821191Y-10785762D01*
X18821191Y-10785762D02*
X18821191Y-10890524D01*
X18916429Y-10890524D02*
X18916429Y-10757190D01*
X18916429Y-10776238D02*
X18925952Y-10766714D01*
X18925952Y-10766714D02*
X18945000Y-10757190D01*
X18945000Y-10757190D02*
X18973572Y-10757190D01*
X18973572Y-10757190D02*
X18992619Y-10766714D01*
X18992619Y-10766714D02*
X19002143Y-10785762D01*
X19002143Y-10785762D02*
X19002143Y-10890524D01*
X19002143Y-10785762D02*
X19011667Y-10766714D01*
X19011667Y-10766714D02*
X19030714Y-10757190D01*
X19030714Y-10757190D02*
X19059286Y-10757190D01*
X19059286Y-10757190D02*
X19078333Y-10766714D01*
X19078333Y-10766714D02*
X19087857Y-10785762D01*
X19087857Y-10785762D02*
X19087857Y-10890524D01*
X19478333Y-10681000D02*
X19306905Y-10938143D01*
X19735476Y-10690524D02*
X19754524Y-10690524D01*
X19754524Y-10690524D02*
X19773572Y-10700048D01*
X19773572Y-10700048D02*
X19783095Y-10709571D01*
X19783095Y-10709571D02*
X19792619Y-10728619D01*
X19792619Y-10728619D02*
X19802143Y-10766714D01*
X19802143Y-10766714D02*
X19802143Y-10814333D01*
X19802143Y-10814333D02*
X19792619Y-10852429D01*
X19792619Y-10852429D02*
X19783095Y-10871476D01*
X19783095Y-10871476D02*
X19773572Y-10881000D01*
X19773572Y-10881000D02*
X19754524Y-10890524D01*
X19754524Y-10890524D02*
X19735476Y-10890524D01*
X19735476Y-10890524D02*
X19716429Y-10881000D01*
X19716429Y-10881000D02*
X19706905Y-10871476D01*
X19706905Y-10871476D02*
X19697381Y-10852429D01*
X19697381Y-10852429D02*
X19687857Y-10814333D01*
X19687857Y-10814333D02*
X19687857Y-10766714D01*
X19687857Y-10766714D02*
X19697381Y-10728619D01*
X19697381Y-10728619D02*
X19706905Y-10709571D01*
X19706905Y-10709571D02*
X19716429Y-10700048D01*
X19716429Y-10700048D02*
X19735476Y-10690524D01*
X19887857Y-10871476D02*
X19897381Y-10881000D01*
X19897381Y-10881000D02*
X19887857Y-10890524D01*
X19887857Y-10890524D02*
X19878334Y-10881000D01*
X19878334Y-10881000D02*
X19887857Y-10871476D01*
X19887857Y-10871476D02*
X19887857Y-10890524D01*
X20021191Y-10690524D02*
X20040238Y-10690524D01*
X20040238Y-10690524D02*
X20059286Y-10700048D01*
X20059286Y-10700048D02*
X20068810Y-10709571D01*
X20068810Y-10709571D02*
X20078334Y-10728619D01*
X20078334Y-10728619D02*
X20087857Y-10766714D01*
X20087857Y-10766714D02*
X20087857Y-10814333D01*
X20087857Y-10814333D02*
X20078334Y-10852429D01*
X20078334Y-10852429D02*
X20068810Y-10871476D01*
X20068810Y-10871476D02*
X20059286Y-10881000D01*
X20059286Y-10881000D02*
X20040238Y-10890524D01*
X20040238Y-10890524D02*
X20021191Y-10890524D01*
X20021191Y-10890524D02*
X20002143Y-10881000D01*
X20002143Y-10881000D02*
X19992619Y-10871476D01*
X19992619Y-10871476D02*
X19983095Y-10852429D01*
X19983095Y-10852429D02*
X19973572Y-10814333D01*
X19973572Y-10814333D02*
X19973572Y-10766714D01*
X19973572Y-10766714D02*
X19983095Y-10728619D01*
X19983095Y-10728619D02*
X19992619Y-10709571D01*
X19992619Y-10709571D02*
X20002143Y-10700048D01*
X20002143Y-10700048D02*
X20021191Y-10690524D01*
X20164048Y-10709571D02*
X20173572Y-10700048D01*
X20173572Y-10700048D02*
X20192619Y-10690524D01*
X20192619Y-10690524D02*
X20240238Y-10690524D01*
X20240238Y-10690524D02*
X20259286Y-10700048D01*
X20259286Y-10700048D02*
X20268810Y-10709571D01*
X20268810Y-10709571D02*
X20278334Y-10728619D01*
X20278334Y-10728619D02*
X20278334Y-10747667D01*
X20278334Y-10747667D02*
X20268810Y-10776238D01*
X20268810Y-10776238D02*
X20154524Y-10890524D01*
X20154524Y-10890524D02*
X20278334Y-10890524D01*
X20468810Y-10890524D02*
X20354524Y-10890524D01*
X20411667Y-10890524D02*
X20411667Y-10690524D01*
X20411667Y-10690524D02*
X20392619Y-10719095D01*
X20392619Y-10719095D02*
X20373572Y-10738143D01*
X20373572Y-10738143D02*
X20354524Y-10747667D01*
X20535476Y-10690524D02*
X20668810Y-10690524D01*
X20668810Y-10690524D02*
X20583095Y-10890524D01*
X20735476Y-10690524D02*
X20735476Y-10728619D01*
X20811667Y-10690524D02*
X20811667Y-10728619D01*
X21106905Y-10966714D02*
X21097381Y-10957190D01*
X21097381Y-10957190D02*
X21078334Y-10928619D01*
X21078334Y-10928619D02*
X21068810Y-10909571D01*
X21068810Y-10909571D02*
X21059286Y-10881000D01*
X21059286Y-10881000D02*
X21049762Y-10833381D01*
X21049762Y-10833381D02*
X21049762Y-10795286D01*
X21049762Y-10795286D02*
X21059286Y-10747667D01*
X21059286Y-10747667D02*
X21068810Y-10719095D01*
X21068810Y-10719095D02*
X21078334Y-10700048D01*
X21078334Y-10700048D02*
X21097381Y-10671476D01*
X21097381Y-10671476D02*
X21106905Y-10661952D01*
X21221191Y-10690524D02*
X21240238Y-10690524D01*
X21240238Y-10690524D02*
X21259286Y-10700048D01*
X21259286Y-10700048D02*
X21268810Y-10709571D01*
X21268810Y-10709571D02*
X21278334Y-10728619D01*
X21278334Y-10728619D02*
X21287857Y-10766714D01*
X21287857Y-10766714D02*
X21287857Y-10814333D01*
X21287857Y-10814333D02*
X21278334Y-10852429D01*
X21278334Y-10852429D02*
X21268810Y-10871476D01*
X21268810Y-10871476D02*
X21259286Y-10881000D01*
X21259286Y-10881000D02*
X21240238Y-10890524D01*
X21240238Y-10890524D02*
X21221191Y-10890524D01*
X21221191Y-10890524D02*
X21202143Y-10881000D01*
X21202143Y-10881000D02*
X21192619Y-10871476D01*
X21192619Y-10871476D02*
X21183096Y-10852429D01*
X21183096Y-10852429D02*
X21173572Y-10814333D01*
X21173572Y-10814333D02*
X21173572Y-10766714D01*
X21173572Y-10766714D02*
X21183096Y-10728619D01*
X21183096Y-10728619D02*
X21192619Y-10709571D01*
X21192619Y-10709571D02*
X21202143Y-10700048D01*
X21202143Y-10700048D02*
X21221191Y-10690524D01*
X21525953Y-10890524D02*
X21525953Y-10690524D01*
X21611667Y-10890524D02*
X21611667Y-10785762D01*
X21611667Y-10785762D02*
X21602143Y-10766714D01*
X21602143Y-10766714D02*
X21583096Y-10757190D01*
X21583096Y-10757190D02*
X21554524Y-10757190D01*
X21554524Y-10757190D02*
X21535477Y-10766714D01*
X21535477Y-10766714D02*
X21525953Y-10776238D01*
X21735477Y-10890524D02*
X21716429Y-10881000D01*
X21716429Y-10881000D02*
X21706905Y-10871476D01*
X21706905Y-10871476D02*
X21697381Y-10852429D01*
X21697381Y-10852429D02*
X21697381Y-10795286D01*
X21697381Y-10795286D02*
X21706905Y-10776238D01*
X21706905Y-10776238D02*
X21716429Y-10766714D01*
X21716429Y-10766714D02*
X21735477Y-10757190D01*
X21735477Y-10757190D02*
X21764048Y-10757190D01*
X21764048Y-10757190D02*
X21783096Y-10766714D01*
X21783096Y-10766714D02*
X21792619Y-10776238D01*
X21792619Y-10776238D02*
X21802143Y-10795286D01*
X21802143Y-10795286D02*
X21802143Y-10852429D01*
X21802143Y-10852429D02*
X21792619Y-10871476D01*
X21792619Y-10871476D02*
X21783096Y-10881000D01*
X21783096Y-10881000D02*
X21764048Y-10890524D01*
X21764048Y-10890524D02*
X21735477Y-10890524D01*
X21916429Y-10890524D02*
X21897381Y-10881000D01*
X21897381Y-10881000D02*
X21887858Y-10861952D01*
X21887858Y-10861952D02*
X21887858Y-10690524D01*
X22068810Y-10881000D02*
X22049762Y-10890524D01*
X22049762Y-10890524D02*
X22011667Y-10890524D01*
X22011667Y-10890524D02*
X21992619Y-10881000D01*
X21992619Y-10881000D02*
X21983096Y-10861952D01*
X21983096Y-10861952D02*
X21983096Y-10785762D01*
X21983096Y-10785762D02*
X21992619Y-10766714D01*
X21992619Y-10766714D02*
X22011667Y-10757190D01*
X22011667Y-10757190D02*
X22049762Y-10757190D01*
X22049762Y-10757190D02*
X22068810Y-10766714D01*
X22068810Y-10766714D02*
X22078334Y-10785762D01*
X22078334Y-10785762D02*
X22078334Y-10804810D01*
X22078334Y-10804810D02*
X21983096Y-10823857D01*
X22154524Y-10881000D02*
X22173572Y-10890524D01*
X22173572Y-10890524D02*
X22211667Y-10890524D01*
X22211667Y-10890524D02*
X22230715Y-10881000D01*
X22230715Y-10881000D02*
X22240239Y-10861952D01*
X22240239Y-10861952D02*
X22240239Y-10852429D01*
X22240239Y-10852429D02*
X22230715Y-10833381D01*
X22230715Y-10833381D02*
X22211667Y-10823857D01*
X22211667Y-10823857D02*
X22183096Y-10823857D01*
X22183096Y-10823857D02*
X22164048Y-10814333D01*
X22164048Y-10814333D02*
X22154524Y-10795286D01*
X22154524Y-10795286D02*
X22154524Y-10785762D01*
X22154524Y-10785762D02*
X22164048Y-10766714D01*
X22164048Y-10766714D02*
X22183096Y-10757190D01*
X22183096Y-10757190D02*
X22211667Y-10757190D01*
X22211667Y-10757190D02*
X22230715Y-10766714D01*
X22478334Y-10814333D02*
X22630715Y-10814333D01*
X22554524Y-10890524D02*
X22554524Y-10738143D01*
X22868810Y-10709571D02*
X22878334Y-10700048D01*
X22878334Y-10700048D02*
X22897381Y-10690524D01*
X22897381Y-10690524D02*
X22945000Y-10690524D01*
X22945000Y-10690524D02*
X22964048Y-10700048D01*
X22964048Y-10700048D02*
X22973572Y-10709571D01*
X22973572Y-10709571D02*
X22983096Y-10728619D01*
X22983096Y-10728619D02*
X22983096Y-10747667D01*
X22983096Y-10747667D02*
X22973572Y-10776238D01*
X22973572Y-10776238D02*
X22859286Y-10890524D01*
X22859286Y-10890524D02*
X22983096Y-10890524D01*
X23211667Y-10881000D02*
X23230715Y-10890524D01*
X23230715Y-10890524D02*
X23268810Y-10890524D01*
X23268810Y-10890524D02*
X23287858Y-10881000D01*
X23287858Y-10881000D02*
X23297381Y-10861952D01*
X23297381Y-10861952D02*
X23297381Y-10852429D01*
X23297381Y-10852429D02*
X23287858Y-10833381D01*
X23287858Y-10833381D02*
X23268810Y-10823857D01*
X23268810Y-10823857D02*
X23240239Y-10823857D01*
X23240239Y-10823857D02*
X23221191Y-10814333D01*
X23221191Y-10814333D02*
X23211667Y-10795286D01*
X23211667Y-10795286D02*
X23211667Y-10785762D01*
X23211667Y-10785762D02*
X23221191Y-10766714D01*
X23221191Y-10766714D02*
X23240239Y-10757190D01*
X23240239Y-10757190D02*
X23268810Y-10757190D01*
X23268810Y-10757190D02*
X23287858Y-10766714D01*
X23411667Y-10890524D02*
X23392620Y-10881000D01*
X23392620Y-10881000D02*
X23383096Y-10861952D01*
X23383096Y-10861952D02*
X23383096Y-10690524D01*
X23516429Y-10890524D02*
X23497381Y-10881000D01*
X23497381Y-10881000D02*
X23487858Y-10871476D01*
X23487858Y-10871476D02*
X23478334Y-10852429D01*
X23478334Y-10852429D02*
X23478334Y-10795286D01*
X23478334Y-10795286D02*
X23487858Y-10776238D01*
X23487858Y-10776238D02*
X23497381Y-10766714D01*
X23497381Y-10766714D02*
X23516429Y-10757190D01*
X23516429Y-10757190D02*
X23545001Y-10757190D01*
X23545001Y-10757190D02*
X23564048Y-10766714D01*
X23564048Y-10766714D02*
X23573572Y-10776238D01*
X23573572Y-10776238D02*
X23583096Y-10795286D01*
X23583096Y-10795286D02*
X23583096Y-10852429D01*
X23583096Y-10852429D02*
X23573572Y-10871476D01*
X23573572Y-10871476D02*
X23564048Y-10881000D01*
X23564048Y-10881000D02*
X23545001Y-10890524D01*
X23545001Y-10890524D02*
X23516429Y-10890524D01*
X23640239Y-10757190D02*
X23716429Y-10757190D01*
X23668810Y-10690524D02*
X23668810Y-10861952D01*
X23668810Y-10861952D02*
X23678334Y-10881000D01*
X23678334Y-10881000D02*
X23697381Y-10890524D01*
X23697381Y-10890524D02*
X23716429Y-10890524D01*
X23773572Y-10881000D02*
X23792620Y-10890524D01*
X23792620Y-10890524D02*
X23830715Y-10890524D01*
X23830715Y-10890524D02*
X23849762Y-10881000D01*
X23849762Y-10881000D02*
X23859286Y-10861952D01*
X23859286Y-10861952D02*
X23859286Y-10852429D01*
X23859286Y-10852429D02*
X23849762Y-10833381D01*
X23849762Y-10833381D02*
X23830715Y-10823857D01*
X23830715Y-10823857D02*
X23802143Y-10823857D01*
X23802143Y-10823857D02*
X23783096Y-10814333D01*
X23783096Y-10814333D02*
X23773572Y-10795286D01*
X23773572Y-10795286D02*
X23773572Y-10785762D01*
X23773572Y-10785762D02*
X23783096Y-10766714D01*
X23783096Y-10766714D02*
X23802143Y-10757190D01*
X23802143Y-10757190D02*
X23830715Y-10757190D01*
X23830715Y-10757190D02*
X23849762Y-10766714D01*
X23925953Y-10966714D02*
X23935477Y-10957190D01*
X23935477Y-10957190D02*
X23954524Y-10928619D01*
X23954524Y-10928619D02*
X23964048Y-10909571D01*
X23964048Y-10909571D02*
X23973572Y-10881000D01*
X23973572Y-10881000D02*
X23983096Y-10833381D01*
X23983096Y-10833381D02*
X23983096Y-10795286D01*
X23983096Y-10795286D02*
X23973572Y-10747667D01*
X23973572Y-10747667D02*
X23964048Y-10719095D01*
X23964048Y-10719095D02*
X23954524Y-10700048D01*
X23954524Y-10700048D02*
X23935477Y-10671476D01*
X23935477Y-10671476D02*
X23925953Y-10661952D01*
D10*
X17530356Y-11097356D02*
X17530356Y-11026644D01*
X17459644Y-11026644D01*
X17459644Y-11097356D01*
X17530356Y-11097356D01*
D11*
X17897381Y-11154524D02*
X17783095Y-11154524D01*
X17840238Y-11154524D02*
X17840238Y-10954524D01*
X17840238Y-10954524D02*
X17821190Y-10983095D01*
X17821190Y-10983095D02*
X17802143Y-11002143D01*
X17802143Y-11002143D02*
X17783095Y-11011667D01*
X17983095Y-11135476D02*
X17992619Y-11145000D01*
X17992619Y-11145000D02*
X17983095Y-11154524D01*
X17983095Y-11154524D02*
X17973571Y-11145000D01*
X17973571Y-11145000D02*
X17983095Y-11135476D01*
X17983095Y-11135476D02*
X17983095Y-11154524D01*
X18116429Y-10954524D02*
X18135476Y-10954524D01*
X18135476Y-10954524D02*
X18154524Y-10964048D01*
X18154524Y-10964048D02*
X18164048Y-10973571D01*
X18164048Y-10973571D02*
X18173571Y-10992619D01*
X18173571Y-10992619D02*
X18183095Y-11030714D01*
X18183095Y-11030714D02*
X18183095Y-11078333D01*
X18183095Y-11078333D02*
X18173571Y-11116429D01*
X18173571Y-11116429D02*
X18164048Y-11135476D01*
X18164048Y-11135476D02*
X18154524Y-11145000D01*
X18154524Y-11145000D02*
X18135476Y-11154524D01*
X18135476Y-11154524D02*
X18116429Y-11154524D01*
X18116429Y-11154524D02*
X18097381Y-11145000D01*
X18097381Y-11145000D02*
X18087857Y-11135476D01*
X18087857Y-11135476D02*
X18078333Y-11116429D01*
X18078333Y-11116429D02*
X18068810Y-11078333D01*
X18068810Y-11078333D02*
X18068810Y-11030714D01*
X18068810Y-11030714D02*
X18078333Y-10992619D01*
X18078333Y-10992619D02*
X18087857Y-10973571D01*
X18087857Y-10973571D02*
X18097381Y-10964048D01*
X18097381Y-10964048D02*
X18116429Y-10954524D01*
X18306905Y-10954524D02*
X18325952Y-10954524D01*
X18325952Y-10954524D02*
X18345000Y-10964048D01*
X18345000Y-10964048D02*
X18354524Y-10973571D01*
X18354524Y-10973571D02*
X18364048Y-10992619D01*
X18364048Y-10992619D02*
X18373571Y-11030714D01*
X18373571Y-11030714D02*
X18373571Y-11078333D01*
X18373571Y-11078333D02*
X18364048Y-11116429D01*
X18364048Y-11116429D02*
X18354524Y-11135476D01*
X18354524Y-11135476D02*
X18345000Y-11145000D01*
X18345000Y-11145000D02*
X18325952Y-11154524D01*
X18325952Y-11154524D02*
X18306905Y-11154524D01*
X18306905Y-11154524D02*
X18287857Y-11145000D01*
X18287857Y-11145000D02*
X18278333Y-11135476D01*
X18278333Y-11135476D02*
X18268810Y-11116429D01*
X18268810Y-11116429D02*
X18259286Y-11078333D01*
X18259286Y-11078333D02*
X18259286Y-11030714D01*
X18259286Y-11030714D02*
X18268810Y-10992619D01*
X18268810Y-10992619D02*
X18278333Y-10973571D01*
X18278333Y-10973571D02*
X18287857Y-10964048D01*
X18287857Y-10964048D02*
X18306905Y-10954524D01*
X18497381Y-10954524D02*
X18516429Y-10954524D01*
X18516429Y-10954524D02*
X18535476Y-10964048D01*
X18535476Y-10964048D02*
X18545000Y-10973571D01*
X18545000Y-10973571D02*
X18554524Y-10992619D01*
X18554524Y-10992619D02*
X18564048Y-11030714D01*
X18564048Y-11030714D02*
X18564048Y-11078333D01*
X18564048Y-11078333D02*
X18554524Y-11116429D01*
X18554524Y-11116429D02*
X18545000Y-11135476D01*
X18545000Y-11135476D02*
X18535476Y-11145000D01*
X18535476Y-11145000D02*
X18516429Y-11154524D01*
X18516429Y-11154524D02*
X18497381Y-11154524D01*
X18497381Y-11154524D02*
X18478333Y-11145000D01*
X18478333Y-11145000D02*
X18468810Y-11135476D01*
X18468810Y-11135476D02*
X18459286Y-11116429D01*
X18459286Y-11116429D02*
X18449762Y-11078333D01*
X18449762Y-11078333D02*
X18449762Y-11030714D01*
X18449762Y-11030714D02*
X18459286Y-10992619D01*
X18459286Y-10992619D02*
X18468810Y-10973571D01*
X18468810Y-10973571D02*
X18478333Y-10964048D01*
X18478333Y-10964048D02*
X18497381Y-10954524D01*
X18649762Y-11154524D02*
X18649762Y-11021190D01*
X18649762Y-11040238D02*
X18659286Y-11030714D01*
X18659286Y-11030714D02*
X18678333Y-11021190D01*
X18678333Y-11021190D02*
X18706905Y-11021190D01*
X18706905Y-11021190D02*
X18725952Y-11030714D01*
X18725952Y-11030714D02*
X18735476Y-11049762D01*
X18735476Y-11049762D02*
X18735476Y-11154524D01*
X18735476Y-11049762D02*
X18745000Y-11030714D01*
X18745000Y-11030714D02*
X18764048Y-11021190D01*
X18764048Y-11021190D02*
X18792619Y-11021190D01*
X18792619Y-11021190D02*
X18811667Y-11030714D01*
X18811667Y-11030714D02*
X18821191Y-11049762D01*
X18821191Y-11049762D02*
X18821191Y-11154524D01*
X18916429Y-11154524D02*
X18916429Y-11021190D01*
X18916429Y-11040238D02*
X18925952Y-11030714D01*
X18925952Y-11030714D02*
X18945000Y-11021190D01*
X18945000Y-11021190D02*
X18973572Y-11021190D01*
X18973572Y-11021190D02*
X18992619Y-11030714D01*
X18992619Y-11030714D02*
X19002143Y-11049762D01*
X19002143Y-11049762D02*
X19002143Y-11154524D01*
X19002143Y-11049762D02*
X19011667Y-11030714D01*
X19011667Y-11030714D02*
X19030714Y-11021190D01*
X19030714Y-11021190D02*
X19059286Y-11021190D01*
X19059286Y-11021190D02*
X19078333Y-11030714D01*
X19078333Y-11030714D02*
X19087857Y-11049762D01*
X19087857Y-11049762D02*
X19087857Y-11154524D01*
X19478333Y-10945000D02*
X19306905Y-11202143D01*
X19735476Y-10954524D02*
X19754524Y-10954524D01*
X19754524Y-10954524D02*
X19773572Y-10964048D01*
X19773572Y-10964048D02*
X19783095Y-10973571D01*
X19783095Y-10973571D02*
X19792619Y-10992619D01*
X19792619Y-10992619D02*
X19802143Y-11030714D01*
X19802143Y-11030714D02*
X19802143Y-11078333D01*
X19802143Y-11078333D02*
X19792619Y-11116429D01*
X19792619Y-11116429D02*
X19783095Y-11135476D01*
X19783095Y-11135476D02*
X19773572Y-11145000D01*
X19773572Y-11145000D02*
X19754524Y-11154524D01*
X19754524Y-11154524D02*
X19735476Y-11154524D01*
X19735476Y-11154524D02*
X19716429Y-11145000D01*
X19716429Y-11145000D02*
X19706905Y-11135476D01*
X19706905Y-11135476D02*
X19697381Y-11116429D01*
X19697381Y-11116429D02*
X19687857Y-11078333D01*
X19687857Y-11078333D02*
X19687857Y-11030714D01*
X19687857Y-11030714D02*
X19697381Y-10992619D01*
X19697381Y-10992619D02*
X19706905Y-10973571D01*
X19706905Y-10973571D02*
X19716429Y-10964048D01*
X19716429Y-10964048D02*
X19735476Y-10954524D01*
X19887857Y-11135476D02*
X19897381Y-11145000D01*
X19897381Y-11145000D02*
X19887857Y-11154524D01*
X19887857Y-11154524D02*
X19878334Y-11145000D01*
X19878334Y-11145000D02*
X19887857Y-11135476D01*
X19887857Y-11135476D02*
X19887857Y-11154524D01*
X20021191Y-10954524D02*
X20040238Y-10954524D01*
X20040238Y-10954524D02*
X20059286Y-10964048D01*
X20059286Y-10964048D02*
X20068810Y-10973571D01*
X20068810Y-10973571D02*
X20078334Y-10992619D01*
X20078334Y-10992619D02*
X20087857Y-11030714D01*
X20087857Y-11030714D02*
X20087857Y-11078333D01*
X20087857Y-11078333D02*
X20078334Y-11116429D01*
X20078334Y-11116429D02*
X20068810Y-11135476D01*
X20068810Y-11135476D02*
X20059286Y-11145000D01*
X20059286Y-11145000D02*
X20040238Y-11154524D01*
X20040238Y-11154524D02*
X20021191Y-11154524D01*
X20021191Y-11154524D02*
X20002143Y-11145000D01*
X20002143Y-11145000D02*
X19992619Y-11135476D01*
X19992619Y-11135476D02*
X19983095Y-11116429D01*
X19983095Y-11116429D02*
X19973572Y-11078333D01*
X19973572Y-11078333D02*
X19973572Y-11030714D01*
X19973572Y-11030714D02*
X19983095Y-10992619D01*
X19983095Y-10992619D02*
X19992619Y-10973571D01*
X19992619Y-10973571D02*
X20002143Y-10964048D01*
X20002143Y-10964048D02*
X20021191Y-10954524D01*
X20154524Y-10954524D02*
X20278334Y-10954524D01*
X20278334Y-10954524D02*
X20211667Y-11030714D01*
X20211667Y-11030714D02*
X20240238Y-11030714D01*
X20240238Y-11030714D02*
X20259286Y-11040238D01*
X20259286Y-11040238D02*
X20268810Y-11049762D01*
X20268810Y-11049762D02*
X20278334Y-11068810D01*
X20278334Y-11068810D02*
X20278334Y-11116429D01*
X20278334Y-11116429D02*
X20268810Y-11135476D01*
X20268810Y-11135476D02*
X20259286Y-11145000D01*
X20259286Y-11145000D02*
X20240238Y-11154524D01*
X20240238Y-11154524D02*
X20183095Y-11154524D01*
X20183095Y-11154524D02*
X20164048Y-11145000D01*
X20164048Y-11145000D02*
X20154524Y-11135476D01*
X20373572Y-11154524D02*
X20411667Y-11154524D01*
X20411667Y-11154524D02*
X20430715Y-11145000D01*
X20430715Y-11145000D02*
X20440238Y-11135476D01*
X20440238Y-11135476D02*
X20459286Y-11106905D01*
X20459286Y-11106905D02*
X20468810Y-11068810D01*
X20468810Y-11068810D02*
X20468810Y-10992619D01*
X20468810Y-10992619D02*
X20459286Y-10973571D01*
X20459286Y-10973571D02*
X20449762Y-10964048D01*
X20449762Y-10964048D02*
X20430715Y-10954524D01*
X20430715Y-10954524D02*
X20392619Y-10954524D01*
X20392619Y-10954524D02*
X20373572Y-10964048D01*
X20373572Y-10964048D02*
X20364048Y-10973571D01*
X20364048Y-10973571D02*
X20354524Y-10992619D01*
X20354524Y-10992619D02*
X20354524Y-11040238D01*
X20354524Y-11040238D02*
X20364048Y-11059286D01*
X20364048Y-11059286D02*
X20373572Y-11068810D01*
X20373572Y-11068810D02*
X20392619Y-11078333D01*
X20392619Y-11078333D02*
X20430715Y-11078333D01*
X20430715Y-11078333D02*
X20449762Y-11068810D01*
X20449762Y-11068810D02*
X20459286Y-11059286D01*
X20459286Y-11059286D02*
X20468810Y-11040238D01*
X20640238Y-11021190D02*
X20640238Y-11154524D01*
X20592619Y-10945000D02*
X20545000Y-11087857D01*
X20545000Y-11087857D02*
X20668810Y-11087857D01*
X20735476Y-10954524D02*
X20735476Y-10992619D01*
X20811667Y-10954524D02*
X20811667Y-10992619D01*
X21106905Y-11230714D02*
X21097381Y-11221190D01*
X21097381Y-11221190D02*
X21078334Y-11192619D01*
X21078334Y-11192619D02*
X21068810Y-11173571D01*
X21068810Y-11173571D02*
X21059286Y-11145000D01*
X21059286Y-11145000D02*
X21049762Y-11097381D01*
X21049762Y-11097381D02*
X21049762Y-11059286D01*
X21049762Y-11059286D02*
X21059286Y-11011667D01*
X21059286Y-11011667D02*
X21068810Y-10983095D01*
X21068810Y-10983095D02*
X21078334Y-10964048D01*
X21078334Y-10964048D02*
X21097381Y-10935476D01*
X21097381Y-10935476D02*
X21106905Y-10925952D01*
X21164048Y-10954524D02*
X21287857Y-10954524D01*
X21287857Y-10954524D02*
X21221191Y-11030714D01*
X21221191Y-11030714D02*
X21249762Y-11030714D01*
X21249762Y-11030714D02*
X21268810Y-11040238D01*
X21268810Y-11040238D02*
X21278334Y-11049762D01*
X21278334Y-11049762D02*
X21287857Y-11068810D01*
X21287857Y-11068810D02*
X21287857Y-11116429D01*
X21287857Y-11116429D02*
X21278334Y-11135476D01*
X21278334Y-11135476D02*
X21268810Y-11145000D01*
X21268810Y-11145000D02*
X21249762Y-11154524D01*
X21249762Y-11154524D02*
X21192619Y-11154524D01*
X21192619Y-11154524D02*
X21173572Y-11145000D01*
X21173572Y-11145000D02*
X21164048Y-11135476D01*
X21383096Y-11154524D02*
X21421191Y-11154524D01*
X21421191Y-11154524D02*
X21440238Y-11145000D01*
X21440238Y-11145000D02*
X21449762Y-11135476D01*
X21449762Y-11135476D02*
X21468810Y-11106905D01*
X21468810Y-11106905D02*
X21478334Y-11068810D01*
X21478334Y-11068810D02*
X21478334Y-10992619D01*
X21478334Y-10992619D02*
X21468810Y-10973571D01*
X21468810Y-10973571D02*
X21459286Y-10964048D01*
X21459286Y-10964048D02*
X21440238Y-10954524D01*
X21440238Y-10954524D02*
X21402143Y-10954524D01*
X21402143Y-10954524D02*
X21383096Y-10964048D01*
X21383096Y-10964048D02*
X21373572Y-10973571D01*
X21373572Y-10973571D02*
X21364048Y-10992619D01*
X21364048Y-10992619D02*
X21364048Y-11040238D01*
X21364048Y-11040238D02*
X21373572Y-11059286D01*
X21373572Y-11059286D02*
X21383096Y-11068810D01*
X21383096Y-11068810D02*
X21402143Y-11078333D01*
X21402143Y-11078333D02*
X21440238Y-11078333D01*
X21440238Y-11078333D02*
X21459286Y-11068810D01*
X21459286Y-11068810D02*
X21468810Y-11059286D01*
X21468810Y-11059286D02*
X21478334Y-11040238D01*
X21716429Y-11154524D02*
X21716429Y-10954524D01*
X21802143Y-11154524D02*
X21802143Y-11049762D01*
X21802143Y-11049762D02*
X21792619Y-11030714D01*
X21792619Y-11030714D02*
X21773572Y-11021190D01*
X21773572Y-11021190D02*
X21745000Y-11021190D01*
X21745000Y-11021190D02*
X21725953Y-11030714D01*
X21725953Y-11030714D02*
X21716429Y-11040238D01*
X21925953Y-11154524D02*
X21906905Y-11145000D01*
X21906905Y-11145000D02*
X21897381Y-11135476D01*
X21897381Y-11135476D02*
X21887858Y-11116429D01*
X21887858Y-11116429D02*
X21887858Y-11059286D01*
X21887858Y-11059286D02*
X21897381Y-11040238D01*
X21897381Y-11040238D02*
X21906905Y-11030714D01*
X21906905Y-11030714D02*
X21925953Y-11021190D01*
X21925953Y-11021190D02*
X21954524Y-11021190D01*
X21954524Y-11021190D02*
X21973572Y-11030714D01*
X21973572Y-11030714D02*
X21983096Y-11040238D01*
X21983096Y-11040238D02*
X21992619Y-11059286D01*
X21992619Y-11059286D02*
X21992619Y-11116429D01*
X21992619Y-11116429D02*
X21983096Y-11135476D01*
X21983096Y-11135476D02*
X21973572Y-11145000D01*
X21973572Y-11145000D02*
X21954524Y-11154524D01*
X21954524Y-11154524D02*
X21925953Y-11154524D01*
X22106905Y-11154524D02*
X22087858Y-11145000D01*
X22087858Y-11145000D02*
X22078334Y-11125952D01*
X22078334Y-11125952D02*
X22078334Y-10954524D01*
X22259286Y-11145000D02*
X22240239Y-11154524D01*
X22240239Y-11154524D02*
X22202143Y-11154524D01*
X22202143Y-11154524D02*
X22183096Y-11145000D01*
X22183096Y-11145000D02*
X22173572Y-11125952D01*
X22173572Y-11125952D02*
X22173572Y-11049762D01*
X22173572Y-11049762D02*
X22183096Y-11030714D01*
X22183096Y-11030714D02*
X22202143Y-11021190D01*
X22202143Y-11021190D02*
X22240239Y-11021190D01*
X22240239Y-11021190D02*
X22259286Y-11030714D01*
X22259286Y-11030714D02*
X22268810Y-11049762D01*
X22268810Y-11049762D02*
X22268810Y-11068810D01*
X22268810Y-11068810D02*
X22173572Y-11087857D01*
X22345000Y-11145000D02*
X22364048Y-11154524D01*
X22364048Y-11154524D02*
X22402143Y-11154524D01*
X22402143Y-11154524D02*
X22421191Y-11145000D01*
X22421191Y-11145000D02*
X22430715Y-11125952D01*
X22430715Y-11125952D02*
X22430715Y-11116429D01*
X22430715Y-11116429D02*
X22421191Y-11097381D01*
X22421191Y-11097381D02*
X22402143Y-11087857D01*
X22402143Y-11087857D02*
X22373572Y-11087857D01*
X22373572Y-11087857D02*
X22354524Y-11078333D01*
X22354524Y-11078333D02*
X22345000Y-11059286D01*
X22345000Y-11059286D02*
X22345000Y-11049762D01*
X22345000Y-11049762D02*
X22354524Y-11030714D01*
X22354524Y-11030714D02*
X22373572Y-11021190D01*
X22373572Y-11021190D02*
X22402143Y-11021190D01*
X22402143Y-11021190D02*
X22421191Y-11030714D01*
X22497381Y-11230714D02*
X22506905Y-11221190D01*
X22506905Y-11221190D02*
X22525953Y-11192619D01*
X22525953Y-11192619D02*
X22535477Y-11173571D01*
X22535477Y-11173571D02*
X22545000Y-11145000D01*
X22545000Y-11145000D02*
X22554524Y-11097381D01*
X22554524Y-11097381D02*
X22554524Y-11059286D01*
X22554524Y-11059286D02*
X22545000Y-11011667D01*
X22545000Y-11011667D02*
X22535477Y-10983095D01*
X22535477Y-10983095D02*
X22525953Y-10964048D01*
X22525953Y-10964048D02*
X22506905Y-10935476D01*
X22506905Y-10935476D02*
X22497381Y-10925952D01*
M02*
