M48
; DRILL file {KiCad 7.0.1} date Wed Jul  3 15:16:50 2024
; FORMAT={-:-/ absolute / metric / decimal}
; #@! TF.CreationDate,2024-07-03T15:16:50+02:00
; #@! TF.GenerationSoftware,Kicad,Pcbnew,7.0.1
; #@! TF.FileFunction,Plated,1,2,PTH
FMAT,2
METRIC
; #@! TA.AperFunction,Plated,PTH,ViaDrill
T1C0.300
; #@! TA.AperFunction,Plated,PTH,ComponentDrill
T2C0.500
; #@! TA.AperFunction,Plated,PTH,ComponentDrill
T3C0.550
; #@! TA.AperFunction,Plated,PTH,ComponentDrill
T4C1.000
%
G90
G05
T1
X176.53Y-86.868
X176.75Y-91.25
X177.75Y-48.75
X178.765Y-69.596
X178.816Y-91.186
X179.324Y-69.088
X179.324Y-72.39
X179.7Y-88.9
X179.832Y-85.09
X180.1Y-80.9
X180.213Y-59.944
X180.25Y-53.0
X180.34Y-86.868
X180.5Y-78.0
X180.594Y-63.881
X180.721Y-61.468
X181.356Y-77.978
X181.5Y-95.75
X181.61Y-87.884
X181.737Y-64.262
X181.737Y-66.04
X182.0Y-58.0
X182.118Y-76.962
X182.2Y-72.9
X182.372Y-74.93
X182.499Y-63.373
X182.525Y-84.937
X182.626Y-87.376
X183.007Y-91.059
X183.25Y-70.75
X183.261Y-65.405
X183.388Y-78.232
X183.75Y-49.25
X184.15Y-82.042
X184.15Y-92.71
X184.201Y-91.059
X184.404Y-77.978
X184.404Y-85.852
X184.404Y-87.63
X184.5Y-73.25
X184.785Y-65.659
X184.912Y-51.308
X185.0Y-53.25
X185.166Y-91.059
X185.674Y-65.659
X186.0Y-63.4
X186.25Y-73.75
X186.436Y-65.786
X186.436Y-85.598
X186.5Y-70.75
X186.563Y-91.694
X186.69Y-66.548
X187.071Y-92.964
X187.198Y-62.23
X187.198Y-85.852
X187.706Y-85.09
X187.8Y-81.3
X187.96Y-68.072
X188.1Y-49.8
X188.341Y-75.946
X188.455Y-57.15
X188.468Y-67.31
X188.468Y-82.804
X188.468Y-87.884
X188.595Y-80.01
X188.722Y-68.072
X188.722Y-81.28
X189.255Y-87.147
X189.484Y-69.088
X189.5Y-63.25
X189.6Y-66.9
X189.738Y-72.136
X190.2Y-49.4
X190.246Y-67.564
X190.373Y-68.707
X190.5Y-55.3
X190.627Y-66.167
X190.754Y-85.09
X190.881Y-68.072
X191.0Y-63.0
X191.1Y-57.2
X191.262Y-87.63
X191.516Y-82.042
X191.643Y-67.818
X191.872Y-78.588
X191.897Y-91.44
X192.278Y-61.341
X192.583Y-77.826
X192.7Y-66.9
X192.786Y-59.563
X192.786Y-87.63
X192.913Y-67.818
X193.0Y-63.3
X193.25Y-53.25
X193.294Y-74.041
X193.3Y-57.1
X193.548Y-80.137
X193.548Y-81.534
X193.675Y-85.979
X193.75Y-72.5
X194.056Y-74.295
X194.25Y-92.75
X194.818Y-74.676
X194.818Y-75.565
X194.945Y-77.4
X195.0Y-88.1
X195.199Y-63.627
X195.5Y-57.75
X195.5Y-95.5
X195.58Y-73.787
X195.58Y-79.756
X195.58Y-91.44
X195.707Y-66.167
X195.961Y-63.119
X196.342Y-92.964
X196.5Y-48.5
X196.723Y-75.438
X196.85Y-87.63
X196.977Y-79.629
X197.104Y-89.916
X197.485Y-74.676
X197.5Y-53.0
X197.866Y-82.804
X197.866Y-87.63
X198.75Y-49.0
X198.882Y-66.929
X199.263Y-66.167
X199.39Y-87.122
X199.644Y-65.151
X199.771Y-72.644
X200.152Y-82.55
X201.3Y-91.6
X201.93Y-52.197
X202.534Y-64.77
T4
X177.8Y-50.8
X177.8Y-53.34
X177.8Y-55.88
X177.8Y-58.42
X177.8Y-60.96
X177.8Y-63.5
X177.8Y-66.04
X177.8Y-68.58
X177.8Y-71.12
X177.8Y-73.66
X177.8Y-76.2
X177.8Y-78.74
X177.8Y-81.28
X177.8Y-83.82
X177.8Y-86.36
X177.8Y-88.9
X177.8Y-93.98
X180.34Y-93.98
X182.88Y-93.98
X185.42Y-93.98
X187.96Y-93.98
X190.5Y-93.98
X193.04Y-93.98
X200.66Y-50.8
X200.66Y-53.34
X200.66Y-55.88
X200.66Y-58.42
X200.66Y-60.96
X200.66Y-63.5
X200.66Y-66.04
X200.66Y-68.58
X200.66Y-71.12
X200.66Y-73.66
X200.66Y-76.2
X200.66Y-78.74
X200.66Y-81.28
X200.66Y-83.82
X200.66Y-86.36
X200.66Y-88.9
T2
X185.73Y-49.855G85X185.73Y-49.205
G05
X192.73Y-49.855G85X192.73Y-49.205
G05
T3
X186.88Y-52.23G85X186.58Y-52.23
G05
X191.88Y-52.23G85X191.58Y-52.23
G05
T0
M30
