G04 #@! TF.GenerationSoftware,KiCad,Pcbnew,7.0.1*
G04 #@! TF.CreationDate,2024-07-03T15:15:49+02:00*
G04 #@! TF.ProjectId,iCE40DevBoard,69434534-3044-4657-9642-6f6172642e6b,rev?*
G04 #@! TF.SameCoordinates,Original*
G04 #@! TF.FileFunction,Soldermask,Bot*
G04 #@! TF.FilePolarity,Negative*
%FSLAX46Y46*%
G04 Gerber Fmt 4.6, Leading zero omitted, Abs format (unit mm)*
G04 Created by KiCad (PCBNEW 7.0.1) date 2024-07-03 15:15:49*
%MOMM*%
%LPD*%
G01*
G04 APERTURE LIST*
%ADD10C,0.010000*%
%ADD11O,1.700000X1.700000*%
%ADD12R,1.700000X1.700000*%
%ADD13O,1.454000X1.154000*%
%ADD14C,1.000000*%
G04 APERTURE END LIST*
D10*
X192759000Y-48656000D02*
X192787000Y-48658000D01*
X192815000Y-48662000D01*
X192843000Y-48667000D01*
X192871000Y-48674000D01*
X192898000Y-48682000D01*
X192925000Y-48691000D01*
X192952000Y-48702000D01*
X192977000Y-48714000D01*
X193002000Y-48728000D01*
X193027000Y-48743000D01*
X193050000Y-48759000D01*
X193073000Y-48776000D01*
X193095000Y-48795000D01*
X193115000Y-48815000D01*
X193135000Y-48835000D01*
X193154000Y-48857000D01*
X193171000Y-48880000D01*
X193187000Y-48903000D01*
X193202000Y-48927000D01*
X193216000Y-48953000D01*
X193228000Y-48978000D01*
X193239000Y-49005000D01*
X193248000Y-49032000D01*
X193256000Y-49059000D01*
X193263000Y-49087000D01*
X193268000Y-49115000D01*
X193272000Y-49143000D01*
X193274000Y-49171000D01*
X193275000Y-49200000D01*
X193275000Y-49860000D01*
X193274000Y-49889000D01*
X193272000Y-49917000D01*
X193268000Y-49945000D01*
X193263000Y-49973000D01*
X193256000Y-50001000D01*
X193248000Y-50028000D01*
X193239000Y-50055000D01*
X193228000Y-50082000D01*
X193216000Y-50107000D01*
X193202000Y-50133000D01*
X193187000Y-50157000D01*
X193171000Y-50180000D01*
X193154000Y-50203000D01*
X193135000Y-50225000D01*
X193115000Y-50245000D01*
X193095000Y-50265000D01*
X193073000Y-50284000D01*
X193050000Y-50301000D01*
X193027000Y-50317000D01*
X193002000Y-50332000D01*
X192977000Y-50346000D01*
X192952000Y-50358000D01*
X192925000Y-50369000D01*
X192898000Y-50378000D01*
X192871000Y-50386000D01*
X192843000Y-50393000D01*
X192815000Y-50398000D01*
X192787000Y-50402000D01*
X192759000Y-50404000D01*
X192730000Y-50405000D01*
X191430000Y-50405000D01*
X191430000Y-48655000D01*
X192730000Y-48655000D01*
X192759000Y-48656000D01*
G36*
X192759000Y-48656000D02*
G01*
X192787000Y-48658000D01*
X192815000Y-48662000D01*
X192843000Y-48667000D01*
X192871000Y-48674000D01*
X192898000Y-48682000D01*
X192925000Y-48691000D01*
X192952000Y-48702000D01*
X192977000Y-48714000D01*
X193002000Y-48728000D01*
X193027000Y-48743000D01*
X193050000Y-48759000D01*
X193073000Y-48776000D01*
X193095000Y-48795000D01*
X193115000Y-48815000D01*
X193135000Y-48835000D01*
X193154000Y-48857000D01*
X193171000Y-48880000D01*
X193187000Y-48903000D01*
X193202000Y-48927000D01*
X193216000Y-48953000D01*
X193228000Y-48978000D01*
X193239000Y-49005000D01*
X193248000Y-49032000D01*
X193256000Y-49059000D01*
X193263000Y-49087000D01*
X193268000Y-49115000D01*
X193272000Y-49143000D01*
X193274000Y-49171000D01*
X193275000Y-49200000D01*
X193275000Y-49860000D01*
X193274000Y-49889000D01*
X193272000Y-49917000D01*
X193268000Y-49945000D01*
X193263000Y-49973000D01*
X193256000Y-50001000D01*
X193248000Y-50028000D01*
X193239000Y-50055000D01*
X193228000Y-50082000D01*
X193216000Y-50107000D01*
X193202000Y-50133000D01*
X193187000Y-50157000D01*
X193171000Y-50180000D01*
X193154000Y-50203000D01*
X193135000Y-50225000D01*
X193115000Y-50245000D01*
X193095000Y-50265000D01*
X193073000Y-50284000D01*
X193050000Y-50301000D01*
X193027000Y-50317000D01*
X193002000Y-50332000D01*
X192977000Y-50346000D01*
X192952000Y-50358000D01*
X192925000Y-50369000D01*
X192898000Y-50378000D01*
X192871000Y-50386000D01*
X192843000Y-50393000D01*
X192815000Y-50398000D01*
X192787000Y-50402000D01*
X192759000Y-50404000D01*
X192730000Y-50405000D01*
X191430000Y-50405000D01*
X191430000Y-48655000D01*
X192730000Y-48655000D01*
X192759000Y-48656000D01*
G37*
X187030000Y-50405000D02*
X185730000Y-50405000D01*
X185701000Y-50404000D01*
X185673000Y-50402000D01*
X185645000Y-50398000D01*
X185617000Y-50393000D01*
X185589000Y-50386000D01*
X185562000Y-50378000D01*
X185535000Y-50369000D01*
X185508000Y-50358000D01*
X185483000Y-50346000D01*
X185458000Y-50332000D01*
X185433000Y-50317000D01*
X185410000Y-50301000D01*
X185387000Y-50284000D01*
X185365000Y-50265000D01*
X185345000Y-50245000D01*
X185325000Y-50225000D01*
X185306000Y-50203000D01*
X185289000Y-50180000D01*
X185273000Y-50157000D01*
X185258000Y-50133000D01*
X185244000Y-50107000D01*
X185232000Y-50082000D01*
X185221000Y-50055000D01*
X185212000Y-50028000D01*
X185204000Y-50001000D01*
X185197000Y-49973000D01*
X185192000Y-49945000D01*
X185188000Y-49917000D01*
X185186000Y-49889000D01*
X185185000Y-49860000D01*
X185185000Y-49200000D01*
X185186000Y-49171000D01*
X185188000Y-49143000D01*
X185192000Y-49115000D01*
X185197000Y-49087000D01*
X185204000Y-49059000D01*
X185212000Y-49032000D01*
X185221000Y-49005000D01*
X185232000Y-48978000D01*
X185244000Y-48953000D01*
X185258000Y-48927000D01*
X185273000Y-48903000D01*
X185289000Y-48880000D01*
X185306000Y-48857000D01*
X185325000Y-48835000D01*
X185345000Y-48815000D01*
X185365000Y-48795000D01*
X185387000Y-48776000D01*
X185410000Y-48759000D01*
X185433000Y-48743000D01*
X185458000Y-48728000D01*
X185483000Y-48714000D01*
X185508000Y-48702000D01*
X185535000Y-48691000D01*
X185562000Y-48682000D01*
X185589000Y-48674000D01*
X185617000Y-48667000D01*
X185645000Y-48662000D01*
X185673000Y-48658000D01*
X185701000Y-48656000D01*
X185730000Y-48655000D01*
X187030000Y-48655000D01*
X187030000Y-50405000D01*
G36*
X187030000Y-50405000D02*
G01*
X185730000Y-50405000D01*
X185701000Y-50404000D01*
X185673000Y-50402000D01*
X185645000Y-50398000D01*
X185617000Y-50393000D01*
X185589000Y-50386000D01*
X185562000Y-50378000D01*
X185535000Y-50369000D01*
X185508000Y-50358000D01*
X185483000Y-50346000D01*
X185458000Y-50332000D01*
X185433000Y-50317000D01*
X185410000Y-50301000D01*
X185387000Y-50284000D01*
X185365000Y-50265000D01*
X185345000Y-50245000D01*
X185325000Y-50225000D01*
X185306000Y-50203000D01*
X185289000Y-50180000D01*
X185273000Y-50157000D01*
X185258000Y-50133000D01*
X185244000Y-50107000D01*
X185232000Y-50082000D01*
X185221000Y-50055000D01*
X185212000Y-50028000D01*
X185204000Y-50001000D01*
X185197000Y-49973000D01*
X185192000Y-49945000D01*
X185188000Y-49917000D01*
X185186000Y-49889000D01*
X185185000Y-49860000D01*
X185185000Y-49200000D01*
X185186000Y-49171000D01*
X185188000Y-49143000D01*
X185192000Y-49115000D01*
X185197000Y-49087000D01*
X185204000Y-49059000D01*
X185212000Y-49032000D01*
X185221000Y-49005000D01*
X185232000Y-48978000D01*
X185244000Y-48953000D01*
X185258000Y-48927000D01*
X185273000Y-48903000D01*
X185289000Y-48880000D01*
X185306000Y-48857000D01*
X185325000Y-48835000D01*
X185345000Y-48815000D01*
X185365000Y-48795000D01*
X185387000Y-48776000D01*
X185410000Y-48759000D01*
X185433000Y-48743000D01*
X185458000Y-48728000D01*
X185483000Y-48714000D01*
X185508000Y-48702000D01*
X185535000Y-48691000D01*
X185562000Y-48682000D01*
X185589000Y-48674000D01*
X185617000Y-48667000D01*
X185645000Y-48662000D01*
X185673000Y-48658000D01*
X185701000Y-48656000D01*
X185730000Y-48655000D01*
X187030000Y-48655000D01*
X187030000Y-50405000D01*
G37*
D11*
X177800000Y-88900000D03*
X177800000Y-86360000D03*
X177800000Y-83820000D03*
X177800000Y-81280000D03*
X177800000Y-78740000D03*
X177800000Y-76200000D03*
X177800000Y-73660000D03*
X177800000Y-71120000D03*
X177800000Y-68580000D03*
X177800000Y-66040000D03*
X177800000Y-63500000D03*
X177800000Y-60960000D03*
X177800000Y-58420000D03*
X177800000Y-55880000D03*
X177800000Y-53340000D03*
D12*
X177800000Y-50800000D03*
D11*
X193040000Y-93980000D03*
X190500000Y-93980000D03*
X187960000Y-93980000D03*
X185420000Y-93980000D03*
X182880000Y-93980000D03*
X180340000Y-93980000D03*
D12*
X177800000Y-93980000D03*
D13*
X191730000Y-52230000D03*
X186730000Y-52230000D03*
D12*
X200660000Y-50800000D03*
D11*
X200660000Y-53340000D03*
X200660000Y-55880000D03*
X200660000Y-58420000D03*
X200660000Y-60960000D03*
X200660000Y-63500000D03*
X200660000Y-66040000D03*
X200660000Y-68580000D03*
X200660000Y-71120000D03*
X200660000Y-73660000D03*
X200660000Y-76200000D03*
X200660000Y-78740000D03*
X200660000Y-81280000D03*
X200660000Y-83820000D03*
X200660000Y-86360000D03*
X200660000Y-88900000D03*
D14*
X198374000Y-90932000D03*
X182118000Y-51308000D03*
X182372000Y-79248000D03*
X180086000Y-79248000D03*
X193040000Y-58166000D03*
X195326000Y-78232000D03*
X182372000Y-74422000D03*
X185420000Y-58166000D03*
X182372000Y-82550000D03*
X180086000Y-74422000D03*
X196088000Y-90932000D03*
X180086000Y-82550000D03*
X197612000Y-78232000D03*
M02*
