G04 #@! TF.GenerationSoftware,KiCad,Pcbnew,7.0.1*
G04 #@! TF.CreationDate,2024-07-03T15:15:49+02:00*
G04 #@! TF.ProjectId,iCE40DevBoard,69434534-3044-4657-9642-6f6172642e6b,rev?*
G04 #@! TF.SameCoordinates,Original*
G04 #@! TF.FileFunction,Copper,L1,Top*
G04 #@! TF.FilePolarity,Positive*
%FSLAX46Y46*%
G04 Gerber Fmt 4.6, Leading zero omitted, Abs format (unit mm)*
G04 Created by KiCad (PCBNEW 7.0.1) date 2024-07-03 15:15:49*
%MOMM*%
%LPD*%
G01*
G04 APERTURE LIST*
G04 Aperture macros list*
%AMRoundRect*
0 Rectangle with rounded corners*
0 $1 Rounding radius*
0 $2 $3 $4 $5 $6 $7 $8 $9 X,Y pos of 4 corners*
0 Add a 4 corners polygon primitive as box body*
4,1,4,$2,$3,$4,$5,$6,$7,$8,$9,$2,$3,0*
0 Add four circle primitives for the rounded corners*
1,1,$1+$1,$2,$3*
1,1,$1+$1,$4,$5*
1,1,$1+$1,$6,$7*
1,1,$1+$1,$8,$9*
0 Add four rect primitives between the rounded corners*
20,1,$1+$1,$2,$3,$4,$5,0*
20,1,$1+$1,$4,$5,$6,$7,0*
20,1,$1+$1,$6,$7,$8,$9,0*
20,1,$1+$1,$8,$9,$2,$3,0*%
G04 Aperture macros list end*
G04 #@! TA.AperFunction,ComponentPad*
%ADD10O,1.700000X1.700000*%
G04 #@! TD*
G04 #@! TA.AperFunction,ComponentPad*
%ADD11R,1.700000X1.700000*%
G04 #@! TD*
G04 #@! TA.AperFunction,SMDPad,CuDef*
%ADD12RoundRect,0.200000X-0.200000X-0.275000X0.200000X-0.275000X0.200000X0.275000X-0.200000X0.275000X0*%
G04 #@! TD*
G04 #@! TA.AperFunction,SMDPad,CuDef*
%ADD13RoundRect,0.218750X0.218750X0.256250X-0.218750X0.256250X-0.218750X-0.256250X0.218750X-0.256250X0*%
G04 #@! TD*
G04 #@! TA.AperFunction,SMDPad,CuDef*
%ADD14RoundRect,0.225000X-0.225000X-0.250000X0.225000X-0.250000X0.225000X0.250000X-0.225000X0.250000X0*%
G04 #@! TD*
G04 #@! TA.AperFunction,SMDPad,CuDef*
%ADD15RoundRect,0.243750X0.243750X0.456250X-0.243750X0.456250X-0.243750X-0.456250X0.243750X-0.456250X0*%
G04 #@! TD*
G04 #@! TA.AperFunction,SMDPad,CuDef*
%ADD16RoundRect,0.051250X0.153750X-0.733750X0.153750X0.733750X-0.153750X0.733750X-0.153750X-0.733750X0*%
G04 #@! TD*
G04 #@! TA.AperFunction,SMDPad,CuDef*
%ADD17R,1.500000X2.000000*%
G04 #@! TD*
G04 #@! TA.AperFunction,SMDPad,CuDef*
%ADD18R,3.800000X2.000000*%
G04 #@! TD*
G04 #@! TA.AperFunction,SMDPad,CuDef*
%ADD19RoundRect,0.051250X-0.153750X0.733750X-0.153750X-0.733750X0.153750X-0.733750X0.153750X0.733750X0*%
G04 #@! TD*
G04 #@! TA.AperFunction,SMDPad,CuDef*
%ADD20RoundRect,0.075000X-0.225000X0.910000X-0.225000X-0.910000X0.225000X-0.910000X0.225000X0.910000X0*%
G04 #@! TD*
G04 #@! TA.AperFunction,SMDPad,CuDef*
%ADD21R,0.400000X1.350000*%
G04 #@! TD*
G04 #@! TA.AperFunction,ComponentPad*
%ADD22O,1.250000X0.950000*%
G04 #@! TD*
G04 #@! TA.AperFunction,ComponentPad*
%ADD23O,0.775000X1.645000*%
G04 #@! TD*
G04 #@! TA.AperFunction,SMDPad,CuDef*
%ADD24R,1.500000X1.550000*%
G04 #@! TD*
G04 #@! TA.AperFunction,SMDPad,CuDef*
%ADD25RoundRect,0.200000X-0.275000X0.200000X-0.275000X-0.200000X0.275000X-0.200000X0.275000X0.200000X0*%
G04 #@! TD*
G04 #@! TA.AperFunction,SMDPad,CuDef*
%ADD26RoundRect,0.091000X-0.329000X-0.039000X0.329000X-0.039000X0.329000X0.039000X-0.329000X0.039000X0*%
G04 #@! TD*
G04 #@! TA.AperFunction,SMDPad,CuDef*
%ADD27RoundRect,0.091000X0.039000X-0.329000X0.039000X0.329000X-0.039000X0.329000X-0.039000X-0.329000X0*%
G04 #@! TD*
G04 #@! TA.AperFunction,SMDPad,CuDef*
%ADD28RoundRect,0.091000X0.329000X0.039000X-0.329000X0.039000X-0.329000X-0.039000X0.329000X-0.039000X0*%
G04 #@! TD*
G04 #@! TA.AperFunction,SMDPad,CuDef*
%ADD29RoundRect,0.091000X-0.039000X0.329000X-0.039000X-0.329000X0.039000X-0.329000X0.039000X0.329000X0*%
G04 #@! TD*
G04 #@! TA.AperFunction,SMDPad,CuDef*
%ADD30R,4.200000X4.200000*%
G04 #@! TD*
G04 #@! TA.AperFunction,SMDPad,CuDef*
%ADD31RoundRect,0.243750X-0.456250X0.243750X-0.456250X-0.243750X0.456250X-0.243750X0.456250X0.243750X0*%
G04 #@! TD*
G04 #@! TA.AperFunction,ViaPad*
%ADD32C,0.600000*%
G04 #@! TD*
G04 #@! TA.AperFunction,Conductor*
%ADD33C,0.200000*%
G04 #@! TD*
G04 APERTURE END LIST*
D10*
X177800000Y-88900000D03*
X177800000Y-86360000D03*
X177800000Y-83820000D03*
X177800000Y-81280000D03*
X177800000Y-78740000D03*
X177800000Y-76200000D03*
X177800000Y-73660000D03*
X177800000Y-71120000D03*
X177800000Y-68580000D03*
X177800000Y-66040000D03*
X177800000Y-63500000D03*
X177800000Y-60960000D03*
X177800000Y-58420000D03*
X177800000Y-55880000D03*
X177800000Y-53340000D03*
D11*
X177800000Y-50800000D03*
D12*
X185230000Y-79375000D03*
X186880000Y-79375000D03*
D13*
X181457500Y-79375000D03*
X183032500Y-79375000D03*
D10*
X193040000Y-93980000D03*
X190500000Y-93980000D03*
X187960000Y-93980000D03*
X185420000Y-93980000D03*
X182880000Y-93980000D03*
X180340000Y-93980000D03*
D11*
X177800000Y-93980000D03*
D14*
X191630000Y-64770000D03*
X193180000Y-64770000D03*
X188455000Y-57150000D03*
X190005000Y-57150000D03*
D12*
X195390000Y-64770000D03*
X197040000Y-64770000D03*
X181420000Y-81280000D03*
X183070000Y-81280000D03*
D14*
X188455000Y-61595000D03*
X190005000Y-61595000D03*
D15*
X197787500Y-88900000D03*
X195912500Y-88900000D03*
D16*
X189495000Y-89230000D03*
X190145000Y-89230000D03*
X190795000Y-89230000D03*
X191445000Y-89230000D03*
X192095000Y-89230000D03*
X192745000Y-89230000D03*
X193395000Y-89230000D03*
X194045000Y-89230000D03*
X194045000Y-83490000D03*
X193395000Y-83490000D03*
X192745000Y-83490000D03*
X192095000Y-83490000D03*
X191445000Y-83490000D03*
X190795000Y-83490000D03*
X190145000Y-83490000D03*
X189495000Y-83490000D03*
D12*
X195390000Y-68580000D03*
X197040000Y-68580000D03*
D17*
X185815000Y-55295000D03*
X183515000Y-55295000D03*
D18*
X183515000Y-61595000D03*
D17*
X181215000Y-55295000D03*
D14*
X191630000Y-66675000D03*
X193180000Y-66675000D03*
D19*
X187075000Y-83490000D03*
X186425000Y-83490000D03*
X185775000Y-83490000D03*
X185125000Y-83490000D03*
X184475000Y-83490000D03*
X183825000Y-83490000D03*
X183175000Y-83490000D03*
X182525000Y-83490000D03*
X181875000Y-83490000D03*
X181225000Y-83490000D03*
X181225000Y-89230000D03*
X181875000Y-89230000D03*
X182525000Y-89230000D03*
X183175000Y-89230000D03*
X183825000Y-89230000D03*
X184475000Y-89230000D03*
X185125000Y-89230000D03*
X185775000Y-89230000D03*
X186425000Y-89230000D03*
X187075000Y-89230000D03*
D20*
X197485000Y-72460000D03*
X196215000Y-72460000D03*
X194945000Y-72460000D03*
X193675000Y-72460000D03*
X193675000Y-77400000D03*
X194945000Y-77400000D03*
X196215000Y-77400000D03*
X197485000Y-77400000D03*
D12*
X195390000Y-66675000D03*
X197040000Y-66675000D03*
D15*
X197787500Y-86360000D03*
X195912500Y-86360000D03*
X197787500Y-83820000D03*
X195912500Y-83820000D03*
D17*
X197245000Y-55270000D03*
X194945000Y-55270000D03*
D18*
X194945000Y-61570000D03*
D17*
X192645000Y-55270000D03*
D12*
X185230000Y-81280000D03*
X186880000Y-81280000D03*
D21*
X190530000Y-52205000D03*
X189880000Y-52205000D03*
X189230000Y-52205000D03*
X188580000Y-52205000D03*
X187930000Y-52205000D03*
D22*
X191730000Y-52230000D03*
D23*
X192730000Y-49530000D03*
D24*
X190230000Y-49530000D03*
X188230000Y-49530000D03*
D23*
X185730000Y-49530000D03*
D22*
X186730000Y-52230000D03*
D25*
X197485000Y-49975000D03*
X197485000Y-51625000D03*
D14*
X188455000Y-59690000D03*
X190005000Y-59690000D03*
D11*
X200660000Y-50800000D03*
D10*
X200660000Y-53340000D03*
X200660000Y-55880000D03*
X200660000Y-58420000D03*
X200660000Y-60960000D03*
X200660000Y-63500000D03*
X200660000Y-66040000D03*
X200660000Y-68580000D03*
X200660000Y-71120000D03*
X200660000Y-73660000D03*
X200660000Y-76200000D03*
X200660000Y-78740000D03*
X200660000Y-81280000D03*
X200660000Y-83820000D03*
X200660000Y-86360000D03*
X200660000Y-88900000D03*
D14*
X188455000Y-55245000D03*
X190005000Y-55245000D03*
D26*
X181350000Y-69640000D03*
X181350000Y-70140000D03*
X181350000Y-70640000D03*
X181350000Y-71140000D03*
X181350000Y-71640000D03*
X181350000Y-72140000D03*
X181350000Y-72640000D03*
X181350000Y-73140000D03*
X181350000Y-73640000D03*
X181350000Y-74140000D03*
X181350000Y-74640000D03*
X181350000Y-75140000D03*
D27*
X182035000Y-75825000D03*
X182535000Y-75825000D03*
X183035000Y-75825000D03*
X183535000Y-75825000D03*
X184035000Y-75825000D03*
X184535000Y-75825000D03*
X185035000Y-75825000D03*
X185535000Y-75825000D03*
X186035000Y-75825000D03*
X186535000Y-75825000D03*
X187035000Y-75825000D03*
X187535000Y-75825000D03*
D28*
X188220000Y-75140000D03*
X188220000Y-74640000D03*
X188220000Y-74140000D03*
X188220000Y-73640000D03*
X188220000Y-73140000D03*
X188220000Y-72640000D03*
X188220000Y-72140000D03*
X188220000Y-71640000D03*
X188220000Y-71140000D03*
X188220000Y-70640000D03*
X188220000Y-70140000D03*
X188220000Y-69640000D03*
D29*
X187535000Y-68955000D03*
X187035000Y-68955000D03*
X186535000Y-68955000D03*
X186035000Y-68955000D03*
X185535000Y-68955000D03*
X185035000Y-68955000D03*
X184535000Y-68955000D03*
X184035000Y-68955000D03*
X183535000Y-68955000D03*
X183035000Y-68955000D03*
X182535000Y-68955000D03*
X182035000Y-68955000D03*
D30*
X184785000Y-72390000D03*
D31*
X194945000Y-49862500D03*
X194945000Y-51737500D03*
D32*
X187071000Y-92964000D03*
X186563000Y-91694000D03*
X185166000Y-91059000D03*
X201930000Y-52197000D03*
X202534000Y-64770000D03*
X178816000Y-91186000D03*
X196342000Y-92964000D03*
X184150000Y-92710000D03*
X183007000Y-91059000D03*
X178765200Y-69596000D03*
X192582800Y-77825600D03*
X191871600Y-78587600D03*
X188595000Y-80010000D03*
X182626000Y-87376000D03*
X184404000Y-85852000D03*
X187198000Y-85852000D03*
X186436000Y-85598000D03*
X187706000Y-85090000D03*
X195500000Y-95500000D03*
X184912000Y-51308000D03*
X183750000Y-49250000D03*
X177750000Y-48750000D03*
X179700000Y-88900000D03*
X192700000Y-66900000D03*
X186000000Y-63400000D03*
X191100000Y-57200000D03*
X180100000Y-80900000D03*
X193250000Y-53250000D03*
X195500000Y-57750000D03*
X196500000Y-48500000D03*
X184500000Y-73250000D03*
X193000000Y-63300000D03*
X180250000Y-53000000D03*
X193750000Y-72500000D03*
X201300000Y-91600000D03*
X183250000Y-70750000D03*
X188100000Y-49800000D03*
X189500000Y-63250000D03*
X195000000Y-88100000D03*
X182000000Y-58000000D03*
X194250000Y-92750000D03*
X190200000Y-49400000D03*
X176750000Y-91250000D03*
X191000000Y-63000000D03*
X186500000Y-70750000D03*
X186250000Y-73750000D03*
X185000000Y-53250000D03*
X189600000Y-66900000D03*
X187800000Y-81300000D03*
X190500000Y-55300000D03*
X181500000Y-95750000D03*
X198750000Y-49000000D03*
X197500000Y-53000000D03*
X182200000Y-72900000D03*
X190627000Y-66167000D03*
X180500000Y-78000000D03*
X195707000Y-66167000D03*
X188455000Y-57150000D03*
X193300000Y-57100000D03*
X189738000Y-72136000D03*
X187198000Y-62230000D03*
X192278000Y-61341000D03*
X192786000Y-59563000D03*
X188341000Y-75946000D03*
X186436000Y-65786000D03*
X197866000Y-82804000D03*
X199263000Y-66167000D03*
X200152000Y-82550000D03*
X199390000Y-87122000D03*
X186690000Y-66548000D03*
X197866000Y-87630000D03*
X198882000Y-66929000D03*
X188468000Y-67310000D03*
X196850000Y-87630000D03*
X189255400Y-87147400D03*
X184150000Y-82042000D03*
X181610000Y-87884000D03*
X188468000Y-82804000D03*
X184404000Y-87630000D03*
X181737000Y-66040000D03*
X181737000Y-64262000D03*
X183261000Y-65405000D03*
X180594000Y-63881000D03*
X180213000Y-59944000D03*
X182499000Y-63373000D03*
X180721000Y-61468000D03*
X179324000Y-69088000D03*
X193294000Y-74041000D03*
X194056000Y-74295000D03*
X194818000Y-74676000D03*
X197485000Y-74676000D03*
X196723000Y-75438000D03*
X194818000Y-75565000D03*
X195961000Y-63119000D03*
X195199000Y-63627000D03*
X192913000Y-67818000D03*
X191643000Y-67818000D03*
X190881000Y-68072000D03*
X190373000Y-68707000D03*
X188722000Y-68072000D03*
X189484000Y-69088000D03*
X199771000Y-72644000D03*
X190246000Y-67564000D03*
X184785000Y-65659000D03*
X187960000Y-68072000D03*
X185674000Y-65659000D03*
X199644000Y-65151000D03*
X196977000Y-79629000D03*
X195580000Y-73787000D03*
X179832000Y-85090000D03*
X179324000Y-72390000D03*
X182525000Y-84937000D03*
X180340000Y-86868000D03*
X176530000Y-86868000D03*
X182118000Y-76962000D03*
X192786000Y-87630000D03*
X191897000Y-91440000D03*
X184404000Y-77978000D03*
X181356000Y-77978000D03*
X193548000Y-81534000D03*
X183388000Y-78232000D03*
X191516000Y-82042000D03*
X182372000Y-74930000D03*
X195580000Y-79756000D03*
X194945000Y-77400000D03*
X193675000Y-85979000D03*
X197104000Y-89916000D03*
X193548000Y-80137000D03*
X195580000Y-91440000D03*
X191262000Y-87630000D03*
X188722000Y-81280000D03*
X188468000Y-87884000D03*
X190754000Y-85090000D03*
X184200800Y-91059000D03*
D33*
X188696600Y-91338400D02*
X187071000Y-92964000D01*
X186563000Y-91694000D02*
X186182000Y-91694000D01*
X186182000Y-91694000D02*
X185775000Y-91287000D01*
X185125000Y-91018000D02*
X185166000Y-91059000D01*
X185125000Y-89230000D02*
X185125000Y-91018000D01*
X185420000Y-93726000D02*
X185420000Y-93980000D01*
X187075000Y-90682000D02*
X187452000Y-91059000D01*
X187452000Y-91694000D02*
X185420000Y-93726000D01*
X187075000Y-89230000D02*
X187075000Y-90682000D01*
X187452000Y-91059000D02*
X187452000Y-91694000D01*
X188696600Y-91338400D02*
X188696600Y-88569800D01*
X189255400Y-88011000D02*
X189255400Y-87147400D01*
X188696600Y-88569800D02*
X189255400Y-88011000D01*
X185775000Y-89230000D02*
X185775000Y-91287000D01*
X202534000Y-52801000D02*
X202534000Y-64770000D01*
X201930000Y-52197000D02*
X202534000Y-52801000D01*
X202534000Y-64770000D02*
X202534000Y-90366000D01*
X202534000Y-90366000D02*
X201300000Y-91600000D01*
X184099200Y-92710000D02*
X183591200Y-92202000D01*
X183591200Y-91389200D02*
X183591200Y-92202000D01*
X184150000Y-92710000D02*
X184099200Y-92710000D01*
X183175000Y-90510000D02*
X183175000Y-89230000D01*
X183007000Y-90678000D02*
X183175000Y-90510000D01*
X183007000Y-91059000D02*
X183007000Y-90678000D01*
X194250000Y-94250000D02*
X195500000Y-95500000D01*
X194250000Y-92750000D02*
X194250000Y-94250000D01*
X182981600Y-87020400D02*
X182626000Y-87376000D01*
X184962800Y-87274400D02*
X184708800Y-87020400D01*
X184962800Y-87934800D02*
X184962800Y-87274400D01*
X184708800Y-87020400D02*
X182981600Y-87020400D01*
X184099200Y-88188800D02*
X184708800Y-88188800D01*
X183825000Y-88463000D02*
X184099200Y-88188800D01*
X184708800Y-88188800D02*
X184962800Y-87934800D01*
X183825000Y-89230000D02*
X183825000Y-88463000D01*
X179247000Y-55295000D02*
X181215000Y-55295000D01*
X178562000Y-54610000D02*
X179247000Y-55295000D01*
X177165000Y-54610000D02*
X178562000Y-54610000D01*
X176530000Y-55245000D02*
X177165000Y-54610000D01*
X176530000Y-68834000D02*
X176530000Y-55245000D01*
X176022000Y-69342000D02*
X176530000Y-68834000D01*
X176022000Y-69850000D02*
X176022000Y-69342000D01*
X176180000Y-70008000D02*
X176022000Y-69850000D01*
X176180000Y-86106000D02*
X176180000Y-70008000D01*
X180370000Y-87630000D02*
X176514182Y-87630000D01*
X181400000Y-86600000D02*
X180370000Y-87630000D01*
X176514182Y-87630000D02*
X175980000Y-87095818D01*
X185558400Y-86600000D02*
X181400000Y-86600000D01*
X175980000Y-87095818D02*
X175980000Y-86306000D01*
X186425000Y-89230000D02*
X186425000Y-87466600D01*
X186425000Y-87466600D02*
X185558400Y-86600000D01*
X175980000Y-86306000D02*
X176180000Y-86106000D01*
X183235600Y-87630000D02*
X184404000Y-87630000D01*
X182525000Y-88340600D02*
X183235600Y-87630000D01*
X182525000Y-89230000D02*
X182525000Y-88340600D01*
X183692800Y-90678000D02*
X183591200Y-90779600D01*
X183825000Y-90545800D02*
X183692800Y-90678000D01*
X183591200Y-90779600D02*
X183591200Y-91389200D01*
X183825000Y-89230000D02*
X183825000Y-90545800D01*
X178968400Y-69799200D02*
X178765200Y-69596000D01*
X181350000Y-71640000D02*
X180453600Y-71640000D01*
X180453600Y-71640000D02*
X178968400Y-70154800D01*
X178968400Y-70154800D02*
X178968400Y-69799200D01*
X180086000Y-70104000D02*
X180086000Y-68580000D01*
X191566800Y-79451200D02*
X192024000Y-79451200D01*
X192024000Y-79451200D02*
X192735200Y-78740000D01*
X192735200Y-77978000D02*
X192582800Y-77825600D01*
X192735200Y-78740000D02*
X192735200Y-77978000D01*
X190296800Y-79451200D02*
X191566800Y-79451200D01*
X189077600Y-80670400D02*
X190296800Y-79451200D01*
X188429600Y-80670400D02*
X189077600Y-80670400D01*
X187800000Y-81300000D02*
X188429600Y-80670400D01*
X184023000Y-79375000D02*
X183032500Y-79375000D01*
X184810400Y-78587600D02*
X184023000Y-79375000D01*
X190703200Y-78587600D02*
X184810400Y-78587600D01*
X191109600Y-78994000D02*
X190703200Y-78587600D01*
X191566800Y-78994000D02*
X191109600Y-78994000D01*
X191871600Y-78689200D02*
X191566800Y-78994000D01*
X191871600Y-78587600D02*
X191871600Y-78689200D01*
X182382500Y-80300000D02*
X181457500Y-79375000D01*
X183400000Y-80300000D02*
X182382500Y-80300000D01*
X181457500Y-79375000D02*
X181457500Y-78957500D01*
X181457500Y-78957500D02*
X180500000Y-78000000D01*
X181420000Y-79412500D02*
X181457500Y-79375000D01*
X181420000Y-81280000D02*
X181420000Y-79412500D01*
X185230000Y-79375000D02*
X185230000Y-81280000D01*
X187515000Y-80010000D02*
X186880000Y-79375000D01*
X188595000Y-80010000D02*
X187515000Y-80010000D01*
X182118000Y-87376000D02*
X182626000Y-87376000D01*
X181864000Y-87122000D02*
X182118000Y-87376000D01*
X181478000Y-87122000D02*
X181864000Y-87122000D01*
X179700000Y-88900000D02*
X181478000Y-87122000D01*
X183175000Y-84623000D02*
X183175000Y-83490000D01*
X188976000Y-85852000D02*
X187198000Y-85852000D01*
X184404000Y-85852000D02*
X183175000Y-84623000D01*
X189484000Y-86360000D02*
X188976000Y-85852000D01*
X186182000Y-85598000D02*
X186436000Y-85598000D01*
X185125000Y-84541000D02*
X186182000Y-85598000D01*
X185775000Y-84429000D02*
X185775000Y-83490000D01*
X186182000Y-84836000D02*
X185775000Y-84429000D01*
X187452000Y-84836000D02*
X186182000Y-84836000D01*
X187706000Y-85090000D02*
X187452000Y-84836000D01*
X189738000Y-88138000D02*
X189738000Y-87630000D01*
X189992000Y-86868000D02*
X189484000Y-86360000D01*
X189992000Y-87376000D02*
X189992000Y-86868000D01*
X189495000Y-88381000D02*
X189738000Y-88138000D01*
X189738000Y-87630000D02*
X189992000Y-87376000D01*
X189495000Y-89230000D02*
X189495000Y-88381000D01*
X182118000Y-93218000D02*
X182880000Y-93980000D01*
X182118000Y-90932000D02*
X182118000Y-93218000D01*
X182525000Y-90525000D02*
X182118000Y-90932000D01*
X182525000Y-89230000D02*
X182525000Y-90525000D01*
X181875000Y-90159000D02*
X180340000Y-91694000D01*
X181875000Y-89230000D02*
X181875000Y-90159000D01*
X180340000Y-91694000D02*
X180340000Y-93980000D01*
X190530000Y-52205000D02*
X190530000Y-51786000D01*
X185420000Y-50800000D02*
X191516000Y-50800000D01*
X181215000Y-55295000D02*
X181215000Y-55005000D01*
X181215000Y-55005000D02*
X184912000Y-51308000D01*
X188455000Y-55245000D02*
X190530000Y-53170000D01*
X196660000Y-50800000D02*
X197485000Y-49975000D01*
X184912000Y-51308000D02*
X185420000Y-50800000D01*
X191516000Y-50800000D02*
X196660000Y-50800000D01*
X190530000Y-51786000D02*
X191516000Y-50800000D01*
X190530000Y-53170000D02*
X190530000Y-52205000D01*
X185150000Y-53400000D02*
X185000000Y-53250000D01*
X190145000Y-82345000D02*
X190145000Y-83490000D01*
X191000000Y-63000000D02*
X190005000Y-62005000D01*
X190005000Y-62005000D02*
X190005000Y-61595000D01*
X180030000Y-89230000D02*
X179700000Y-88900000D01*
X192700000Y-66900000D02*
X192955000Y-66900000D01*
X187930000Y-52205000D02*
X186755000Y-52205000D01*
X186755000Y-52205000D02*
X186730000Y-52230000D01*
X192955000Y-66900000D02*
X193180000Y-66675000D01*
X189800000Y-82000000D02*
X190145000Y-82345000D01*
X190060000Y-55300000D02*
X190005000Y-55245000D01*
X194045000Y-89230000D02*
X194045000Y-89055000D01*
X186300000Y-64300000D02*
X187000000Y-64300000D01*
X190005000Y-59690000D02*
X190005000Y-57150000D01*
X188500000Y-82000000D02*
X189800000Y-82000000D01*
X190005000Y-57150000D02*
X191050000Y-57150000D01*
X190500000Y-55300000D02*
X190060000Y-55300000D01*
X193062500Y-49862500D02*
X192730000Y-49530000D01*
X191050000Y-57150000D02*
X191100000Y-57200000D01*
X187000000Y-64300000D02*
X189600000Y-66900000D01*
X193180000Y-64770000D02*
X193180000Y-63480000D01*
X186000000Y-64000000D02*
X186300000Y-64300000D01*
X193180000Y-63480000D02*
X193000000Y-63300000D01*
X186000000Y-63400000D02*
X186000000Y-64000000D01*
X194045000Y-89055000D02*
X195000000Y-88100000D01*
X181225000Y-89230000D02*
X180030000Y-89230000D01*
X194945000Y-49862500D02*
X193062500Y-49862500D01*
X187800000Y-81300000D02*
X188500000Y-82000000D01*
X187452000Y-71120000D02*
X187452000Y-70104000D01*
X195961000Y-83820000D02*
X195912500Y-83820000D01*
X186550000Y-62979000D02*
X189738000Y-66167000D01*
X182200000Y-70076313D02*
X181823687Y-69700000D01*
X187048000Y-75080000D02*
X186794000Y-75080000D01*
X184380000Y-81280000D02*
X183400000Y-80300000D01*
X195260000Y-86360000D02*
X194300000Y-85400000D01*
X190448000Y-85800000D02*
X189230000Y-84582000D01*
X185230000Y-81280000D02*
X184380000Y-81280000D01*
X181420000Y-82232000D02*
X181225000Y-82427000D01*
X187048000Y-69700000D02*
X181823687Y-69700000D01*
X187706000Y-82550000D02*
X187706000Y-83484604D01*
X187472000Y-71140000D02*
X187452000Y-71160000D01*
X181737000Y-61595000D02*
X179832000Y-63500000D01*
X198405000Y-78320000D02*
X197485000Y-77400000D01*
X181350000Y-69640000D02*
X181350000Y-68320000D01*
X181350000Y-68320000D02*
X179832000Y-66802000D01*
X187452000Y-82296000D02*
X187706000Y-82550000D01*
X187452000Y-74676000D02*
X187048000Y-75080000D01*
X187472000Y-71140000D02*
X187452000Y-71120000D01*
X187452000Y-70104000D02*
X187048000Y-69700000D01*
X186794000Y-75080000D02*
X186535000Y-75339000D01*
X195390000Y-66675000D02*
X195390000Y-68580000D01*
X179832000Y-63500000D02*
X179832000Y-66802000D01*
X186425000Y-82475000D02*
X186604000Y-82296000D01*
X182200000Y-72900000D02*
X182200000Y-70076313D01*
X189495000Y-84317000D02*
X189495000Y-83490000D01*
X194300000Y-85400000D02*
X191900000Y-85400000D01*
X183515000Y-61595000D02*
X186550000Y-61595000D01*
X183515000Y-61595000D02*
X181737000Y-61595000D01*
X186535000Y-75339000D02*
X186535000Y-75825000D01*
X195912500Y-86360000D02*
X195912500Y-88900000D01*
X195390000Y-66675000D02*
X195390000Y-66484000D01*
X181823687Y-69700000D02*
X181763687Y-69640000D01*
X195912500Y-83820000D02*
X195912500Y-86360000D01*
X181225000Y-82427000D02*
X181225000Y-83490000D01*
X183515000Y-55295000D02*
X183515000Y-61595000D01*
X188803396Y-84582000D02*
X189230000Y-84582000D01*
X186550000Y-61595000D02*
X186550000Y-62979000D01*
X191500000Y-85800000D02*
X190448000Y-85800000D01*
X187452000Y-71160000D02*
X187452000Y-74676000D01*
X195912500Y-86360000D02*
X195260000Y-86360000D01*
X181420000Y-81280000D02*
X181420000Y-82232000D01*
X186604000Y-82296000D02*
X187452000Y-82296000D01*
X191900000Y-85400000D02*
X191500000Y-85800000D01*
X181763687Y-69640000D02*
X181350000Y-69640000D01*
X186425000Y-82475000D02*
X185230000Y-81280000D01*
X198405000Y-81487182D02*
X198405000Y-78320000D01*
X188455000Y-59690000D02*
X188455000Y-57150000D01*
X187706000Y-83484604D02*
X188803396Y-84582000D01*
X196072182Y-83820000D02*
X198405000Y-81487182D01*
X195390000Y-66484000D02*
X195707000Y-66167000D01*
X188455000Y-57150000D02*
X189255000Y-56350000D01*
X189230000Y-84582000D02*
X189495000Y-84317000D01*
X191565000Y-56350000D02*
X192645000Y-55270000D01*
X195912500Y-83820000D02*
X196072182Y-83820000D01*
X186550000Y-61595000D02*
X188455000Y-59690000D01*
X186425000Y-83490000D02*
X186425000Y-82475000D01*
X189738000Y-66167000D02*
X190627000Y-66167000D01*
X188220000Y-71140000D02*
X187472000Y-71140000D01*
X189255000Y-56350000D02*
X191565000Y-56350000D01*
X187198000Y-62230000D02*
X187820000Y-62230000D01*
X194945000Y-61570000D02*
X195555000Y-61570000D01*
X187820000Y-62230000D02*
X188455000Y-61595000D01*
X191135000Y-60490000D02*
X191770000Y-59855000D01*
X188455000Y-61595000D02*
X189560000Y-60490000D01*
X189560000Y-60490000D02*
X191135000Y-60490000D01*
X191135000Y-60490000D02*
X193865000Y-60490000D01*
X194945000Y-55270000D02*
X194945000Y-55455000D01*
X189611000Y-72644000D02*
X188224000Y-72644000D01*
X196850000Y-62865000D02*
X196850000Y-63310000D01*
X196850000Y-63310000D02*
X195390000Y-64770000D01*
X193300000Y-57100000D02*
X191770000Y-58630000D01*
X195555000Y-61570000D02*
X196850000Y-62865000D01*
X194945000Y-55455000D02*
X193300000Y-57100000D01*
X188224000Y-72644000D02*
X188220000Y-72640000D01*
X189738000Y-72136000D02*
X189738000Y-72517000D01*
X193865000Y-60490000D02*
X194945000Y-61570000D01*
X189738000Y-72517000D02*
X189611000Y-72644000D01*
X191770000Y-58630000D02*
X191770000Y-59855000D01*
X191897000Y-69088000D02*
X191897000Y-68453000D01*
X191897000Y-68453000D02*
X192278000Y-68072000D01*
X189623000Y-73140000D02*
X190627000Y-72136000D01*
X197040000Y-64072000D02*
X197485000Y-63627000D01*
X192278000Y-68072000D02*
X192278000Y-67564000D01*
X197485000Y-60579000D02*
X196977000Y-60071000D01*
X190627000Y-72136000D02*
X190627000Y-70358000D01*
X193802000Y-59563000D02*
X192786000Y-59563000D01*
X191630000Y-64770000D02*
X191630000Y-66675000D01*
X194310000Y-60071000D02*
X193802000Y-59563000D01*
X192278000Y-67564000D02*
X191630000Y-66916000D01*
X190627000Y-70358000D02*
X191897000Y-69088000D01*
X192278000Y-61341000D02*
X192278000Y-64122000D01*
X197040000Y-64770000D02*
X197040000Y-64072000D01*
X191630000Y-66916000D02*
X191630000Y-66675000D01*
X188220000Y-73140000D02*
X189623000Y-73140000D01*
X197485000Y-63627000D02*
X197485000Y-60579000D01*
X196977000Y-60071000D02*
X194310000Y-60071000D01*
X192278000Y-64122000D02*
X191630000Y-64770000D01*
X197372500Y-51737500D02*
X194945000Y-51737500D01*
X197485000Y-51625000D02*
X197372500Y-51737500D01*
X188220000Y-75825000D02*
X188341000Y-75946000D01*
X187535000Y-75825000D02*
X188220000Y-75825000D01*
X201168000Y-82550000D02*
X200152000Y-82550000D01*
X200152000Y-67310000D02*
X199263000Y-66421000D01*
X185535000Y-66687000D02*
X186436000Y-65786000D01*
X201326000Y-67310000D02*
X201834000Y-67818000D01*
X200152000Y-67310000D02*
X201326000Y-67310000D01*
X199263000Y-66421000D02*
X199263000Y-66167000D01*
X201834000Y-81884000D02*
X201168000Y-82550000D01*
X185535000Y-68955000D02*
X185535000Y-66687000D01*
X197866000Y-83741500D02*
X197787500Y-83820000D01*
X197866000Y-82804000D02*
X197866000Y-83741500D01*
X201834000Y-67818000D02*
X201834000Y-81884000D01*
X197866000Y-87630000D02*
X197866000Y-86438500D01*
X186035000Y-67203000D02*
X186690000Y-66548000D01*
X198882000Y-66929000D02*
X198882000Y-69342000D01*
X186035000Y-68955000D02*
X186035000Y-67203000D01*
X198882000Y-69342000D02*
X199136000Y-69596000D01*
X197866000Y-86438500D02*
X197787500Y-86360000D01*
X199136000Y-69596000D02*
X199136000Y-86868000D01*
X199136000Y-86868000D02*
X199390000Y-87122000D01*
X197787500Y-88567500D02*
X197787500Y-88900000D01*
X187960000Y-66294000D02*
X186535000Y-67719000D01*
X188722000Y-67056000D02*
X188722000Y-66548000D01*
X188468000Y-66294000D02*
X187960000Y-66294000D01*
X186535000Y-67719000D02*
X186535000Y-68955000D01*
X188722000Y-66548000D02*
X188468000Y-66294000D01*
X188468000Y-67310000D02*
X188722000Y-67056000D01*
X196850000Y-87630000D02*
X197787500Y-88567500D01*
X183388000Y-81280000D02*
X183070000Y-81280000D01*
X184150000Y-82042000D02*
X183388000Y-81280000D01*
X181875000Y-88149000D02*
X181610000Y-87884000D01*
X181875000Y-89230000D02*
X181875000Y-88149000D01*
X186880000Y-81280000D02*
X187400000Y-81800000D01*
X187400000Y-81800000D02*
X187500000Y-81800000D01*
X188468000Y-82768000D02*
X188468000Y-82804000D01*
X187500000Y-81800000D02*
X188468000Y-82768000D01*
X183035000Y-68955000D02*
X183035000Y-67338000D01*
X183035000Y-67338000D02*
X181737000Y-66040000D01*
X180975000Y-66419604D02*
X182535000Y-67979604D01*
X181737000Y-64262000D02*
X180975000Y-65024000D01*
X180975000Y-65024000D02*
X180975000Y-66419604D01*
X182535000Y-67979604D02*
X182535000Y-68955000D01*
X184035000Y-66155000D02*
X184035000Y-68955000D01*
X184011000Y-66155000D02*
X183261000Y-65405000D01*
X184035000Y-66155000D02*
X184011000Y-66155000D01*
X178689000Y-58420000D02*
X180213000Y-59944000D01*
X182035000Y-68116000D02*
X180467000Y-66548000D01*
X177800000Y-58420000D02*
X178689000Y-58420000D01*
X182035000Y-68955000D02*
X182035000Y-68116000D01*
X180467000Y-66548000D02*
X180467000Y-64008000D01*
X180467000Y-64008000D02*
X180594000Y-63881000D01*
X180213000Y-60960000D02*
X180721000Y-61468000D01*
X183535000Y-68955000D02*
X183535000Y-66822000D01*
X182499000Y-65786000D02*
X182499000Y-63373000D01*
X177800000Y-60960000D02*
X180213000Y-60960000D01*
X183535000Y-66822000D02*
X182499000Y-65786000D01*
X180594000Y-68326000D02*
X179324000Y-67056000D01*
X179324000Y-65024000D02*
X177800000Y-63500000D01*
X180884000Y-70140000D02*
X180594000Y-69850000D01*
X180594000Y-69850000D02*
X180594000Y-68326000D01*
X179324000Y-67056000D02*
X179324000Y-65024000D01*
X181350000Y-70140000D02*
X180884000Y-70140000D01*
X181350000Y-71140000D02*
X180485604Y-71140000D01*
X179767802Y-70422198D02*
X179324000Y-69978396D01*
X180485604Y-71140000D02*
X179767802Y-70422198D01*
X179324000Y-69978396D02*
X179324000Y-69088000D01*
X181350000Y-70640000D02*
X180622000Y-70640000D01*
X178562000Y-67818000D02*
X177800000Y-68580000D01*
X179324000Y-67818000D02*
X178562000Y-67818000D01*
X180086000Y-68580000D02*
X179324000Y-67818000D01*
X180622000Y-70640000D02*
X180086000Y-70104000D01*
X180099305Y-72140000D02*
X181350000Y-72140000D01*
X177800000Y-71120000D02*
X179079305Y-71120000D01*
X179079305Y-71120000D02*
X180099305Y-72140000D01*
X181350000Y-73640000D02*
X181330000Y-73660000D01*
X181330000Y-73660000D02*
X177800000Y-73660000D01*
X179860000Y-74140000D02*
X177800000Y-76200000D01*
X181350000Y-74140000D02*
X179860000Y-74140000D01*
X181314000Y-74676000D02*
X180086000Y-74676000D01*
X177800000Y-78486000D02*
X177800000Y-78740000D01*
X179324000Y-76962000D02*
X177800000Y-78486000D01*
X179324000Y-75438000D02*
X179324000Y-76962000D01*
X181350000Y-74640000D02*
X181314000Y-74676000D01*
X180086000Y-74676000D02*
X179324000Y-75438000D01*
X180384000Y-75140000D02*
X179832000Y-75692000D01*
X179832000Y-77168000D02*
X179000000Y-78000000D01*
X179000000Y-80080000D02*
X177800000Y-81280000D01*
X179000000Y-78000000D02*
X179000000Y-80080000D01*
X179832000Y-75692000D02*
X179832000Y-77168000D01*
X181350000Y-75140000D02*
X180384000Y-75140000D01*
X190933174Y-77139800D02*
X186867800Y-77139800D01*
X193040000Y-74041000D02*
X191447000Y-75634000D01*
X191447000Y-75634000D02*
X191447000Y-76625974D01*
X193294000Y-74041000D02*
X193040000Y-74041000D01*
X191447000Y-76625974D02*
X190933174Y-77139800D01*
X186867800Y-77139800D02*
X186035000Y-76307000D01*
X186035000Y-76307000D02*
X186035000Y-75825000D01*
X180250000Y-77250000D02*
X180250000Y-76000000D01*
X179250000Y-84910000D02*
X179250000Y-80500000D01*
X179250000Y-80500000D02*
X179500000Y-80250000D01*
X181960000Y-75750000D02*
X182035000Y-75825000D01*
X177800000Y-86360000D02*
X179250000Y-84910000D01*
X180500000Y-75750000D02*
X181960000Y-75750000D01*
X179500000Y-78000000D02*
X180250000Y-77250000D01*
X180250000Y-76000000D02*
X180500000Y-75750000D01*
X179500000Y-80250000D02*
X179500000Y-78000000D01*
X194056000Y-74295000D02*
X193675000Y-74676000D01*
X186464192Y-77495400D02*
X185535000Y-76566208D01*
X193294000Y-74676000D02*
X191897000Y-76073000D01*
X193675000Y-74676000D02*
X193294000Y-74676000D01*
X185535000Y-76566208D02*
X185535000Y-75825000D01*
X191897000Y-76670948D02*
X191072548Y-77495400D01*
X191072548Y-77495400D02*
X186464192Y-77495400D01*
X191897000Y-76073000D02*
X191897000Y-76670948D01*
X197866000Y-66045344D02*
X198501000Y-65410344D01*
X199517000Y-59690000D02*
X201168000Y-59690000D01*
X185035000Y-76702604D02*
X185035000Y-75825000D01*
X201295000Y-54610000D02*
X199898000Y-54610000D01*
X198385000Y-73762975D02*
X198385000Y-69988000D01*
X186183396Y-77851000D02*
X185035000Y-76702604D01*
X199136000Y-53848000D02*
X199136000Y-51816000D01*
X193488604Y-75242000D02*
X192405000Y-76325604D01*
X197866000Y-69469000D02*
X197866000Y-66045344D01*
X198303987Y-73843988D02*
X198385000Y-73762975D01*
X201834000Y-55149000D02*
X201295000Y-54610000D01*
X198501000Y-64135000D02*
X198628000Y-64008000D01*
X192405000Y-76325604D02*
X192405000Y-76657922D01*
X192405000Y-76657922D02*
X191211922Y-77851000D01*
X194252000Y-75242000D02*
X193488604Y-75242000D01*
X198628000Y-60579000D02*
X199517000Y-59690000D01*
X198385000Y-69988000D02*
X197866000Y-69469000D01*
X194818000Y-74676000D02*
X194252000Y-75242000D01*
X198628000Y-64008000D02*
X198628000Y-60579000D01*
X199898000Y-54610000D02*
X199136000Y-53848000D01*
X200152000Y-50800000D02*
X200660000Y-50800000D01*
X197485000Y-74676000D02*
X198303987Y-73857013D01*
X201168000Y-59690000D02*
X201834000Y-59024000D01*
X198501000Y-65410344D02*
X198501000Y-64135000D01*
X198303987Y-73857013D02*
X198303987Y-73843988D01*
X191211922Y-77851000D02*
X186183396Y-77851000D01*
X201834000Y-59024000D02*
X201834000Y-55149000D01*
X199136000Y-51816000D02*
X200152000Y-50800000D01*
X192913000Y-76454000D02*
X192913000Y-76644896D01*
X199009000Y-65405000D02*
X199009000Y-63373000D01*
X192913000Y-76644896D02*
X191351296Y-78206600D01*
X200152000Y-62230000D02*
X201295000Y-62230000D01*
X193675000Y-75692000D02*
X192913000Y-76454000D01*
X194818000Y-75565000D02*
X194691000Y-75692000D01*
X196723000Y-75438000D02*
X197739000Y-75438000D01*
X194691000Y-75692000D02*
X193675000Y-75692000D01*
X199009000Y-63373000D02*
X200152000Y-62230000D01*
X198247000Y-66167000D02*
X199009000Y-65405000D01*
X191351296Y-78206600D02*
X185902600Y-78206600D01*
X184535000Y-76839000D02*
X184535000Y-75825000D01*
X202184000Y-61341000D02*
X202184000Y-54864000D01*
X197739000Y-75438000D02*
X198755000Y-74422000D01*
X185902600Y-78206600D02*
X184535000Y-76839000D01*
X198755000Y-74422000D02*
X198755000Y-69850000D01*
X201295000Y-62230000D02*
X202184000Y-61341000D01*
X198247000Y-69342000D02*
X198247000Y-66167000D01*
X198755000Y-69850000D02*
X198247000Y-69342000D01*
X202184000Y-54864000D02*
X200660000Y-53340000D01*
X197866000Y-57277000D02*
X199263000Y-55880000D01*
X195326000Y-65532000D02*
X197389396Y-65532000D01*
X197866000Y-63754000D02*
X197866000Y-57277000D01*
X194629000Y-68896000D02*
X194629000Y-66229000D01*
X197389396Y-65532000D02*
X197690000Y-65231396D01*
X188220000Y-75140000D02*
X190544000Y-75140000D01*
X192463000Y-73221000D02*
X192463000Y-71062000D01*
X197690000Y-65231396D02*
X197690000Y-63930000D01*
X190544000Y-75140000D02*
X192463000Y-73221000D01*
X194629000Y-66229000D02*
X195326000Y-65532000D01*
X199263000Y-55880000D02*
X200660000Y-55880000D01*
X197690000Y-63930000D02*
X197866000Y-63754000D01*
X192463000Y-71062000D02*
X194629000Y-68896000D01*
X196040000Y-69041396D02*
X196040000Y-67231000D01*
X190803000Y-76775000D02*
X190997000Y-76581000D01*
X187198000Y-76775000D02*
X190803000Y-76775000D01*
X187035000Y-76612000D02*
X187198000Y-76775000D01*
X187035000Y-75825000D02*
X187035000Y-76612000D01*
X198247000Y-59817000D02*
X199644000Y-58420000D01*
X198120000Y-65296370D02*
X198120000Y-64008000D01*
X196342000Y-66167000D02*
X196596000Y-65913000D01*
X195739396Y-69342000D02*
X196040000Y-69041396D01*
X198120000Y-64008000D02*
X198247000Y-63881000D01*
X196596000Y-65913000D02*
X197503370Y-65913000D01*
X190997000Y-76581000D02*
X190997000Y-75447604D01*
X196040000Y-67231000D02*
X196342000Y-66929000D01*
X199644000Y-58420000D02*
X200660000Y-58420000D01*
X190997000Y-75447604D02*
X192913000Y-73531604D01*
X194945000Y-69342000D02*
X195739396Y-69342000D01*
X196342000Y-66929000D02*
X196342000Y-66167000D01*
X197503370Y-65913000D02*
X198120000Y-65296370D01*
X192913000Y-71374000D02*
X194945000Y-69342000D01*
X198247000Y-63881000D02*
X198247000Y-59817000D01*
X192913000Y-73531604D02*
X192913000Y-71374000D01*
X193929000Y-68072000D02*
X193929000Y-63881000D01*
X191447000Y-72838604D02*
X191447000Y-70554000D01*
X188220000Y-74140000D02*
X190145604Y-74140000D01*
X190145604Y-74140000D02*
X191447000Y-72838604D01*
X191447000Y-70554000D02*
X193929000Y-68072000D01*
X194818000Y-62992000D02*
X195834000Y-62992000D01*
X195834000Y-62992000D02*
X195961000Y-63119000D01*
X193929000Y-63881000D02*
X194818000Y-62992000D01*
X195199000Y-63627000D02*
X194279000Y-64547000D01*
X191897000Y-70725975D02*
X191897000Y-73025000D01*
X191897000Y-73025000D02*
X190282000Y-74640000D01*
X190282000Y-74640000D02*
X188220000Y-74640000D01*
X191897000Y-70725975D02*
X194279000Y-68343975D01*
X194279000Y-68343975D02*
X194279000Y-64547000D01*
X192659000Y-68820974D02*
X191008000Y-70471974D01*
X192913000Y-67818000D02*
X192659000Y-68072000D01*
X191008000Y-72517000D02*
X189885000Y-73640000D01*
X189885000Y-73640000D02*
X188220000Y-73640000D01*
X191008000Y-70471974D02*
X191008000Y-72517000D01*
X192659000Y-68072000D02*
X192659000Y-68820974D01*
X189595182Y-71501000D02*
X188956182Y-72140000D01*
X191431000Y-68030000D02*
X191431000Y-69059026D01*
X191643000Y-67818000D02*
X191431000Y-68030000D01*
X190246000Y-70244026D02*
X190246000Y-71247000D01*
X189992000Y-71501000D02*
X189595182Y-71501000D01*
X190246000Y-71247000D02*
X189992000Y-71501000D01*
X188956182Y-72140000D02*
X188220000Y-72140000D01*
X191431000Y-69059026D02*
X190246000Y-70244026D01*
X189865000Y-70612000D02*
X188837000Y-71640000D01*
X191008000Y-68961000D02*
X189865000Y-70104000D01*
X189865000Y-70104000D02*
X189865000Y-70612000D01*
X190881000Y-68072000D02*
X190881000Y-68453000D01*
X188837000Y-71640000D02*
X188220000Y-71640000D01*
X190881000Y-68453000D02*
X191008000Y-68580000D01*
X191008000Y-68580000D02*
X191008000Y-68961000D01*
X188220000Y-70640000D02*
X189202000Y-70640000D01*
X189202000Y-70640000D02*
X189484000Y-70358000D01*
X190373000Y-69088000D02*
X190373000Y-68707000D01*
X189484000Y-70358000D02*
X189484000Y-69977000D01*
X189484000Y-69977000D02*
X190373000Y-69088000D01*
X188093000Y-68955000D02*
X187535000Y-68955000D01*
X188468000Y-68326000D02*
X188468000Y-68580000D01*
X188468000Y-68580000D02*
X188093000Y-68955000D01*
X188722000Y-68072000D02*
X188468000Y-68326000D01*
X189484000Y-69342000D02*
X189484000Y-69088000D01*
X199517000Y-72898000D02*
X199771000Y-72644000D01*
X188686000Y-70140000D02*
X189357000Y-69469000D01*
X199517000Y-75438000D02*
X199517000Y-72898000D01*
X199517000Y-75438000D02*
X199517000Y-77597000D01*
X188220000Y-70140000D02*
X188686000Y-70140000D01*
X199517000Y-77597000D02*
X200660000Y-78740000D01*
X189357000Y-69469000D02*
X189484000Y-69342000D01*
X188220000Y-69640000D02*
X188220000Y-69574182D01*
X188220000Y-69574182D02*
X189222091Y-68572091D01*
X189222091Y-68572091D02*
X190230182Y-67564000D01*
X190230182Y-67564000D02*
X190246000Y-67564000D01*
X184535000Y-65909000D02*
X184785000Y-65659000D01*
X184535000Y-68955000D02*
X184535000Y-65909000D01*
X187960000Y-68072000D02*
X187706000Y-67818000D01*
X187706000Y-67818000D02*
X187452000Y-67818000D01*
X187452000Y-67818000D02*
X187035000Y-68235000D01*
X187035000Y-68955000D02*
X187035000Y-68235000D01*
X185035000Y-66298000D02*
X185674000Y-65659000D01*
X199898000Y-64897000D02*
X201168000Y-64897000D01*
X199644000Y-65151000D02*
X199898000Y-64897000D01*
X200914000Y-88900000D02*
X200660000Y-88900000D01*
X202184000Y-87630000D02*
X200914000Y-88900000D01*
X202184000Y-65913000D02*
X202184000Y-87630000D01*
X185035000Y-68955000D02*
X185035000Y-66298000D01*
X201168000Y-64897000D02*
X202184000Y-65913000D01*
X196390000Y-68118604D02*
X197040000Y-67468604D01*
X194945000Y-71120000D02*
X196390000Y-69675000D01*
X196390000Y-69675000D02*
X196390000Y-68118604D01*
X197040000Y-67468604D02*
X197040000Y-66675000D01*
X194945000Y-72460000D02*
X194945000Y-71120000D01*
X196215000Y-78867000D02*
X196977000Y-79629000D01*
X197040000Y-70549000D02*
X197040000Y-68580000D01*
X195580000Y-71374000D02*
X195961000Y-70993000D01*
X195961000Y-70993000D02*
X196596000Y-70993000D01*
X196596000Y-70993000D02*
X197040000Y-70549000D01*
X196215000Y-77400000D02*
X196215000Y-78867000D01*
X195580000Y-71374000D02*
X195580000Y-73787000D01*
X181875000Y-84571000D02*
X181610000Y-84836000D01*
X181610000Y-84836000D02*
X180086000Y-84836000D01*
X179574000Y-72640000D02*
X179324000Y-72390000D01*
X181350000Y-72640000D02*
X179574000Y-72640000D01*
X181875000Y-83490000D02*
X181875000Y-84571000D01*
X180086000Y-84836000D02*
X179832000Y-85090000D01*
X178941701Y-73140000D02*
X178191701Y-72390000D01*
X177038000Y-72390000D02*
X176530000Y-72898000D01*
X176530000Y-72898000D02*
X176530000Y-85344000D01*
X182525000Y-84937000D02*
X182525000Y-83490000D01*
X181350000Y-73140000D02*
X178941701Y-73140000D01*
X176530000Y-85344000D02*
X176530000Y-86868000D01*
X178191701Y-72390000D02*
X177038000Y-72390000D01*
X180594000Y-86868000D02*
X180340000Y-86868000D01*
X182525000Y-84937000D02*
X180594000Y-86868000D01*
X182535000Y-76545000D02*
X182118000Y-76962000D01*
X192786000Y-87630000D02*
X192786000Y-89189000D01*
X192786000Y-89189000D02*
X192745000Y-89230000D01*
X182535000Y-75825000D02*
X182535000Y-76545000D01*
X191389000Y-91440000D02*
X190881000Y-90932000D01*
X190881000Y-90932000D02*
X190881000Y-89316000D01*
X190881000Y-89316000D02*
X190795000Y-89230000D01*
X184035000Y-75825000D02*
X184035000Y-77609000D01*
X191897000Y-91440000D02*
X191389000Y-91440000D01*
X184035000Y-77609000D02*
X184404000Y-77978000D01*
X183035000Y-75825000D02*
X183035000Y-77315000D01*
X193395000Y-81687000D02*
X193395000Y-83490000D01*
X183035000Y-77315000D02*
X182372000Y-77978000D01*
X182372000Y-77978000D02*
X181356000Y-77978000D01*
X193548000Y-81534000D02*
X193395000Y-81687000D01*
X183535000Y-75825000D02*
X183535000Y-78085000D01*
X183535000Y-75077000D02*
X183388000Y-74930000D01*
X183535000Y-75825000D02*
X183535000Y-75077000D01*
X191516000Y-83419000D02*
X191445000Y-83490000D01*
X183535000Y-78085000D02*
X183388000Y-78232000D01*
X191516000Y-82042000D02*
X191516000Y-83419000D01*
X183388000Y-74930000D02*
X182372000Y-74930000D01*
X194945000Y-83058000D02*
X194945000Y-84582000D01*
X197485000Y-72460000D02*
X197485000Y-73025000D01*
X194945000Y-84582000D02*
X194564000Y-84963000D01*
X197485000Y-73025000D02*
X195580000Y-74930000D01*
X192095000Y-84526000D02*
X192095000Y-83490000D01*
X195580000Y-79756000D02*
X195580000Y-82423000D01*
X194564000Y-84963000D02*
X192532000Y-84963000D01*
X192532000Y-84963000D02*
X192095000Y-84526000D01*
X195580000Y-74930000D02*
X195580000Y-79756000D01*
X195580000Y-82423000D02*
X195326000Y-82677000D01*
X195326000Y-82677000D02*
X194945000Y-83058000D01*
X194045000Y-82434000D02*
X194437000Y-82042000D01*
X194437000Y-80010000D02*
X194945000Y-79502000D01*
X194437000Y-82042000D02*
X194437000Y-80010000D01*
X194945000Y-79502000D02*
X194945000Y-77400000D01*
X194045000Y-83490000D02*
X194045000Y-82434000D01*
X193675000Y-87884000D02*
X193675000Y-85979000D01*
X193395000Y-88164000D02*
X193675000Y-87884000D01*
X193802000Y-90678000D02*
X193395000Y-90271000D01*
X193675000Y-80010000D02*
X193548000Y-80137000D01*
X197104000Y-89916000D02*
X195580000Y-89916000D01*
X194818000Y-90678000D02*
X193802000Y-90678000D01*
X193395000Y-89230000D02*
X193395000Y-88164000D01*
X193675000Y-77400000D02*
X193675000Y-80010000D01*
X195580000Y-89916000D02*
X194818000Y-90678000D01*
X193395000Y-90271000D02*
X193395000Y-89230000D01*
X198755000Y-76962000D02*
X198755000Y-89916000D01*
X197866000Y-73787000D02*
X197231000Y-73787000D01*
X197231000Y-91440000D02*
X198755000Y-89916000D01*
X195580000Y-91440000D02*
X197231000Y-91440000D01*
X198035000Y-71415381D02*
X198035000Y-73618000D01*
X197104000Y-71120000D02*
X197739619Y-71120000D01*
X198035000Y-73618000D02*
X197866000Y-73787000D01*
X192786000Y-91440000D02*
X195580000Y-91440000D01*
X197739619Y-71120000D02*
X198035000Y-71415381D01*
X195961000Y-75057000D02*
X195961000Y-75819000D01*
X196215000Y-71882000D02*
X196215000Y-72460000D01*
X197866000Y-76073000D02*
X198755000Y-76962000D01*
X196215000Y-76073000D02*
X197866000Y-76073000D01*
X191445000Y-90099000D02*
X192786000Y-91440000D01*
X197231000Y-73787000D02*
X195961000Y-75057000D01*
X196215000Y-72009000D02*
X197104000Y-71120000D01*
X191445000Y-89230000D02*
X191445000Y-90099000D01*
X196215000Y-72460000D02*
X196215000Y-72009000D01*
X195961000Y-75819000D02*
X196215000Y-76073000D01*
X190400000Y-87730000D02*
X190400000Y-86600000D01*
X188675000Y-85090000D02*
X188890000Y-85090000D01*
X187075000Y-83490000D02*
X188675000Y-85090000D01*
X190145000Y-87985000D02*
X190400000Y-87730000D01*
X190145000Y-87985000D02*
X190145000Y-89230000D01*
X188890000Y-85090000D02*
X190400000Y-86600000D01*
X192095000Y-87955000D02*
X192095000Y-89230000D01*
X191770000Y-87630000D02*
X192095000Y-87955000D01*
X191262000Y-87630000D02*
X191770000Y-87630000D01*
X192278000Y-81280000D02*
X192786000Y-81788000D01*
X185125000Y-83490000D02*
X185125000Y-84541000D01*
X192786000Y-81788000D02*
X192786000Y-83449000D01*
X192786000Y-83449000D02*
X192745000Y-83490000D01*
X188722000Y-81280000D02*
X192278000Y-81280000D01*
X190754000Y-83531000D02*
X190795000Y-83490000D01*
X184475000Y-84653000D02*
X186436000Y-86614000D01*
X190754000Y-85090000D02*
X190754000Y-83531000D01*
X187198000Y-86614000D02*
X188468000Y-87884000D01*
X186436000Y-86614000D02*
X187198000Y-86614000D01*
X184475000Y-83490000D02*
X184475000Y-84653000D01*
X184475000Y-89230000D02*
X184475000Y-90784800D01*
X184475000Y-90784800D02*
X184200800Y-91059000D01*
G04 #@! TA.AperFunction,Conductor*
G36*
X175662818Y-87646984D02*
G01*
X175712181Y-87677234D01*
X176055981Y-88021034D01*
X176066676Y-88033229D01*
X176085899Y-88058282D01*
X176175553Y-88127075D01*
X176211341Y-88154536D01*
X176357420Y-88215044D01*
X176445897Y-88226692D01*
X176499720Y-88247285D01*
X176538424Y-88289987D01*
X176553644Y-88345572D01*
X176542093Y-88402034D01*
X176526096Y-88436339D01*
X176464936Y-88664592D01*
X176444340Y-88899999D01*
X176464936Y-89135407D01*
X176487575Y-89219897D01*
X176526097Y-89363663D01*
X176625965Y-89577830D01*
X176761505Y-89771401D01*
X176928599Y-89938495D01*
X177122170Y-90074035D01*
X177336337Y-90173903D01*
X177564592Y-90235063D01*
X177799999Y-90255659D01*
X177799999Y-90255658D01*
X177800000Y-90255659D01*
X178035408Y-90235063D01*
X178263663Y-90173903D01*
X178477830Y-90074035D01*
X178671401Y-89938495D01*
X178838495Y-89771401D01*
X178974035Y-89577830D01*
X179073903Y-89363663D01*
X179135063Y-89135408D01*
X179141688Y-89059681D01*
X180520000Y-89059681D01*
X180520000Y-90006907D01*
X180523398Y-90035208D01*
X180523398Y-90035209D01*
X180938113Y-89316901D01*
X180948143Y-89306870D01*
X180520000Y-89059681D01*
X179141688Y-89059681D01*
X179155659Y-88900000D01*
X179135063Y-88664592D01*
X179073903Y-88436337D01*
X179060177Y-88406902D01*
X179048825Y-88346391D01*
X179067979Y-88287875D01*
X179112917Y-88245786D01*
X179172560Y-88230500D01*
X180322513Y-88230500D01*
X180338697Y-88231560D01*
X180370000Y-88235682D01*
X180390596Y-88232970D01*
X180446301Y-88238376D01*
X180493958Y-88267729D01*
X180523853Y-88315048D01*
X180529895Y-88370693D01*
X180520000Y-88453094D01*
X180520000Y-88586255D01*
X181107500Y-88925448D01*
X181152887Y-88970835D01*
X181169500Y-89032835D01*
X181169500Y-89219897D01*
X181152887Y-89281897D01*
X181135385Y-89299399D01*
X181152887Y-89316901D01*
X181169500Y-89378901D01*
X181169500Y-89702904D01*
X181152887Y-89764904D01*
X180796357Y-90382431D01*
X180776651Y-90408112D01*
X179948965Y-91235798D01*
X179936773Y-91246491D01*
X179911717Y-91265717D01*
X179836670Y-91363523D01*
X179836668Y-91363524D01*
X179815463Y-91391159D01*
X179754956Y-91537237D01*
X179734317Y-91693999D01*
X179738439Y-91725301D01*
X179739500Y-91741487D01*
X179739500Y-92690909D01*
X179720081Y-92757533D01*
X179667907Y-92803290D01*
X179662171Y-92805964D01*
X179468601Y-92941503D01*
X179346673Y-93063431D01*
X179293926Y-93094726D01*
X179232634Y-93096915D01*
X179177789Y-93069462D01*
X179142810Y-93019082D01*
X179116388Y-92948242D01*
X179093796Y-92887669D01*
X179007546Y-92772454D01*
X178892331Y-92686204D01*
X178757483Y-92635909D01*
X178697873Y-92629500D01*
X178697869Y-92629500D01*
X176902130Y-92629500D01*
X176842515Y-92635909D01*
X176707669Y-92686204D01*
X176592454Y-92772454D01*
X176506204Y-92887668D01*
X176483611Y-92948242D01*
X176455909Y-93022517D01*
X176451216Y-93066173D01*
X176449500Y-93082130D01*
X176449500Y-94877869D01*
X176455909Y-94937484D01*
X176481056Y-95004907D01*
X176506204Y-95072331D01*
X176592454Y-95187546D01*
X176707669Y-95273796D01*
X176842517Y-95324091D01*
X176902127Y-95330500D01*
X178697872Y-95330499D01*
X178757483Y-95324091D01*
X178892331Y-95273796D01*
X179007546Y-95187546D01*
X179093796Y-95072331D01*
X179142810Y-94940916D01*
X179177789Y-94890537D01*
X179232634Y-94863084D01*
X179293927Y-94865273D01*
X179346673Y-94896569D01*
X179468599Y-95018495D01*
X179662170Y-95154035D01*
X179876337Y-95253903D01*
X180104592Y-95315063D01*
X180340000Y-95335659D01*
X180575408Y-95315063D01*
X180803663Y-95253903D01*
X181017830Y-95154035D01*
X181211401Y-95018495D01*
X181378495Y-94851401D01*
X181508426Y-94665839D01*
X181552743Y-94626975D01*
X181610000Y-94612964D01*
X181667257Y-94626975D01*
X181711573Y-94665839D01*
X181841505Y-94851401D01*
X182008599Y-95018495D01*
X182202170Y-95154035D01*
X182416337Y-95253903D01*
X182644592Y-95315063D01*
X182880000Y-95335659D01*
X183115408Y-95315063D01*
X183343663Y-95253903D01*
X183557830Y-95154035D01*
X183751401Y-95018495D01*
X183918495Y-94851401D01*
X184048426Y-94665839D01*
X184092743Y-94626975D01*
X184150000Y-94612964D01*
X184207257Y-94626975D01*
X184251573Y-94665839D01*
X184381505Y-94851401D01*
X184548599Y-95018495D01*
X184742170Y-95154035D01*
X184956337Y-95253903D01*
X185184592Y-95315063D01*
X185420000Y-95335659D01*
X185655408Y-95315063D01*
X185883663Y-95253903D01*
X186097830Y-95154035D01*
X186291401Y-95018495D01*
X186458495Y-94851401D01*
X186588426Y-94665839D01*
X186632743Y-94626975D01*
X186690000Y-94612964D01*
X186747257Y-94626975D01*
X186791573Y-94665839D01*
X186921505Y-94851401D01*
X187088599Y-95018495D01*
X187282170Y-95154035D01*
X187496337Y-95253903D01*
X187724592Y-95315063D01*
X187960000Y-95335659D01*
X188195408Y-95315063D01*
X188423663Y-95253903D01*
X188637830Y-95154035D01*
X188831401Y-95018495D01*
X188998495Y-94851401D01*
X189128426Y-94665839D01*
X189172743Y-94626975D01*
X189230000Y-94612964D01*
X189287257Y-94626975D01*
X189331573Y-94665839D01*
X189461505Y-94851401D01*
X189628599Y-95018495D01*
X189822170Y-95154035D01*
X190036337Y-95253903D01*
X190264592Y-95315063D01*
X190500000Y-95335659D01*
X190735408Y-95315063D01*
X190963663Y-95253903D01*
X191177830Y-95154035D01*
X191371401Y-95018495D01*
X191538495Y-94851401D01*
X191668426Y-94665839D01*
X191712743Y-94626975D01*
X191770000Y-94612964D01*
X191827257Y-94626975D01*
X191871573Y-94665839D01*
X192001505Y-94851401D01*
X192168599Y-95018495D01*
X192362170Y-95154035D01*
X192576337Y-95253903D01*
X192804592Y-95315063D01*
X193040000Y-95335659D01*
X193275408Y-95315063D01*
X193503663Y-95253903D01*
X193717830Y-95154035D01*
X193911401Y-95018495D01*
X194078495Y-94851401D01*
X194214035Y-94657830D01*
X194313903Y-94443663D01*
X194375063Y-94215408D01*
X194395659Y-93980000D01*
X194375063Y-93744592D01*
X194313903Y-93516337D01*
X194214035Y-93302171D01*
X194078495Y-93108599D01*
X193911401Y-92941505D01*
X193717830Y-92805965D01*
X193503663Y-92706097D01*
X193442502Y-92689709D01*
X193275407Y-92644936D01*
X193040000Y-92624340D01*
X192804592Y-92644936D01*
X192576336Y-92706097D01*
X192362170Y-92805965D01*
X192168598Y-92941505D01*
X192001505Y-93108598D01*
X191871575Y-93294159D01*
X191827257Y-93333025D01*
X191770000Y-93347036D01*
X191712743Y-93333025D01*
X191668425Y-93294159D01*
X191538494Y-93108598D01*
X191371404Y-92941508D01*
X191371404Y-92941507D01*
X191371401Y-92941505D01*
X191177830Y-92805965D01*
X190963663Y-92706097D01*
X190902502Y-92689709D01*
X190735407Y-92644936D01*
X190500000Y-92624340D01*
X190264592Y-92644936D01*
X190036336Y-92706097D01*
X189822170Y-92805965D01*
X189628598Y-92941505D01*
X189461505Y-93108598D01*
X189331575Y-93294159D01*
X189287257Y-93333025D01*
X189230000Y-93347036D01*
X189172743Y-93333025D01*
X189128425Y-93294159D01*
X188998494Y-93108598D01*
X188831404Y-92941508D01*
X188831404Y-92941507D01*
X188831401Y-92941505D01*
X188637830Y-92805965D01*
X188423663Y-92706097D01*
X188416715Y-92702857D01*
X188370744Y-92665961D01*
X188347004Y-92612007D01*
X188350859Y-92553187D01*
X188381437Y-92502796D01*
X189087643Y-91796590D01*
X189099823Y-91785909D01*
X189124882Y-91766682D01*
X189221136Y-91641241D01*
X189281644Y-91495162D01*
X189288411Y-91443762D01*
X189302283Y-91338400D01*
X189298160Y-91307091D01*
X189297100Y-91290906D01*
X189297100Y-90639500D01*
X189313713Y-90577500D01*
X189359100Y-90532113D01*
X189421100Y-90515500D01*
X189691941Y-90515500D01*
X189691944Y-90515500D01*
X189780613Y-90504852D01*
X189780613Y-90504851D01*
X189796468Y-90502948D01*
X189796484Y-90503083D01*
X189819995Y-90498613D01*
X189843517Y-90503083D01*
X189843534Y-90502949D01*
X189948051Y-90515500D01*
X189948056Y-90515500D01*
X190156500Y-90515500D01*
X190218500Y-90532113D01*
X190263887Y-90577500D01*
X190280500Y-90639500D01*
X190280500Y-90884513D01*
X190279439Y-90900699D01*
X190275317Y-90932000D01*
X190280500Y-90971360D01*
X190280500Y-90971361D01*
X190295956Y-91088762D01*
X190356463Y-91234840D01*
X190452716Y-91360281D01*
X190477768Y-91379503D01*
X190489964Y-91390199D01*
X190930802Y-91831038D01*
X190941497Y-91843233D01*
X190953668Y-91859095D01*
X190960718Y-91868282D01*
X190992212Y-91892448D01*
X190992214Y-91892450D01*
X191086159Y-91964536D01*
X191232238Y-92025044D01*
X191326085Y-92037398D01*
X191364743Y-92049125D01*
X191385617Y-92064085D01*
X191394738Y-92069816D01*
X191547478Y-92165789D01*
X191717745Y-92225368D01*
X191897000Y-92245565D01*
X192076255Y-92225368D01*
X192246522Y-92165789D01*
X192399262Y-92069816D01*
X192439692Y-92029384D01*
X192479920Y-92002505D01*
X192527373Y-91993066D01*
X192574823Y-92002504D01*
X192629238Y-92025044D01*
X192723069Y-92037397D01*
X192785999Y-92045682D01*
X192785999Y-92045681D01*
X192786000Y-92045682D01*
X192817302Y-92041560D01*
X192833487Y-92040500D01*
X194997059Y-92040500D01*
X195044512Y-92049939D01*
X195065088Y-92063687D01*
X195065908Y-92062383D01*
X195077738Y-92069816D01*
X195230478Y-92165789D01*
X195400745Y-92225368D01*
X195580000Y-92245565D01*
X195759255Y-92225368D01*
X195929522Y-92165789D01*
X196082262Y-92069816D01*
X196082261Y-92069816D01*
X196094092Y-92062383D01*
X196094911Y-92063687D01*
X196115488Y-92049939D01*
X196162941Y-92040500D01*
X197183513Y-92040500D01*
X197199697Y-92041560D01*
X197231000Y-92045682D01*
X197387762Y-92025044D01*
X197533841Y-91964536D01*
X197627483Y-91892682D01*
X197659282Y-91868282D01*
X197678509Y-91843223D01*
X197689190Y-91831043D01*
X199146044Y-90374190D01*
X199158234Y-90363501D01*
X199183282Y-90344282D01*
X199207451Y-90312785D01*
X199279536Y-90218841D01*
X199340044Y-90072762D01*
X199360682Y-89916000D01*
X199356560Y-89884697D01*
X199355500Y-89868513D01*
X199355500Y-89784784D01*
X199371047Y-89724668D01*
X199413790Y-89679626D01*
X199473010Y-89660954D01*
X199533858Y-89673333D01*
X199581073Y-89713658D01*
X199621505Y-89771401D01*
X199788599Y-89938495D01*
X199982170Y-90074035D01*
X200196337Y-90173903D01*
X200424592Y-90235063D01*
X200659999Y-90255659D01*
X200659999Y-90255658D01*
X200660000Y-90255659D01*
X200895408Y-90235063D01*
X201123663Y-90173903D01*
X201337830Y-90074035D01*
X201531401Y-89938495D01*
X201698495Y-89771401D01*
X201834035Y-89577830D01*
X201933903Y-89363663D01*
X201995063Y-89135408D01*
X202015659Y-88900000D01*
X202000390Y-88725482D01*
X202007396Y-88672267D01*
X202036235Y-88626998D01*
X202575043Y-88088190D01*
X202587223Y-88077509D01*
X202612282Y-88058282D01*
X202708536Y-87932841D01*
X202760939Y-87806328D01*
X202802614Y-87753463D01*
X202865771Y-87730163D01*
X202931795Y-87743296D01*
X202981227Y-87788991D01*
X202999500Y-87853781D01*
X202999500Y-96125500D01*
X202982887Y-96187500D01*
X202937500Y-96232887D01*
X202875500Y-96249500D01*
X175624500Y-96249500D01*
X175562500Y-96232887D01*
X175517113Y-96187500D01*
X175500500Y-96125500D01*
X175500500Y-87764915D01*
X175514015Y-87708620D01*
X175551615Y-87664597D01*
X175605102Y-87642442D01*
X175662818Y-87646984D01*
G37*
G04 #@! TD.AperFunction*
G04 #@! TA.AperFunction,Conductor*
G36*
X183691581Y-91681859D02*
G01*
X183698538Y-91688816D01*
X183851278Y-91784789D01*
X184021545Y-91844368D01*
X184200800Y-91864565D01*
X184380055Y-91844368D01*
X184550322Y-91784789D01*
X184617428Y-91742622D01*
X184683400Y-91723617D01*
X184749371Y-91742622D01*
X184816478Y-91784789D01*
X184986745Y-91844368D01*
X185166000Y-91864565D01*
X185345255Y-91844368D01*
X185373850Y-91834361D01*
X185442396Y-91830510D01*
X185502486Y-91863721D01*
X185723799Y-92085034D01*
X185734494Y-92097229D01*
X185753718Y-92122282D01*
X185800834Y-92158435D01*
X185879159Y-92218536D01*
X185879163Y-92218537D01*
X185879621Y-92218889D01*
X185920657Y-92274855D01*
X185925196Y-92344104D01*
X185891816Y-92404947D01*
X185693002Y-92603761D01*
X185647732Y-92632602D01*
X185594514Y-92639608D01*
X185420000Y-92624340D01*
X185184592Y-92644936D01*
X184956336Y-92706097D01*
X184742170Y-92805965D01*
X184548598Y-92941505D01*
X184381505Y-93108598D01*
X184251575Y-93294159D01*
X184207257Y-93333025D01*
X184150000Y-93347036D01*
X184092743Y-93333025D01*
X184048425Y-93294159D01*
X183918494Y-93108598D01*
X183751404Y-92941508D01*
X183751404Y-92941507D01*
X183751401Y-92941505D01*
X183557830Y-92805965D01*
X183343663Y-92706097D01*
X183282502Y-92689709D01*
X183115407Y-92644936D01*
X182880000Y-92624340D01*
X182853308Y-92626676D01*
X182786849Y-92613959D01*
X182736962Y-92568245D01*
X182718500Y-92503148D01*
X182718500Y-91970815D01*
X182737506Y-91904843D01*
X182788699Y-91859095D01*
X182856384Y-91847595D01*
X183007000Y-91864565D01*
X183186255Y-91844368D01*
X183356522Y-91784789D01*
X183509262Y-91688816D01*
X183516218Y-91681859D01*
X183571805Y-91649766D01*
X183635995Y-91649766D01*
X183691581Y-91681859D01*
G37*
G04 #@! TD.AperFunction*
G04 #@! TA.AperFunction,Conductor*
G36*
X194455712Y-86422314D02*
G01*
X194502440Y-86451675D01*
X194801799Y-86751034D01*
X194812494Y-86763229D01*
X194831717Y-86788282D01*
X194868315Y-86816364D01*
X194878832Y-86824434D01*
X194881357Y-86826371D01*
X194914148Y-86864315D01*
X194929229Y-86912144D01*
X194934912Y-86967775D01*
X194964299Y-87056457D01*
X194989638Y-87132925D01*
X195003783Y-87155857D01*
X195080975Y-87281005D01*
X195203994Y-87404024D01*
X195253097Y-87434311D01*
X195296277Y-87479418D01*
X195312000Y-87539850D01*
X195312000Y-87720150D01*
X195296277Y-87780582D01*
X195253097Y-87825689D01*
X195203994Y-87855975D01*
X195080975Y-87978994D01*
X194989638Y-88127075D01*
X194940192Y-88276291D01*
X194908057Y-88327028D01*
X194855849Y-88356713D01*
X194795815Y-88358384D01*
X194742038Y-88331647D01*
X194707131Y-88282776D01*
X194683769Y-88223534D01*
X194592208Y-88102791D01*
X194471462Y-88011228D01*
X194355821Y-87965625D01*
X194303582Y-87926593D01*
X194278372Y-87866454D01*
X194276561Y-87852696D01*
X194275500Y-87836513D01*
X194275500Y-86561941D01*
X194284939Y-86514488D01*
X194298684Y-86493916D01*
X194297380Y-86493097D01*
X194304816Y-86481262D01*
X194309764Y-86473386D01*
X194348783Y-86434365D01*
X194400872Y-86416136D01*
X194455712Y-86422314D01*
G37*
G04 #@! TD.AperFunction*
G04 #@! TA.AperFunction,Conductor*
G36*
X182572798Y-87214015D02*
G01*
X182616821Y-87251615D01*
X182638976Y-87305103D01*
X182634434Y-87362819D01*
X182604183Y-87412182D01*
X182502112Y-87514251D01*
X182455386Y-87543611D01*
X182400548Y-87549789D01*
X182348460Y-87531563D01*
X182309438Y-87492541D01*
X182245304Y-87390472D01*
X182226347Y-87327978D01*
X182241770Y-87264519D01*
X182287297Y-87217697D01*
X182350298Y-87200500D01*
X182516503Y-87200500D01*
X182572798Y-87214015D01*
G37*
G04 #@! TD.AperFunction*
G04 #@! TA.AperFunction,Conductor*
G36*
X180265454Y-78766021D02*
G01*
X180320745Y-78785368D01*
X180407666Y-78795161D01*
X180447585Y-78806661D01*
X180481465Y-78830700D01*
X180498756Y-78847991D01*
X180531732Y-78907073D01*
X180529481Y-78958655D01*
X180530944Y-78958805D01*
X180519500Y-79070826D01*
X180519500Y-79679174D01*
X180529563Y-79777685D01*
X180579451Y-79928235D01*
X180582451Y-79937287D01*
X180612356Y-79985770D01*
X180670720Y-80080393D01*
X180783181Y-80192854D01*
X180810061Y-80233082D01*
X180819500Y-80280535D01*
X180819500Y-80363481D01*
X180810061Y-80410934D01*
X180783183Y-80451159D01*
X180747821Y-80486522D01*
X180664527Y-80569815D01*
X180576523Y-80715392D01*
X180525913Y-80877806D01*
X180519500Y-80948383D01*
X180519500Y-81611617D01*
X180525913Y-81682193D01*
X180525914Y-81682196D01*
X180576522Y-81844606D01*
X180576523Y-81844607D01*
X180664528Y-81990186D01*
X180670591Y-81996249D01*
X180697471Y-82036477D01*
X180706910Y-82083929D01*
X180697471Y-82131382D01*
X180639956Y-82270237D01*
X180621681Y-82409046D01*
X180597549Y-82467781D01*
X180585789Y-82483288D01*
X180530147Y-82624387D01*
X180519500Y-82713051D01*
X180519500Y-84111500D01*
X180502887Y-84173500D01*
X180457500Y-84218887D01*
X180395500Y-84235500D01*
X180133487Y-84235500D01*
X180117302Y-84234439D01*
X180113376Y-84233922D01*
X180085999Y-84230317D01*
X179990685Y-84242866D01*
X179922095Y-84232309D01*
X179869919Y-84186552D01*
X179850500Y-84119927D01*
X179850500Y-80800096D01*
X179859936Y-80752650D01*
X179886805Y-80712428D01*
X179891042Y-80708191D01*
X179903212Y-80697517D01*
X179928282Y-80678282D01*
X180024536Y-80552841D01*
X180085044Y-80406762D01*
X180100500Y-80289361D01*
X180105682Y-80250000D01*
X180101560Y-80218697D01*
X180100500Y-80202513D01*
X180100500Y-78883063D01*
X180114333Y-78826149D01*
X180152744Y-78781934D01*
X180207165Y-78760281D01*
X180265454Y-78766021D01*
G37*
G04 #@! TD.AperFunction*
G04 #@! TA.AperFunction,Conductor*
G36*
X190655847Y-81899506D02*
G01*
X190701595Y-81950698D01*
X190713095Y-82018383D01*
X190710434Y-82042000D01*
X190713216Y-82066694D01*
X190703770Y-82129886D01*
X190664116Y-82179986D01*
X190604782Y-82203691D01*
X190493566Y-82217047D01*
X190469318Y-82221655D01*
X190446375Y-82217295D01*
X190446346Y-82217542D01*
X190350000Y-82205973D01*
X190350000Y-82223070D01*
X190337055Y-82278230D01*
X190300925Y-82321874D01*
X190247434Y-82362436D01*
X190243803Y-82367225D01*
X190200159Y-82403355D01*
X190145000Y-82416299D01*
X190089841Y-82403355D01*
X190046197Y-82367225D01*
X190042565Y-82362436D01*
X189989075Y-82321874D01*
X189952945Y-82278230D01*
X189940000Y-82223070D01*
X189940000Y-82205973D01*
X189843655Y-82217542D01*
X189843625Y-82217295D01*
X189820679Y-82221655D01*
X189796428Y-82217046D01*
X189691948Y-82204500D01*
X189691944Y-82204500D01*
X189298056Y-82204500D01*
X189298051Y-82204500D01*
X189209388Y-82215147D01*
X189185450Y-82224587D01*
X189125475Y-82232383D01*
X189068947Y-82210883D01*
X189029312Y-82165202D01*
X189015998Y-82106207D01*
X189032173Y-82047931D01*
X189073990Y-82004238D01*
X189096356Y-81990185D01*
X189159199Y-81950698D01*
X189236093Y-81902383D01*
X189236912Y-81903687D01*
X189257488Y-81889939D01*
X189304941Y-81880500D01*
X190589875Y-81880500D01*
X190655847Y-81899506D01*
G37*
G04 #@! TD.AperFunction*
G04 #@! TA.AperFunction,Conductor*
G36*
X192879745Y-78473284D02*
G01*
X192914305Y-78520572D01*
X192938501Y-78578987D01*
X192947302Y-78600233D01*
X193019549Y-78694386D01*
X193048876Y-78732606D01*
X193067919Y-78768234D01*
X193074500Y-78808093D01*
X193074500Y-79427059D01*
X193065061Y-79474512D01*
X193038181Y-79514740D01*
X192918185Y-79634735D01*
X192822212Y-79787476D01*
X192762631Y-79957748D01*
X192742434Y-80137000D01*
X192762631Y-80316251D01*
X192762631Y-80316253D01*
X192762632Y-80316255D01*
X192822211Y-80486522D01*
X192838385Y-80512262D01*
X192900111Y-80610500D01*
X192918184Y-80639262D01*
X193026741Y-80747819D01*
X193058834Y-80803405D01*
X193058834Y-80867591D01*
X193026741Y-80923179D01*
X192986260Y-80963661D01*
X192930673Y-80995756D01*
X192866485Y-80995756D01*
X192810897Y-80963662D01*
X192736199Y-80888964D01*
X192725503Y-80876768D01*
X192706281Y-80851716D01*
X192580840Y-80755463D01*
X192434762Y-80694956D01*
X192278000Y-80674317D01*
X192250163Y-80677982D01*
X192246697Y-80678439D01*
X192230513Y-80679500D01*
X189344094Y-80679500D01*
X189281093Y-80662303D01*
X189235566Y-80615481D01*
X189220143Y-80552022D01*
X189239099Y-80489530D01*
X189320789Y-80359522D01*
X189380368Y-80189255D01*
X189400565Y-80010000D01*
X189380368Y-79830745D01*
X189320789Y-79660478D01*
X189224816Y-79507738D01*
X189224815Y-79507737D01*
X189224814Y-79507735D01*
X189116860Y-79399781D01*
X189086610Y-79350418D01*
X189082068Y-79292702D01*
X189104223Y-79239215D01*
X189148246Y-79201615D01*
X189204541Y-79188100D01*
X190403103Y-79188100D01*
X190450556Y-79197539D01*
X190490784Y-79224419D01*
X190651399Y-79385034D01*
X190662094Y-79397229D01*
X190681317Y-79422281D01*
X190717108Y-79449744D01*
X190717109Y-79449746D01*
X190791965Y-79507184D01*
X190806759Y-79518536D01*
X190952838Y-79579044D01*
X191078298Y-79595561D01*
X191109599Y-79599682D01*
X191109599Y-79599681D01*
X191109600Y-79599682D01*
X191140902Y-79595560D01*
X191157087Y-79594500D01*
X191519313Y-79594500D01*
X191535497Y-79595560D01*
X191566800Y-79599682D01*
X191723562Y-79579044D01*
X191869641Y-79518536D01*
X191959291Y-79449745D01*
X191995082Y-79422282D01*
X192003822Y-79410890D01*
X192029499Y-79385921D01*
X192061240Y-79369334D01*
X192221122Y-79313389D01*
X192373862Y-79217416D01*
X192501416Y-79089862D01*
X192597389Y-78937122D01*
X192656968Y-78766855D01*
X192677165Y-78587600D01*
X192676524Y-78581910D01*
X192683896Y-78523806D01*
X192717116Y-78475567D01*
X192768770Y-78447956D01*
X192827336Y-78447134D01*
X192879745Y-78473284D01*
G37*
G04 #@! TD.AperFunction*
G04 #@! TA.AperFunction,Conductor*
G36*
X192823386Y-77731675D02*
G01*
X192860985Y-77775698D01*
X192874500Y-77831993D01*
X192874500Y-78300204D01*
X192855494Y-78366176D01*
X192804302Y-78411924D01*
X192736616Y-78423424D01*
X192673187Y-78397151D01*
X192633459Y-78341160D01*
X192597389Y-78238078D01*
X192501416Y-78085338D01*
X192501415Y-78085337D01*
X192501414Y-78085335D01*
X192499285Y-78083206D01*
X192467191Y-78027618D01*
X192467191Y-77963431D01*
X192499282Y-77907848D01*
X192662820Y-77744310D01*
X192712182Y-77714062D01*
X192769898Y-77709520D01*
X192823386Y-77731675D01*
G37*
G04 #@! TD.AperFunction*
G04 #@! TA.AperFunction,Conductor*
G36*
X185489011Y-48015015D02*
G01*
X185533597Y-48055160D01*
X185554117Y-48111539D01*
X185545767Y-48170951D01*
X185510501Y-48219490D01*
X185456577Y-48245790D01*
X185454239Y-48246286D01*
X185283804Y-48322168D01*
X185132875Y-48431824D01*
X185008041Y-48570466D01*
X184914761Y-48732032D01*
X184857112Y-48909460D01*
X184842500Y-49048488D01*
X184842500Y-49280000D01*
X186617500Y-49280000D01*
X186980000Y-49280000D01*
X187980000Y-49280000D01*
X187980000Y-48255000D01*
X188480000Y-48255000D01*
X188480000Y-49280000D01*
X189980000Y-49280000D01*
X189980000Y-48255000D01*
X190480000Y-48255000D01*
X190480000Y-49280000D01*
X191480000Y-49280000D01*
X191480000Y-48707176D01*
X191473597Y-48647624D01*
X191423352Y-48512910D01*
X191337188Y-48397811D01*
X191222089Y-48311647D01*
X191087375Y-48261402D01*
X191027824Y-48255000D01*
X190480000Y-48255000D01*
X189980000Y-48255000D01*
X189432176Y-48255000D01*
X189372622Y-48261402D01*
X189273333Y-48298435D01*
X189230000Y-48306253D01*
X189186667Y-48298435D01*
X189087377Y-48261402D01*
X189027824Y-48255000D01*
X188480000Y-48255000D01*
X187980000Y-48255000D01*
X187432176Y-48255000D01*
X187372624Y-48261402D01*
X187237910Y-48311647D01*
X187122811Y-48397811D01*
X187036647Y-48512910D01*
X186986402Y-48647624D01*
X186980000Y-48707176D01*
X186980000Y-49280000D01*
X186617500Y-49280000D01*
X186617500Y-49048488D01*
X186602887Y-48909460D01*
X186545238Y-48732032D01*
X186451960Y-48570469D01*
X186327123Y-48431825D01*
X186176193Y-48322167D01*
X186005761Y-48246286D01*
X186003423Y-48245790D01*
X185949499Y-48219490D01*
X185914233Y-48170951D01*
X185905883Y-48111539D01*
X185926403Y-48055160D01*
X185970989Y-48015015D01*
X186029204Y-48000500D01*
X192430796Y-48000500D01*
X192489011Y-48015015D01*
X192533597Y-48055160D01*
X192554117Y-48111539D01*
X192545767Y-48170951D01*
X192510501Y-48219490D01*
X192456577Y-48245790D01*
X192454239Y-48246286D01*
X192283804Y-48322168D01*
X192132875Y-48431824D01*
X192008041Y-48570466D01*
X191914761Y-48732032D01*
X191857112Y-48909460D01*
X191842500Y-49048488D01*
X191842500Y-49280000D01*
X192856000Y-49280000D01*
X192918000Y-49296613D01*
X192963387Y-49342000D01*
X192980000Y-49404000D01*
X192980000Y-49656000D01*
X192963387Y-49718000D01*
X192918000Y-49763387D01*
X192856000Y-49780000D01*
X191842500Y-49780000D01*
X191842500Y-50011513D01*
X191847863Y-50062539D01*
X191835992Y-50129858D01*
X191790252Y-50180658D01*
X191724542Y-50199500D01*
X191604000Y-50199500D01*
X191542000Y-50182887D01*
X191496613Y-50137500D01*
X191480000Y-50075500D01*
X191480000Y-49780000D01*
X186980000Y-49780000D01*
X186980000Y-50075500D01*
X186963387Y-50137500D01*
X186918000Y-50182887D01*
X186856000Y-50199500D01*
X186735458Y-50199500D01*
X186669748Y-50180658D01*
X186624008Y-50129858D01*
X186612137Y-50062539D01*
X186617500Y-50011513D01*
X186617500Y-49780000D01*
X184842500Y-49780000D01*
X184842500Y-50011512D01*
X184857112Y-50150539D01*
X184918789Y-50340362D01*
X184918389Y-50340491D01*
X184930190Y-50377904D01*
X184923202Y-50431102D01*
X184894395Y-50476367D01*
X184893514Y-50477249D01*
X184859616Y-50501323D01*
X184819667Y-50512838D01*
X184732748Y-50522631D01*
X184732745Y-50522631D01*
X184732745Y-50522632D01*
X184562478Y-50582211D01*
X184562476Y-50582211D01*
X184562476Y-50582212D01*
X184409735Y-50678185D01*
X184282185Y-50805735D01*
X184186212Y-50958476D01*
X184186211Y-50958478D01*
X184175246Y-50989815D01*
X184126631Y-51128748D01*
X184116837Y-51215669D01*
X184105337Y-51255586D01*
X184081298Y-51289465D01*
X181612582Y-53758181D01*
X181572354Y-53785061D01*
X181524901Y-53794500D01*
X180417130Y-53794500D01*
X180357515Y-53800909D01*
X180222669Y-53851204D01*
X180107454Y-53937454D01*
X180021204Y-54052668D01*
X179978521Y-54167106D01*
X179970909Y-54187517D01*
X179966000Y-54233181D01*
X179964500Y-54247131D01*
X179964500Y-54570500D01*
X179947887Y-54632500D01*
X179902500Y-54677887D01*
X179840500Y-54694500D01*
X179547097Y-54694500D01*
X179499644Y-54685061D01*
X179459416Y-54658181D01*
X179020199Y-54218964D01*
X179009503Y-54206768D01*
X178980343Y-54168765D01*
X178982504Y-54167106D01*
X178960865Y-54139325D01*
X178951368Y-54077609D01*
X178969886Y-54027865D01*
X178969450Y-54027662D01*
X178971988Y-54022218D01*
X178973153Y-54019090D01*
X178973422Y-54018704D01*
X178974035Y-54017830D01*
X179073903Y-53803663D01*
X179135063Y-53575408D01*
X179155659Y-53340000D01*
X179135063Y-53104592D01*
X179073903Y-52876337D01*
X178974035Y-52662171D01*
X178838495Y-52468599D01*
X178716569Y-52346673D01*
X178685273Y-52293927D01*
X178683084Y-52232634D01*
X178710537Y-52177789D01*
X178760916Y-52142810D01*
X178892331Y-52093796D01*
X179007546Y-52007546D01*
X179093796Y-51892331D01*
X179144091Y-51757483D01*
X179150500Y-51697873D01*
X179150499Y-49902128D01*
X179144091Y-49842517D01*
X179093796Y-49707669D01*
X179007546Y-49592454D01*
X178892331Y-49506204D01*
X178757483Y-49455909D01*
X178697873Y-49449500D01*
X178697869Y-49449500D01*
X176902130Y-49449500D01*
X176842515Y-49455909D01*
X176707669Y-49506204D01*
X176592454Y-49592454D01*
X176506204Y-49707668D01*
X176455909Y-49842516D01*
X176449500Y-49902130D01*
X176449500Y-51697869D01*
X176455909Y-51757484D01*
X176475594Y-51810262D01*
X176506204Y-51892331D01*
X176592454Y-52007546D01*
X176707669Y-52093796D01*
X176812177Y-52132775D01*
X176839082Y-52142810D01*
X176889462Y-52177789D01*
X176916915Y-52232634D01*
X176914726Y-52293926D01*
X176883431Y-52346673D01*
X176761503Y-52468601D01*
X176625965Y-52662170D01*
X176526097Y-52876336D01*
X176464936Y-53104592D01*
X176444340Y-53340000D01*
X176464936Y-53575407D01*
X176480149Y-53632182D01*
X176526097Y-53803663D01*
X176625965Y-54017830D01*
X176682412Y-54098445D01*
X176703527Y-54151594D01*
X176698542Y-54208570D01*
X176668517Y-54257247D01*
X176138965Y-54786798D01*
X176126774Y-54797490D01*
X176101721Y-54816715D01*
X176101719Y-54816716D01*
X176101718Y-54816718D01*
X176022114Y-54920460D01*
X176011748Y-54933968D01*
X176005462Y-54942161D01*
X175944956Y-55088237D01*
X175924317Y-55244999D01*
X175928439Y-55276301D01*
X175929500Y-55292487D01*
X175929500Y-68533902D01*
X175920061Y-68581355D01*
X175893181Y-68621583D01*
X175712181Y-68802583D01*
X175662818Y-68832833D01*
X175605102Y-68837375D01*
X175551615Y-68815220D01*
X175514015Y-68771197D01*
X175500500Y-68714902D01*
X175500500Y-48124500D01*
X175517113Y-48062500D01*
X175562500Y-48017113D01*
X175624500Y-48000500D01*
X185430796Y-48000500D01*
X185489011Y-48015015D01*
G37*
G04 #@! TD.AperFunction*
G04 #@! TA.AperFunction,Conductor*
G36*
X189493951Y-66715888D02*
G01*
X189581238Y-66752044D01*
X189636487Y-66759317D01*
X189698966Y-66786402D01*
X189737721Y-66842397D01*
X189741063Y-66910413D01*
X189707984Y-66969937D01*
X189616183Y-67061738D01*
X189552288Y-67163427D01*
X189503175Y-67208150D01*
X189438027Y-67221108D01*
X189375538Y-67198584D01*
X189333640Y-67147041D01*
X189324355Y-67081269D01*
X189326053Y-67068371D01*
X189327682Y-67056000D01*
X189323560Y-67024697D01*
X189322500Y-67008513D01*
X189322500Y-66830450D01*
X189337142Y-66771997D01*
X189377609Y-66727348D01*
X189434346Y-66707047D01*
X189493951Y-66715888D01*
G37*
G04 #@! TD.AperFunction*
G04 #@! TA.AperFunction,Conductor*
G36*
X193647197Y-63084014D02*
G01*
X193691220Y-63121614D01*
X193713375Y-63175101D01*
X193708833Y-63232817D01*
X193678583Y-63282180D01*
X193537965Y-63422798D01*
X193525773Y-63433491D01*
X193500717Y-63452717D01*
X193424344Y-63552251D01*
X193415295Y-63564044D01*
X193410554Y-63570223D01*
X193404462Y-63578161D01*
X193343956Y-63724237D01*
X193323317Y-63880999D01*
X193327439Y-63912301D01*
X193328500Y-63928487D01*
X193328500Y-66801000D01*
X193311887Y-66863000D01*
X193266500Y-66908387D01*
X193204500Y-66925000D01*
X193054000Y-66925000D01*
X192992000Y-66908387D01*
X192946613Y-66863000D01*
X192930000Y-66801000D01*
X192930000Y-63795001D01*
X192914819Y-63779820D01*
X192887939Y-63739592D01*
X192878500Y-63692139D01*
X192878500Y-63194500D01*
X192895113Y-63132500D01*
X192940500Y-63087113D01*
X193002500Y-63070500D01*
X193012874Y-63070499D01*
X193590903Y-63070499D01*
X193647197Y-63084014D01*
G37*
G04 #@! TD.AperFunction*
G04 #@! TA.AperFunction,Conductor*
G36*
X185878584Y-62949817D02*
G01*
X185929051Y-62988900D01*
X185953390Y-63047908D01*
X185957014Y-63075434D01*
X185957014Y-63075435D01*
X185964956Y-63135762D01*
X186025463Y-63281840D01*
X186121716Y-63407281D01*
X186146768Y-63426503D01*
X186158964Y-63437199D01*
X188203584Y-65481819D01*
X188233834Y-65531182D01*
X188238376Y-65588898D01*
X188216221Y-65642385D01*
X188172198Y-65679985D01*
X188115903Y-65693500D01*
X188007487Y-65693500D01*
X187991302Y-65692439D01*
X187987376Y-65691922D01*
X187959999Y-65688317D01*
X187924741Y-65692959D01*
X187920639Y-65693500D01*
X187803237Y-65708956D01*
X187657161Y-65769462D01*
X187630999Y-65789537D01*
X187531718Y-65865718D01*
X187531716Y-65865719D01*
X187531715Y-65865721D01*
X187512490Y-65890774D01*
X187501798Y-65902965D01*
X187444246Y-65960517D01*
X187392227Y-65991597D01*
X187331691Y-65994316D01*
X187277096Y-65968023D01*
X187241478Y-65918999D01*
X187233345Y-65858951D01*
X187241565Y-65785998D01*
X187231023Y-65692439D01*
X187221368Y-65606745D01*
X187161789Y-65436478D01*
X187065816Y-65283738D01*
X187065815Y-65283737D01*
X187065814Y-65283735D01*
X186938264Y-65156185D01*
X186798467Y-65068345D01*
X186785522Y-65060211D01*
X186615255Y-65000632D01*
X186615253Y-65000631D01*
X186615251Y-65000631D01*
X186436000Y-64980434D01*
X186256745Y-65000631D01*
X186232226Y-65009211D01*
X186177389Y-65015389D01*
X186125301Y-64997163D01*
X186118499Y-64992889D01*
X186023522Y-64933211D01*
X185853255Y-64873632D01*
X185853253Y-64873631D01*
X185853251Y-64873631D01*
X185674000Y-64853434D01*
X185494748Y-64873631D01*
X185324474Y-64933212D01*
X185295470Y-64951437D01*
X185229500Y-64970442D01*
X185163530Y-64951437D01*
X185134525Y-64933212D01*
X185047435Y-64902738D01*
X184964255Y-64873632D01*
X184964253Y-64873631D01*
X184964251Y-64873631D01*
X184785000Y-64853434D01*
X184605748Y-64873631D01*
X184605745Y-64873631D01*
X184605745Y-64873632D01*
X184435478Y-64933211D01*
X184435476Y-64933211D01*
X184435476Y-64933212D01*
X184282738Y-65029183D01*
X184196230Y-65115691D01*
X184142876Y-65147163D01*
X184080956Y-65148900D01*
X184025921Y-65120468D01*
X183991507Y-65068962D01*
X183986789Y-65055478D01*
X183890814Y-64902735D01*
X183763264Y-64775185D01*
X183700867Y-64735979D01*
X183610522Y-64679211D01*
X183440255Y-64619632D01*
X183440253Y-64619631D01*
X183440251Y-64619631D01*
X183260999Y-64599434D01*
X183237383Y-64602095D01*
X183169698Y-64590595D01*
X183118506Y-64544847D01*
X183099500Y-64478875D01*
X183099500Y-63955941D01*
X183108939Y-63908488D01*
X183122687Y-63887911D01*
X183121383Y-63887092D01*
X183139664Y-63857997D01*
X183224789Y-63722522D01*
X183284368Y-63552255D01*
X183304565Y-63373000D01*
X183288834Y-63233382D01*
X183300334Y-63165698D01*
X183346082Y-63114505D01*
X183412054Y-63095499D01*
X185462870Y-63095499D01*
X185462872Y-63095499D01*
X185522483Y-63089091D01*
X185657331Y-63038796D01*
X185756141Y-62964826D01*
X185815363Y-62941015D01*
X185878584Y-62949817D01*
G37*
G04 #@! TD.AperFunction*
G04 #@! TA.AperFunction,Conductor*
G36*
X202931795Y-61454296D02*
G01*
X202981227Y-61499991D01*
X202999500Y-61564781D01*
X202999500Y-65689219D01*
X202981227Y-65754009D01*
X202931795Y-65799704D01*
X202865771Y-65812837D01*
X202802614Y-65789537D01*
X202760939Y-65736671D01*
X202708536Y-65610159D01*
X202695346Y-65592969D01*
X202695345Y-65592968D01*
X202612282Y-65484717D01*
X202587229Y-65465494D01*
X202575034Y-65454799D01*
X201682746Y-64562511D01*
X201650652Y-64506923D01*
X201650653Y-64442735D01*
X201682746Y-64387148D01*
X201698495Y-64371401D01*
X201834035Y-64177830D01*
X201933903Y-63963663D01*
X201995063Y-63735408D01*
X202015659Y-63500000D01*
X201995063Y-63264592D01*
X201933903Y-63036337D01*
X201834035Y-62822171D01*
X201777588Y-62741555D01*
X201756472Y-62688403D01*
X201761457Y-62631428D01*
X201791480Y-62582753D01*
X202575043Y-61799190D01*
X202587223Y-61788509D01*
X202612282Y-61769282D01*
X202708536Y-61643841D01*
X202760939Y-61517328D01*
X202802614Y-61464463D01*
X202865771Y-61441163D01*
X202931795Y-61454296D01*
G37*
G04 #@! TD.AperFunction*
G04 #@! TA.AperFunction,Conductor*
G36*
X190193000Y-61107113D02*
G01*
X190238387Y-61152500D01*
X190255000Y-61214500D01*
X190255000Y-61345000D01*
X190954999Y-61345000D01*
X190954999Y-61296685D01*
X190947891Y-61227101D01*
X190959905Y-61159925D01*
X191005642Y-61109278D01*
X191071249Y-61090500D01*
X191087513Y-61090500D01*
X191103697Y-61091560D01*
X191135000Y-61095682D01*
X191166302Y-61091560D01*
X191182487Y-61090500D01*
X191361903Y-61090500D01*
X191427875Y-61109506D01*
X191473623Y-61160698D01*
X191485123Y-61228383D01*
X191472434Y-61340999D01*
X191492631Y-61520251D01*
X191492631Y-61520253D01*
X191492632Y-61520255D01*
X191552211Y-61690522D01*
X191552212Y-61690523D01*
X191655617Y-61855092D01*
X191654312Y-61855911D01*
X191668061Y-61876488D01*
X191677500Y-61923941D01*
X191677500Y-63670500D01*
X191660887Y-63732500D01*
X191615500Y-63777887D01*
X191553501Y-63794500D01*
X191356655Y-63794500D01*
X191257292Y-63804650D01*
X191096300Y-63857997D01*
X190951955Y-63947031D01*
X190832031Y-64066955D01*
X190742997Y-64211300D01*
X190689650Y-64372292D01*
X190679500Y-64471655D01*
X190679500Y-65068344D01*
X190689650Y-65167706D01*
X190701196Y-65202550D01*
X190706527Y-65256972D01*
X190687931Y-65308395D01*
X190649024Y-65346819D01*
X190597373Y-65364772D01*
X190447749Y-65381631D01*
X190447746Y-65381631D01*
X190447745Y-65381632D01*
X190277478Y-65441211D01*
X190277476Y-65441211D01*
X190277476Y-65441212D01*
X190112908Y-65544617D01*
X190112088Y-65543312D01*
X190091512Y-65557061D01*
X190044059Y-65566500D01*
X190038097Y-65566500D01*
X189990644Y-65557061D01*
X189950416Y-65530181D01*
X187552150Y-63131915D01*
X187522789Y-63085189D01*
X187516611Y-63030350D01*
X187534837Y-62978262D01*
X187573858Y-62939240D01*
X187700262Y-62859816D01*
X187700261Y-62859816D01*
X187712092Y-62852383D01*
X187713491Y-62854610D01*
X187740087Y-62838066D01*
X187796144Y-62832541D01*
X187820000Y-62835682D01*
X187976762Y-62815044D01*
X188122841Y-62754536D01*
X188151869Y-62732262D01*
X188248282Y-62658282D01*
X188267509Y-62633223D01*
X188278193Y-62621040D01*
X188292418Y-62606815D01*
X188332646Y-62579937D01*
X188380097Y-62570499D01*
X188728345Y-62570499D01*
X188778026Y-62565423D01*
X188827708Y-62560349D01*
X188988697Y-62507003D01*
X189133044Y-62417968D01*
X189142672Y-62408339D01*
X189198258Y-62376245D01*
X189262448Y-62376245D01*
X189318036Y-62408341D01*
X189327269Y-62417574D01*
X189471513Y-62506546D01*
X189632393Y-62559856D01*
X189731685Y-62570000D01*
X189755000Y-62570000D01*
X189755000Y-61845000D01*
X190255000Y-61845000D01*
X190255000Y-62569999D01*
X190278315Y-62569999D01*
X190377605Y-62559856D01*
X190538486Y-62506546D01*
X190682732Y-62417573D01*
X190802573Y-62297732D01*
X190891546Y-62153486D01*
X190944856Y-61992606D01*
X190955000Y-61893315D01*
X190955000Y-61845000D01*
X190255000Y-61845000D01*
X189755000Y-61845000D01*
X189755000Y-61214500D01*
X189771613Y-61152500D01*
X189817000Y-61107113D01*
X189879000Y-61090500D01*
X190131000Y-61090500D01*
X190193000Y-61107113D01*
G37*
G04 #@! TD.AperFunction*
G04 #@! TA.AperFunction,Conductor*
G36*
X185551941Y-51900939D02*
G01*
X185607916Y-51941679D01*
X185637579Y-51980000D01*
X187755500Y-51980000D01*
X187817500Y-51996613D01*
X187862887Y-52042000D01*
X187879500Y-52104000D01*
X187879500Y-52356000D01*
X187862887Y-52418000D01*
X187817500Y-52463387D01*
X187755500Y-52480000D01*
X186980000Y-52480000D01*
X186980000Y-53199858D01*
X187077278Y-53189966D01*
X187204200Y-53150144D01*
X187254529Y-53145162D01*
X187302661Y-53160691D01*
X187340589Y-53194146D01*
X187372810Y-53237188D01*
X187487910Y-53323352D01*
X187622624Y-53373597D01*
X187682176Y-53380000D01*
X187730000Y-53380000D01*
X187730000Y-53219434D01*
X187745168Y-53160007D01*
X187786961Y-53115119D01*
X187845154Y-53095750D01*
X187905511Y-53106640D01*
X187953264Y-53145121D01*
X188022186Y-53237188D01*
X188022454Y-53237546D01*
X188080311Y-53280858D01*
X188116884Y-53324621D01*
X188129961Y-53379961D01*
X188130000Y-53380000D01*
X188177823Y-53380000D01*
X188239398Y-53373380D01*
X188265908Y-53373381D01*
X188306715Y-53377767D01*
X188332127Y-53380500D01*
X188827872Y-53380499D01*
X188887483Y-53374091D01*
X188887483Y-53374090D01*
X188891751Y-53373632D01*
X188918261Y-53373633D01*
X188922515Y-53374090D01*
X188922517Y-53374091D01*
X188982127Y-53380500D01*
X189170903Y-53380499D01*
X189227196Y-53394014D01*
X189271220Y-53431613D01*
X189293375Y-53485101D01*
X189288833Y-53542817D01*
X189258583Y-53592180D01*
X188617582Y-54233181D01*
X188577354Y-54260061D01*
X188529901Y-54269500D01*
X188181655Y-54269500D01*
X188082292Y-54279650D01*
X187921300Y-54332997D01*
X187776955Y-54422031D01*
X187657031Y-54541955D01*
X187567997Y-54686300D01*
X187514650Y-54847292D01*
X187504500Y-54946655D01*
X187504500Y-55543344D01*
X187514650Y-55642707D01*
X187567997Y-55803699D01*
X187657031Y-55948044D01*
X187776954Y-56067967D01*
X187815853Y-56091960D01*
X187859034Y-56137066D01*
X187874757Y-56197497D01*
X187859036Y-56257929D01*
X187815856Y-56303036D01*
X187776956Y-56327030D01*
X187657031Y-56446955D01*
X187567997Y-56591300D01*
X187514650Y-56752292D01*
X187504500Y-56851655D01*
X187504500Y-57448344D01*
X187514650Y-57547707D01*
X187567997Y-57708699D01*
X187657031Y-57853044D01*
X187776955Y-57972968D01*
X187795597Y-57984467D01*
X187838778Y-58029574D01*
X187854500Y-58090005D01*
X187854500Y-58749995D01*
X187838778Y-58810426D01*
X187795597Y-58855533D01*
X187776955Y-58867031D01*
X187657031Y-58986955D01*
X187567997Y-59131300D01*
X187514650Y-59292292D01*
X187504500Y-59391655D01*
X187504500Y-59739902D01*
X187495061Y-59787355D01*
X187468181Y-59827583D01*
X186337584Y-60958181D01*
X186297356Y-60985061D01*
X186249903Y-60994500D01*
X186039499Y-60994500D01*
X185977499Y-60977887D01*
X185932112Y-60932500D01*
X185915499Y-60870500D01*
X185915499Y-60547130D01*
X185913754Y-60530895D01*
X185909091Y-60487517D01*
X185858796Y-60352669D01*
X185772546Y-60237454D01*
X185657331Y-60151204D01*
X185522483Y-60100909D01*
X185462873Y-60094500D01*
X185462869Y-60094500D01*
X184239500Y-60094500D01*
X184177500Y-60077887D01*
X184132113Y-60032500D01*
X184115500Y-59970500D01*
X184115500Y-56919499D01*
X184132113Y-56857499D01*
X184177500Y-56812112D01*
X184239500Y-56795499D01*
X184312870Y-56795499D01*
X184312872Y-56795499D01*
X184372483Y-56789091D01*
X184507331Y-56738796D01*
X184591109Y-56676079D01*
X184639057Y-56654182D01*
X184691774Y-56654182D01*
X184739727Y-56676081D01*
X184822911Y-56738352D01*
X184957624Y-56788597D01*
X185017176Y-56795000D01*
X185565000Y-56795000D01*
X185565000Y-55545000D01*
X186065000Y-55545000D01*
X186065000Y-56795000D01*
X186612824Y-56795000D01*
X186672375Y-56788597D01*
X186807089Y-56738352D01*
X186922188Y-56652188D01*
X187008352Y-56537089D01*
X187058597Y-56402375D01*
X187065000Y-56342824D01*
X187065000Y-55545000D01*
X186065000Y-55545000D01*
X185565000Y-55545000D01*
X185565000Y-53795000D01*
X186065000Y-53795000D01*
X186065000Y-55045000D01*
X187065000Y-55045000D01*
X187065000Y-54247176D01*
X187058597Y-54187624D01*
X187008352Y-54052910D01*
X186922188Y-53937811D01*
X186807089Y-53851647D01*
X186672375Y-53801402D01*
X186612824Y-53795000D01*
X186065000Y-53795000D01*
X185565000Y-53795000D01*
X185017176Y-53795000D01*
X184957624Y-53801402D01*
X184822908Y-53851648D01*
X184739726Y-53913918D01*
X184691774Y-53935817D01*
X184639057Y-53935817D01*
X184591107Y-53913919D01*
X184507331Y-53851204D01*
X184372483Y-53800909D01*
X184312873Y-53794500D01*
X184312869Y-53794500D01*
X183574096Y-53794500D01*
X183517801Y-53780985D01*
X183473778Y-53743385D01*
X183451623Y-53689898D01*
X183456165Y-53632182D01*
X183486415Y-53582819D01*
X184192898Y-52876336D01*
X184589233Y-52480000D01*
X185632869Y-52480000D01*
X185700123Y-52661595D01*
X185805019Y-52829883D01*
X185941635Y-52973602D01*
X186104389Y-53086883D01*
X186286614Y-53165081D01*
X186480000Y-53204824D01*
X186480000Y-52480000D01*
X185632869Y-52480000D01*
X184589233Y-52480000D01*
X184930536Y-52138697D01*
X184964413Y-52114661D01*
X185004330Y-52103161D01*
X185091255Y-52093368D01*
X185261522Y-52033789D01*
X185414262Y-51937816D01*
X185422178Y-51929899D01*
X185482849Y-51896558D01*
X185551941Y-51900939D01*
G37*
G04 #@! TD.AperFunction*
G04 #@! TA.AperFunction,Conductor*
G36*
X179902501Y-55912113D02*
G01*
X179947888Y-55957500D01*
X179964501Y-56019500D01*
X179964501Y-56342872D01*
X179970909Y-56402483D01*
X180021204Y-56537331D01*
X180107454Y-56652546D01*
X180222669Y-56738796D01*
X180357517Y-56789091D01*
X180417127Y-56795500D01*
X182012872Y-56795499D01*
X182072483Y-56789091D01*
X182207331Y-56738796D01*
X182290689Y-56676393D01*
X182338642Y-56654494D01*
X182391358Y-56654494D01*
X182439310Y-56676393D01*
X182522669Y-56738796D01*
X182657517Y-56789091D01*
X182717127Y-56795500D01*
X182790500Y-56795500D01*
X182852500Y-56812113D01*
X182897887Y-56857500D01*
X182914500Y-56919500D01*
X182914500Y-59970501D01*
X182897887Y-60032501D01*
X182852500Y-60077888D01*
X182790500Y-60094501D01*
X181567128Y-60094501D01*
X181537322Y-60097705D01*
X181507515Y-60100909D01*
X181372669Y-60151204D01*
X181257453Y-60237454D01*
X181177832Y-60343815D01*
X181146379Y-60367459D01*
X181148316Y-60372344D01*
X181141587Y-60432072D01*
X181120909Y-60487512D01*
X181114500Y-60547131D01*
X181114500Y-60582838D01*
X181100667Y-60639752D01*
X181062255Y-60683968D01*
X181007834Y-60705620D01*
X180949547Y-60699880D01*
X180900255Y-60682632D01*
X180900253Y-60682631D01*
X180900251Y-60682631D01*
X180892066Y-60681709D01*
X180828637Y-60655435D01*
X180788909Y-60599442D01*
X180785060Y-60530895D01*
X180818269Y-60470808D01*
X180842816Y-60446262D01*
X180920413Y-60322766D01*
X180958460Y-60286239D01*
X180961524Y-60228549D01*
X180998368Y-60123255D01*
X181018565Y-59944000D01*
X181012424Y-59889500D01*
X180998368Y-59764745D01*
X180938789Y-59594478D01*
X180842816Y-59441738D01*
X180842815Y-59441737D01*
X180842814Y-59441735D01*
X180715264Y-59314185D01*
X180598636Y-59240903D01*
X180562522Y-59218211D01*
X180392255Y-59158632D01*
X180392253Y-59158631D01*
X180392251Y-59158631D01*
X180305330Y-59148837D01*
X180265413Y-59137337D01*
X180231534Y-59113298D01*
X179147199Y-58028964D01*
X179136503Y-58016768D01*
X179117281Y-57991716D01*
X179099496Y-57978070D01*
X179062601Y-57932100D01*
X178974035Y-57742171D01*
X178838495Y-57548599D01*
X178671401Y-57381505D01*
X178485839Y-57251573D01*
X178446975Y-57207257D01*
X178432964Y-57150000D01*
X178446975Y-57092743D01*
X178485839Y-57048426D01*
X178671401Y-56918495D01*
X178838495Y-56751401D01*
X178974035Y-56557830D01*
X179073903Y-56343663D01*
X179135063Y-56115408D01*
X179144089Y-56012230D01*
X179161144Y-55959481D01*
X179199480Y-55919436D01*
X179251432Y-55900098D01*
X179268706Y-55897824D01*
X179278303Y-55896561D01*
X179294487Y-55895500D01*
X179840501Y-55895500D01*
X179902501Y-55912113D01*
G37*
G04 #@! TD.AperFunction*
G04 #@! TA.AperFunction,Conductor*
G36*
X192458777Y-56789505D02*
G01*
X192504526Y-56840698D01*
X192516025Y-56908384D01*
X192504837Y-57007669D01*
X192493337Y-57047586D01*
X192469298Y-57081465D01*
X191378965Y-58171798D01*
X191366773Y-58182491D01*
X191341718Y-58201717D01*
X191317550Y-58233215D01*
X191317548Y-58233216D01*
X191245463Y-58327159D01*
X191184956Y-58473237D01*
X191164317Y-58629999D01*
X191168439Y-58661301D01*
X191169500Y-58677487D01*
X191169500Y-59201900D01*
X191150274Y-59268221D01*
X191098558Y-59313975D01*
X191030388Y-59324976D01*
X190966905Y-59297810D01*
X190927794Y-59240903D01*
X190891546Y-59131514D01*
X190802573Y-58987267D01*
X190682732Y-58867426D01*
X190538486Y-58778453D01*
X190377606Y-58725143D01*
X190278315Y-58715000D01*
X190255000Y-58715000D01*
X190255000Y-59765500D01*
X190238387Y-59827500D01*
X190193000Y-59872887D01*
X190131000Y-59889500D01*
X189879000Y-59889500D01*
X189817000Y-59872887D01*
X189771613Y-59827500D01*
X189755000Y-59765500D01*
X189755000Y-58715001D01*
X189731685Y-58715001D01*
X189632394Y-58725143D01*
X189471513Y-58778453D01*
X189327266Y-58867426D01*
X189318032Y-58876661D01*
X189262445Y-58908753D01*
X189198258Y-58908753D01*
X189142672Y-58876659D01*
X189133044Y-58867031D01*
X189114403Y-58855533D01*
X189071222Y-58810426D01*
X189055500Y-58749995D01*
X189055500Y-58090004D01*
X189071222Y-58029573D01*
X189114403Y-57984466D01*
X189114762Y-57984244D01*
X189133044Y-57972968D01*
X189142672Y-57963339D01*
X189198258Y-57931245D01*
X189262448Y-57931245D01*
X189318036Y-57963341D01*
X189327269Y-57972574D01*
X189471513Y-58061546D01*
X189632393Y-58114856D01*
X189731685Y-58125000D01*
X189755000Y-58125000D01*
X189755000Y-57400000D01*
X190255000Y-57400000D01*
X190255000Y-58124999D01*
X190278315Y-58124999D01*
X190377605Y-58114856D01*
X190538486Y-58061546D01*
X190682732Y-57972573D01*
X190802573Y-57852732D01*
X190891546Y-57708486D01*
X190944856Y-57547606D01*
X190955000Y-57448315D01*
X190955000Y-57400000D01*
X190255000Y-57400000D01*
X189755000Y-57400000D01*
X189755000Y-57074500D01*
X189771613Y-57012500D01*
X189817000Y-56967113D01*
X189879000Y-56950500D01*
X191517513Y-56950500D01*
X191533697Y-56951560D01*
X191565000Y-56955682D01*
X191721762Y-56935044D01*
X191867841Y-56874536D01*
X191897660Y-56851655D01*
X191903518Y-56847160D01*
X191903519Y-56847159D01*
X191970031Y-56796123D01*
X192005659Y-56777080D01*
X192045517Y-56770499D01*
X192392805Y-56770499D01*
X192458777Y-56789505D01*
G37*
G04 #@! TD.AperFunction*
G04 #@! TA.AperFunction,Conductor*
G36*
X193682500Y-51417113D02*
G01*
X193727887Y-51462500D01*
X193744500Y-51524500D01*
X193744500Y-52030848D01*
X193754912Y-52132775D01*
X193809637Y-52297923D01*
X193900975Y-52446005D01*
X194023994Y-52569024D01*
X194023996Y-52569025D01*
X194023997Y-52569026D01*
X194172075Y-52660362D01*
X194254650Y-52687724D01*
X194337224Y-52715087D01*
X194439152Y-52725500D01*
X195450848Y-52725500D01*
X195552775Y-52715087D01*
X195552774Y-52715087D01*
X195717925Y-52660362D01*
X195866003Y-52569026D01*
X195989026Y-52446003D01*
X196019311Y-52396902D01*
X196064418Y-52353723D01*
X196124850Y-52338000D01*
X196680980Y-52338000D01*
X196728433Y-52347439D01*
X196768661Y-52374319D01*
X196774813Y-52380471D01*
X196774815Y-52380472D01*
X196920394Y-52468478D01*
X197082804Y-52519086D01*
X197129857Y-52523362D01*
X197153383Y-52525500D01*
X197153384Y-52525500D01*
X197816616Y-52525500D01*
X197816617Y-52525500D01*
X197834260Y-52523896D01*
X197887196Y-52519086D01*
X198049606Y-52468478D01*
X198195185Y-52380472D01*
X198237657Y-52338000D01*
X198323819Y-52251839D01*
X198373182Y-52221589D01*
X198430898Y-52217047D01*
X198484385Y-52239202D01*
X198521985Y-52283225D01*
X198535500Y-52339520D01*
X198535500Y-53800513D01*
X198534438Y-53816705D01*
X198534222Y-53818345D01*
X198509881Y-53877350D01*
X198459414Y-53916431D01*
X198396195Y-53925232D01*
X198336973Y-53901420D01*
X198237089Y-53826647D01*
X198102375Y-53776402D01*
X198042824Y-53770000D01*
X197495000Y-53770000D01*
X197495000Y-55020000D01*
X198495000Y-55020000D01*
X198495000Y-54364355D01*
X198510028Y-54305185D01*
X198551470Y-54260356D01*
X198609281Y-54240737D01*
X198669447Y-54251081D01*
X198692517Y-54269272D01*
X198694765Y-54266343D01*
X198732768Y-54295503D01*
X198744964Y-54306199D01*
X199439799Y-55001034D01*
X199450494Y-55013229D01*
X199479656Y-55051234D01*
X199477494Y-55052892D01*
X199499128Y-55080659D01*
X199508633Y-55142376D01*
X199490114Y-55192138D01*
X199490549Y-55192341D01*
X199488024Y-55197753D01*
X199486854Y-55200900D01*
X199485966Y-55202167D01*
X199483290Y-55207907D01*
X199437533Y-55260081D01*
X199370909Y-55279500D01*
X199310487Y-55279500D01*
X199294302Y-55278439D01*
X199290376Y-55277922D01*
X199262999Y-55274317D01*
X199227741Y-55278959D01*
X199223639Y-55279500D01*
X199106237Y-55294956D01*
X198960161Y-55355462D01*
X198909982Y-55393965D01*
X198834718Y-55451718D01*
X198834716Y-55451719D01*
X198834715Y-55451721D01*
X198815490Y-55476774D01*
X198804798Y-55488965D01*
X198706679Y-55587084D01*
X198657319Y-55617333D01*
X198599603Y-55621875D01*
X198546115Y-55599720D01*
X198508515Y-55555697D01*
X198501507Y-55526507D01*
X198495000Y-55520000D01*
X197495000Y-55520000D01*
X197495000Y-56743614D01*
X197482213Y-56798457D01*
X197446488Y-56841988D01*
X197437721Y-56848715D01*
X197437719Y-56848716D01*
X197437718Y-56848718D01*
X197359618Y-56950500D01*
X197355642Y-56955682D01*
X197341462Y-56974161D01*
X197280956Y-57120237D01*
X197260317Y-57276999D01*
X197264439Y-57308301D01*
X197265500Y-57324487D01*
X197265500Y-59361905D01*
X197246081Y-59428530D01*
X197193905Y-59474287D01*
X197125315Y-59484844D01*
X197016361Y-59470500D01*
X197011780Y-59469897D01*
X196977000Y-59465317D01*
X196949163Y-59468982D01*
X196945697Y-59469439D01*
X196929513Y-59470500D01*
X194610098Y-59470500D01*
X194562645Y-59461061D01*
X194522417Y-59434181D01*
X194260199Y-59171964D01*
X194249503Y-59159768D01*
X194248631Y-59158632D01*
X194232292Y-59137337D01*
X194230281Y-59134716D01*
X194104840Y-59038463D01*
X193958762Y-58977956D01*
X193841361Y-58962500D01*
X193836780Y-58961897D01*
X193802000Y-58957317D01*
X193774163Y-58960982D01*
X193770697Y-58961439D01*
X193754513Y-58962500D01*
X193368941Y-58962500D01*
X193321488Y-58953061D01*
X193300911Y-58939312D01*
X193300092Y-58940617D01*
X193164681Y-58855533D01*
X193135522Y-58837211D01*
X192965255Y-58777632D01*
X192965253Y-58777631D01*
X192965251Y-58777631D01*
X192777459Y-58756472D01*
X192714030Y-58730199D01*
X192674301Y-58674207D01*
X192670452Y-58605659D01*
X192703660Y-58545573D01*
X193318536Y-57930697D01*
X193352413Y-57906661D01*
X193392330Y-57895161D01*
X193479255Y-57885368D01*
X193649522Y-57825789D01*
X193802262Y-57729816D01*
X193929816Y-57602262D01*
X194025789Y-57449522D01*
X194085368Y-57279255D01*
X194095161Y-57192330D01*
X194106661Y-57152413D01*
X194130697Y-57118536D01*
X194442415Y-56806818D01*
X194482644Y-56779938D01*
X194530097Y-56770499D01*
X195742870Y-56770499D01*
X195742872Y-56770499D01*
X195802483Y-56764091D01*
X195937331Y-56713796D01*
X196021109Y-56651079D01*
X196069057Y-56629182D01*
X196121774Y-56629182D01*
X196169727Y-56651081D01*
X196252911Y-56713352D01*
X196387624Y-56763597D01*
X196447176Y-56770000D01*
X196995000Y-56770000D01*
X196995000Y-53770000D01*
X196447176Y-53770000D01*
X196387624Y-53776402D01*
X196252908Y-53826648D01*
X196169726Y-53888918D01*
X196121774Y-53910817D01*
X196069057Y-53910817D01*
X196021107Y-53888919D01*
X195937331Y-53826204D01*
X195802483Y-53775909D01*
X195742873Y-53769500D01*
X195742869Y-53769500D01*
X194147130Y-53769500D01*
X194087515Y-53775909D01*
X193952669Y-53826204D01*
X193869311Y-53888606D01*
X193821358Y-53910505D01*
X193768642Y-53910505D01*
X193720689Y-53888606D01*
X193637331Y-53826204D01*
X193502483Y-53775909D01*
X193442873Y-53769500D01*
X193442869Y-53769500D01*
X191847130Y-53769500D01*
X191787515Y-53775909D01*
X191652669Y-53826204D01*
X191537454Y-53912454D01*
X191451204Y-54027668D01*
X191405263Y-54150841D01*
X191400909Y-54162517D01*
X191395459Y-54213215D01*
X191394500Y-54222131D01*
X191394500Y-55619901D01*
X191385063Y-55667349D01*
X191358189Y-55707574D01*
X191352591Y-55713173D01*
X191312360Y-55740059D01*
X191264902Y-55749500D01*
X191071249Y-55749500D01*
X191005641Y-55730722D01*
X190959904Y-55680074D01*
X190947891Y-55612897D01*
X190955000Y-55543314D01*
X190955000Y-55495000D01*
X190255000Y-55495000D01*
X190255000Y-55625500D01*
X190238387Y-55687500D01*
X190193000Y-55732887D01*
X190131000Y-55749500D01*
X189879000Y-55749500D01*
X189817000Y-55732887D01*
X189771613Y-55687500D01*
X189755000Y-55625500D01*
X189755000Y-55119000D01*
X189771613Y-55057000D01*
X189817000Y-55011613D01*
X189879000Y-54995000D01*
X190954999Y-54995000D01*
X190954999Y-54946685D01*
X190944856Y-54847394D01*
X190891546Y-54686513D01*
X190802573Y-54542267D01*
X190682732Y-54422426D01*
X190538486Y-54333453D01*
X190486928Y-54316369D01*
X190434509Y-54282436D01*
X190405274Y-54227259D01*
X190406637Y-54164831D01*
X190438249Y-54110984D01*
X190921043Y-53628190D01*
X190933223Y-53617509D01*
X190958282Y-53598282D01*
X191054536Y-53472841D01*
X191115044Y-53326762D01*
X191122994Y-53266370D01*
X191143049Y-53213341D01*
X191184618Y-53174779D01*
X191239007Y-53158753D01*
X191273782Y-53164893D01*
X191274265Y-53162544D01*
X191480000Y-53204824D01*
X191480000Y-52480000D01*
X191980000Y-52480000D01*
X191980000Y-53199858D01*
X192077278Y-53189966D01*
X192266480Y-53130603D01*
X192439859Y-53034371D01*
X192590317Y-52905207D01*
X192711693Y-52748402D01*
X192799022Y-52570369D01*
X192822420Y-52480000D01*
X191980000Y-52480000D01*
X191480000Y-52480000D01*
X191480000Y-52104000D01*
X191496613Y-52042000D01*
X191542000Y-51996613D01*
X191604000Y-51980000D01*
X192827130Y-51980000D01*
X192827130Y-51979999D01*
X192759876Y-51798404D01*
X192654980Y-51630117D01*
X192635794Y-51609933D01*
X192606984Y-51560421D01*
X192603503Y-51503243D01*
X192626092Y-51450602D01*
X192669933Y-51413731D01*
X192725667Y-51400500D01*
X193620500Y-51400500D01*
X193682500Y-51417113D01*
G37*
G04 #@! TD.AperFunction*
G04 #@! TA.AperFunction,Conductor*
G36*
X202937500Y-48017113D02*
G01*
X202982887Y-48062500D01*
X202999500Y-48124500D01*
X202999500Y-54640219D01*
X202981227Y-54705009D01*
X202931795Y-54750704D01*
X202865771Y-54763837D01*
X202802614Y-54740537D01*
X202760939Y-54687671D01*
X202708536Y-54561159D01*
X202631502Y-54460766D01*
X202612282Y-54435718D01*
X202587233Y-54416497D01*
X202575038Y-54405802D01*
X202285565Y-54116329D01*
X201992765Y-53823530D01*
X201960672Y-53767943D01*
X201960672Y-53703756D01*
X201979850Y-53632182D01*
X201995063Y-53575408D01*
X202015659Y-53340000D01*
X201995063Y-53104592D01*
X201933903Y-52876337D01*
X201834035Y-52662171D01*
X201698495Y-52468599D01*
X201576569Y-52346673D01*
X201545273Y-52293927D01*
X201543084Y-52232634D01*
X201570537Y-52177789D01*
X201620916Y-52142810D01*
X201752331Y-52093796D01*
X201867546Y-52007546D01*
X201953796Y-51892331D01*
X202004091Y-51757483D01*
X202010500Y-51697873D01*
X202010499Y-49902128D01*
X202004091Y-49842517D01*
X201953796Y-49707669D01*
X201867546Y-49592454D01*
X201752331Y-49506204D01*
X201617483Y-49455909D01*
X201557873Y-49449500D01*
X201557869Y-49449500D01*
X199762130Y-49449500D01*
X199702515Y-49455909D01*
X199567669Y-49506204D01*
X199452454Y-49592454D01*
X199366204Y-49707668D01*
X199315909Y-49842516D01*
X199309500Y-49902131D01*
X199309500Y-50741902D01*
X199300061Y-50789355D01*
X199273181Y-50829583D01*
X198744965Y-51357798D01*
X198732773Y-51368491D01*
X198707718Y-51387717D01*
X198683550Y-51419215D01*
X198683517Y-51419241D01*
X198683525Y-51419247D01*
X198681375Y-51422047D01*
X198635474Y-51458889D01*
X198577757Y-51470416D01*
X198521226Y-51454031D01*
X198478618Y-51413426D01*
X198459533Y-51357751D01*
X198454086Y-51297804D01*
X198403478Y-51135394D01*
X198315472Y-50989815D01*
X198315471Y-50989813D01*
X198213339Y-50887681D01*
X198181245Y-50832094D01*
X198181245Y-50767906D01*
X198213339Y-50712319D01*
X198315471Y-50610186D01*
X198332382Y-50582212D01*
X198403478Y-50464606D01*
X198454086Y-50302196D01*
X198460500Y-50231616D01*
X198460500Y-49718384D01*
X198454086Y-49647804D01*
X198403478Y-49485394D01*
X198315472Y-49339815D01*
X198315471Y-49339813D01*
X198195186Y-49219528D01*
X198087297Y-49154307D01*
X198049606Y-49131522D01*
X197887196Y-49080914D01*
X197887193Y-49080913D01*
X197816617Y-49074500D01*
X197816616Y-49074500D01*
X197153384Y-49074500D01*
X197153383Y-49074500D01*
X197082806Y-49080913D01*
X197001598Y-49106218D01*
X196920394Y-49131522D01*
X196920392Y-49131522D01*
X196920392Y-49131523D01*
X196774813Y-49219528D01*
X196654528Y-49339813D01*
X196566523Y-49485392D01*
X196566522Y-49485394D01*
X196541218Y-49566598D01*
X196515913Y-49647806D01*
X196509500Y-49718383D01*
X196509500Y-50049903D01*
X196500061Y-50097356D01*
X196473181Y-50137584D01*
X196447584Y-50163181D01*
X196407356Y-50190061D01*
X196359903Y-50199500D01*
X196269000Y-50199500D01*
X196207000Y-50182887D01*
X196161613Y-50137500D01*
X196158543Y-50126043D01*
X196145000Y-50112500D01*
X194819000Y-50112500D01*
X194757000Y-50095887D01*
X194711613Y-50050500D01*
X194695000Y-49988500D01*
X194695000Y-48875000D01*
X195195000Y-48875000D01*
X195195000Y-49612500D01*
X196145000Y-49612500D01*
X196145000Y-49569192D01*
X196134593Y-49467326D01*
X196079905Y-49302289D01*
X195988629Y-49154307D01*
X195865692Y-49031370D01*
X195717710Y-48940094D01*
X195552673Y-48885406D01*
X195450808Y-48875000D01*
X195195000Y-48875000D01*
X194695000Y-48875000D01*
X194439192Y-48875000D01*
X194337326Y-48885406D01*
X194172289Y-48940094D01*
X194024307Y-49031370D01*
X193901370Y-49154307D01*
X193847039Y-49242393D01*
X193800985Y-49286097D01*
X193739336Y-49301277D01*
X193678255Y-49283955D01*
X193633754Y-49238670D01*
X193617500Y-49177296D01*
X193617500Y-49048488D01*
X193602887Y-48909460D01*
X193545238Y-48732032D01*
X193451960Y-48570469D01*
X193327123Y-48431825D01*
X193176193Y-48322167D01*
X193005761Y-48246286D01*
X193003423Y-48245790D01*
X192949499Y-48219490D01*
X192914233Y-48170951D01*
X192905883Y-48111539D01*
X192926403Y-48055160D01*
X192970989Y-48015015D01*
X193029204Y-48000500D01*
X202875500Y-48000500D01*
X202937500Y-48017113D01*
G37*
G04 #@! TD.AperFunction*
M02*
