G04 #@! TF.GenerationSoftware,KiCad,Pcbnew,7.0.1*
G04 #@! TF.CreationDate,2024-07-03T15:15:49+02:00*
G04 #@! TF.ProjectId,iCE40DevBoard,69434534-3044-4657-9642-6f6172642e6b,rev?*
G04 #@! TF.SameCoordinates,Original*
G04 #@! TF.FileFunction,Copper,L2,Bot*
G04 #@! TF.FilePolarity,Positive*
%FSLAX46Y46*%
G04 Gerber Fmt 4.6, Leading zero omitted, Abs format (unit mm)*
G04 Created by KiCad (PCBNEW 7.0.1) date 2024-07-03 15:15:49*
%MOMM*%
%LPD*%
G01*
G04 APERTURE LIST*
G04 #@! TA.AperFunction,ComponentPad*
%ADD10O,1.700000X1.700000*%
G04 #@! TD*
G04 #@! TA.AperFunction,ComponentPad*
%ADD11R,1.700000X1.700000*%
G04 #@! TD*
G04 #@! TA.AperFunction,ComponentPad*
%ADD12O,1.250000X0.950000*%
G04 #@! TD*
G04 #@! TA.AperFunction,ComponentPad*
%ADD13O,0.775000X1.645000*%
G04 #@! TD*
G04 #@! TA.AperFunction,SMDPad,CuDef*
%ADD14C,1.000000*%
G04 #@! TD*
G04 #@! TA.AperFunction,ViaPad*
%ADD15C,0.600000*%
G04 #@! TD*
G04 #@! TA.AperFunction,Conductor*
%ADD16C,0.200000*%
G04 #@! TD*
G04 APERTURE END LIST*
D10*
X177800000Y-88900000D03*
X177800000Y-86360000D03*
X177800000Y-83820000D03*
X177800000Y-81280000D03*
X177800000Y-78740000D03*
X177800000Y-76200000D03*
X177800000Y-73660000D03*
X177800000Y-71120000D03*
X177800000Y-68580000D03*
X177800000Y-66040000D03*
X177800000Y-63500000D03*
X177800000Y-60960000D03*
X177800000Y-58420000D03*
X177800000Y-55880000D03*
X177800000Y-53340000D03*
D11*
X177800000Y-50800000D03*
D10*
X193040000Y-93980000D03*
X190500000Y-93980000D03*
X187960000Y-93980000D03*
X185420000Y-93980000D03*
X182880000Y-93980000D03*
X180340000Y-93980000D03*
D11*
X177800000Y-93980000D03*
D12*
X191730000Y-52230000D03*
D13*
X192730000Y-49530000D03*
X185730000Y-49530000D03*
D12*
X186730000Y-52230000D03*
D11*
X200660000Y-50800000D03*
D10*
X200660000Y-53340000D03*
X200660000Y-55880000D03*
X200660000Y-58420000D03*
X200660000Y-60960000D03*
X200660000Y-63500000D03*
X200660000Y-66040000D03*
X200660000Y-68580000D03*
X200660000Y-71120000D03*
X200660000Y-73660000D03*
X200660000Y-76200000D03*
X200660000Y-78740000D03*
X200660000Y-81280000D03*
X200660000Y-83820000D03*
X200660000Y-86360000D03*
X200660000Y-88900000D03*
D14*
X198374000Y-90932000D03*
X182118000Y-51308000D03*
X182372000Y-79248000D03*
X180086000Y-79248000D03*
X193040000Y-58166000D03*
X195326000Y-78232000D03*
X182372000Y-74422000D03*
X185420000Y-58166000D03*
X182372000Y-82550000D03*
X180086000Y-74422000D03*
X196088000Y-90932000D03*
X180086000Y-82550000D03*
X197612000Y-78232000D03*
D15*
X187071000Y-92964000D03*
X186563000Y-91694000D03*
X185166000Y-91059000D03*
X201930000Y-52197000D03*
X202534000Y-64770000D03*
X178816000Y-91186000D03*
X196342000Y-92964000D03*
X184150000Y-92710000D03*
X183007000Y-91059000D03*
X178765200Y-69596000D03*
X192582800Y-77825600D03*
X191871600Y-78587600D03*
X188595000Y-80010000D03*
X182626000Y-87376000D03*
X184404000Y-85852000D03*
X187198000Y-85852000D03*
X186436000Y-85598000D03*
X187706000Y-85090000D03*
X195500000Y-95500000D03*
X184912000Y-51308000D03*
X183750000Y-49250000D03*
X177750000Y-48750000D03*
X179700000Y-88900000D03*
X192700000Y-66900000D03*
X186000000Y-63400000D03*
X191100000Y-57200000D03*
X180100000Y-80900000D03*
X193250000Y-53250000D03*
X195500000Y-57750000D03*
X196500000Y-48500000D03*
X184500000Y-73250000D03*
X193000000Y-63300000D03*
X180250000Y-53000000D03*
X193750000Y-72500000D03*
X201300000Y-91600000D03*
X183250000Y-70750000D03*
X188100000Y-49800000D03*
X189500000Y-63250000D03*
X195000000Y-88100000D03*
X182000000Y-58000000D03*
X194250000Y-92750000D03*
X190200000Y-49400000D03*
X176750000Y-91250000D03*
X191000000Y-63000000D03*
X186500000Y-70750000D03*
X186250000Y-73750000D03*
X185000000Y-53250000D03*
X189600000Y-66900000D03*
X187800000Y-81300000D03*
X190500000Y-55300000D03*
X181500000Y-95750000D03*
X198750000Y-49000000D03*
X197500000Y-53000000D03*
X182200000Y-72900000D03*
X190627000Y-66167000D03*
X180500000Y-78000000D03*
X195707000Y-66167000D03*
X188455000Y-57150000D03*
X193300000Y-57100000D03*
X189738000Y-72136000D03*
X187198000Y-62230000D03*
X192278000Y-61341000D03*
X192786000Y-59563000D03*
X188341000Y-75946000D03*
X186436000Y-65786000D03*
X197866000Y-82804000D03*
X199263000Y-66167000D03*
X200152000Y-82550000D03*
X199390000Y-87122000D03*
X186690000Y-66548000D03*
X197866000Y-87630000D03*
X198882000Y-66929000D03*
X188468000Y-67310000D03*
X196850000Y-87630000D03*
X189255400Y-87147400D03*
X184150000Y-82042000D03*
X181610000Y-87884000D03*
X188468000Y-82804000D03*
X184404000Y-87630000D03*
X181737000Y-66040000D03*
X181737000Y-64262000D03*
X183261000Y-65405000D03*
X180594000Y-63881000D03*
X180213000Y-59944000D03*
X182499000Y-63373000D03*
X180721000Y-61468000D03*
X179324000Y-69088000D03*
X193294000Y-74041000D03*
X194056000Y-74295000D03*
X194818000Y-74676000D03*
X197485000Y-74676000D03*
X196723000Y-75438000D03*
X194818000Y-75565000D03*
X195961000Y-63119000D03*
X195199000Y-63627000D03*
X192913000Y-67818000D03*
X191643000Y-67818000D03*
X190881000Y-68072000D03*
X190373000Y-68707000D03*
X188722000Y-68072000D03*
X189484000Y-69088000D03*
X199771000Y-72644000D03*
X190246000Y-67564000D03*
X184785000Y-65659000D03*
X187960000Y-68072000D03*
X185674000Y-65659000D03*
X199644000Y-65151000D03*
X196977000Y-79629000D03*
X195580000Y-73787000D03*
X179832000Y-85090000D03*
X179324000Y-72390000D03*
X182525000Y-84937000D03*
X180340000Y-86868000D03*
X176530000Y-86868000D03*
X182118000Y-76962000D03*
X192786000Y-87630000D03*
X191897000Y-91440000D03*
X184404000Y-77978000D03*
X181356000Y-77978000D03*
X193548000Y-81534000D03*
X183388000Y-78232000D03*
X191516000Y-82042000D03*
X182372000Y-74930000D03*
X195580000Y-79756000D03*
X194945000Y-77400000D03*
X193675000Y-85979000D03*
X197104000Y-89916000D03*
X193548000Y-80137000D03*
X195580000Y-91440000D03*
X191262000Y-87630000D03*
X188722000Y-81280000D03*
X188468000Y-87884000D03*
X190754000Y-85090000D03*
X184200800Y-91059000D03*
D16*
X185420000Y-92075000D02*
X186309000Y-92964000D01*
X184023000Y-92075000D02*
X185420000Y-92075000D01*
X186309000Y-92964000D02*
X187071000Y-92964000D01*
X183007000Y-91059000D02*
X184023000Y-92075000D01*
X187198000Y-91694000D02*
X186563000Y-91694000D01*
X187960000Y-92456000D02*
X187198000Y-91694000D01*
X187579000Y-91059000D02*
X190500000Y-93980000D01*
X185166000Y-91059000D02*
X187579000Y-91059000D01*
X187960000Y-92456000D02*
X187960000Y-93980000D01*
X201927000Y-52200000D02*
X201930000Y-52197000D01*
X198300000Y-52200000D02*
X201927000Y-52200000D01*
X202534000Y-58312800D02*
X202534000Y-64770000D01*
X175920400Y-90420400D02*
X176750000Y-91250000D01*
X175920400Y-73184626D02*
X175920400Y-90420400D01*
X184150000Y-94742000D02*
X184150000Y-92710000D01*
X180721000Y-91059000D02*
X183007000Y-91059000D01*
X177800000Y-93980000D02*
X180721000Y-91059000D01*
X184150000Y-94742000D02*
X183142000Y-95750000D01*
X183142000Y-95750000D02*
X181500000Y-95750000D01*
X199390000Y-57200800D02*
X201422000Y-57200800D01*
X198840800Y-57750000D02*
X199390000Y-57200800D01*
X201422000Y-57200800D02*
X202534000Y-58312800D01*
X195500000Y-57750000D02*
X198840800Y-57750000D01*
X178358800Y-70002400D02*
X177088800Y-70002400D01*
X179106400Y-70750000D02*
X178358800Y-70002400D01*
X176022000Y-68935600D02*
X176022000Y-68834000D01*
X183250000Y-70750000D02*
X179106400Y-70750000D01*
X177088800Y-70002400D02*
X176022000Y-68935600D01*
X176022000Y-50292000D02*
X176022000Y-68834000D01*
X176022000Y-68834000D02*
X176022000Y-73083026D01*
X184500000Y-73250000D02*
X184500000Y-72000000D01*
X184500000Y-72000000D02*
X183250000Y-70750000D01*
X179679600Y-69646800D02*
X179120800Y-69646800D01*
X179984400Y-69342000D02*
X179679600Y-69646800D01*
X178765200Y-69596000D02*
X179070000Y-69596000D01*
X179070000Y-69596000D02*
X179120800Y-69646800D01*
X184048400Y-69342000D02*
X186537600Y-71831200D01*
X179984400Y-69342000D02*
X184048400Y-69342000D01*
X186537600Y-71831200D02*
X189433200Y-71831200D01*
X189433200Y-71831200D02*
X189738000Y-72136000D01*
X179984400Y-67792600D02*
X181102000Y-66675000D01*
X179984400Y-69342000D02*
X179984400Y-67792600D01*
X185547000Y-62230000D02*
X187198000Y-62230000D01*
X184912000Y-62865000D02*
X185547000Y-62230000D01*
X184912000Y-64643000D02*
X184912000Y-62865000D01*
X182880000Y-66675000D02*
X184912000Y-64643000D01*
X181102000Y-66675000D02*
X182880000Y-66675000D01*
X192582800Y-75578800D02*
X190754000Y-73750000D01*
X192582800Y-77825600D02*
X192582800Y-75578800D01*
X190754000Y-73750000D02*
X192500000Y-73750000D01*
X186250000Y-73750000D02*
X190754000Y-73750000D01*
X189230000Y-75946000D02*
X191871600Y-78587600D01*
X176022000Y-73083026D02*
X175920400Y-73184626D01*
X177564000Y-48750000D02*
X176022000Y-50292000D01*
X177750000Y-48750000D02*
X177564000Y-48750000D01*
X189306200Y-80721200D02*
X188595000Y-80010000D01*
X189306200Y-81127600D02*
X189306200Y-80721200D01*
X183134000Y-86868000D02*
X182626000Y-87376000D01*
X184912000Y-84074000D02*
X183134000Y-85852000D01*
X183134000Y-85852000D02*
X183134000Y-86868000D01*
X184912000Y-81300000D02*
X184912000Y-84074000D01*
X184912000Y-85852000D02*
X184404000Y-85852000D01*
X185674000Y-86614000D02*
X184912000Y-85852000D01*
X186436000Y-86614000D02*
X185674000Y-86614000D01*
X187198000Y-85852000D02*
X186436000Y-86614000D01*
X186944000Y-85090000D02*
X186944000Y-83058000D01*
X186436000Y-85598000D02*
X186944000Y-85090000D01*
X188118000Y-85502000D02*
X187706000Y-85090000D01*
X184912000Y-87122000D02*
X187198000Y-87122000D01*
X184150000Y-86868000D02*
X184658000Y-86868000D01*
X187356000Y-87122000D02*
X188118000Y-86360000D01*
X183800000Y-87218000D02*
X184150000Y-86868000D01*
X188118000Y-86360000D02*
X188118000Y-85502000D01*
X184658000Y-86868000D02*
X184912000Y-87122000D01*
X183800000Y-87300000D02*
X183800000Y-87218000D01*
X187198000Y-87122000D02*
X187356000Y-87122000D01*
X184912000Y-81300000D02*
X187800000Y-81300000D01*
X180500000Y-81300000D02*
X184912000Y-81300000D01*
X194056000Y-75057000D02*
X194056000Y-74295000D01*
X193802000Y-75311000D02*
X194056000Y-75057000D01*
X193802000Y-78867000D02*
X193802000Y-75311000D01*
X195072000Y-80137000D02*
X193802000Y-78867000D01*
X195072000Y-83820000D02*
X195072000Y-80137000D01*
X195100000Y-83848000D02*
X195072000Y-83820000D01*
X195100000Y-86600000D02*
X195100000Y-83848000D01*
X196200000Y-87700000D02*
X195100000Y-86600000D01*
X196200000Y-89400000D02*
X196200000Y-87700000D01*
X195000000Y-90600000D02*
X196200000Y-89400000D01*
X195000000Y-93036000D02*
X195000000Y-90600000D01*
X194564000Y-93472000D02*
X195000000Y-93036000D01*
X193325635Y-92710000D02*
X194087635Y-93472000D01*
X194087635Y-93472000D02*
X194564000Y-93472000D01*
X191516000Y-92710000D02*
X193325635Y-92710000D01*
X191008000Y-92202000D02*
X191516000Y-92710000D01*
X190500000Y-92202000D02*
X191008000Y-92202000D01*
X188300000Y-90002000D02*
X190500000Y-92202000D01*
X188300000Y-90000000D02*
X188300000Y-90002000D01*
X178900000Y-90000000D02*
X188300000Y-90000000D01*
X177800000Y-88900000D02*
X178900000Y-90000000D01*
X192278000Y-93980000D02*
X193040000Y-93980000D01*
X187706000Y-90424000D02*
X189992000Y-92710000D01*
X191008000Y-92710000D02*
X192278000Y-93980000D01*
X184023000Y-90424000D02*
X187706000Y-90424000D01*
X183769000Y-90678000D02*
X184023000Y-90424000D01*
X189992000Y-92710000D02*
X191008000Y-92710000D01*
X184200800Y-91059000D02*
X184150000Y-91059000D01*
X184150000Y-91059000D02*
X183769000Y-90678000D01*
X182118000Y-51308000D02*
X184912000Y-51308000D01*
X186500000Y-67800000D02*
X187600000Y-66700000D01*
X194250000Y-90750000D02*
X194250000Y-92750000D01*
X189200000Y-66900000D02*
X189000000Y-66700000D01*
X189000000Y-66700000D02*
X187600000Y-66700000D01*
X192500000Y-73750000D02*
X193750000Y-72500000D01*
X195000000Y-88100000D02*
X195100000Y-88200000D01*
X190600000Y-63400000D02*
X186000000Y-63400000D01*
X192600000Y-66800000D02*
X192700000Y-66900000D01*
X191300000Y-63300000D02*
X191000000Y-63000000D01*
X192200000Y-66800000D02*
X189700000Y-66800000D01*
X195100000Y-88200000D02*
X195100000Y-89900000D01*
X180100000Y-80900000D02*
X180500000Y-81300000D01*
X189700000Y-66800000D02*
X189600000Y-66900000D01*
X186500000Y-70750000D02*
X186500000Y-67800000D01*
X192700000Y-66900000D02*
X192300000Y-66900000D01*
X195100000Y-89900000D02*
X194250000Y-90750000D01*
X189600000Y-66900000D02*
X189200000Y-66900000D01*
X193000000Y-63300000D02*
X191300000Y-63300000D01*
X191100000Y-55900000D02*
X190500000Y-55300000D01*
X192300000Y-66900000D02*
X192200000Y-66800000D01*
X198300000Y-52200000D02*
X197500000Y-53000000D01*
X191100000Y-57200000D02*
X191100000Y-55900000D01*
X191000000Y-63000000D02*
X190600000Y-63400000D01*
X179100000Y-75500000D02*
X179000000Y-75400000D01*
X179000000Y-75400000D02*
X179000000Y-74400000D01*
X180500000Y-72900000D02*
X182200000Y-72900000D01*
X195453000Y-65913000D02*
X195707000Y-66167000D01*
X194056000Y-66167000D02*
X194310000Y-65913000D01*
X190627000Y-66167000D02*
X194056000Y-66167000D01*
X186436000Y-57150000D02*
X188455000Y-57150000D01*
X185420000Y-58166000D02*
X186436000Y-57150000D01*
X179000000Y-74400000D02*
X180500000Y-72900000D01*
X179750000Y-75500000D02*
X179100000Y-75500000D01*
X194310000Y-65913000D02*
X195453000Y-65913000D01*
X180500000Y-78000000D02*
X180500000Y-76250000D01*
X180500000Y-76250000D02*
X179750000Y-75500000D01*
X193300000Y-57100000D02*
X193040000Y-57360000D01*
X193040000Y-57360000D02*
X193040000Y-58166000D01*
X192786000Y-59563000D02*
X192278000Y-60071000D01*
X192278000Y-60071000D02*
X192278000Y-61341000D01*
X188341000Y-75946000D02*
X189230000Y-75946000D01*
X199263000Y-66167000D02*
X199263000Y-65913000D01*
X198120000Y-82550000D02*
X200152000Y-82550000D01*
X199263000Y-65913000D02*
X198374000Y-65024000D01*
X198374000Y-65024000D02*
X187198000Y-65024000D01*
X198120000Y-82550000D02*
X197866000Y-82804000D01*
X187198000Y-65024000D02*
X186436000Y-65786000D01*
X197739000Y-65532000D02*
X198882000Y-66675000D01*
X199390000Y-87122000D02*
X199390000Y-87630000D01*
X187706000Y-65532000D02*
X186690000Y-66548000D01*
X198882000Y-66675000D02*
X198882000Y-66929000D01*
X198120000Y-87884000D02*
X197866000Y-87630000D01*
X199136000Y-87884000D02*
X198120000Y-87884000D01*
X197739000Y-65532000D02*
X187706000Y-65532000D01*
X199390000Y-87630000D02*
X199136000Y-87884000D01*
X187198000Y-67818000D02*
X187706000Y-67310000D01*
X195707000Y-83439000D02*
X199136000Y-80010000D01*
X199136000Y-74930000D02*
X198755000Y-74549000D01*
X196850000Y-87630000D02*
X195707000Y-86487000D01*
X188976000Y-71374000D02*
X187198000Y-69596000D01*
X198755000Y-74549000D02*
X198755000Y-74295000D01*
X195834000Y-71374000D02*
X188976000Y-71374000D01*
X187706000Y-67310000D02*
X188468000Y-67310000D01*
X195707000Y-86487000D02*
X195707000Y-83439000D01*
X198755000Y-74295000D02*
X195834000Y-71374000D01*
X199136000Y-80010000D02*
X199136000Y-74930000D01*
X187198000Y-69596000D02*
X187198000Y-67818000D01*
X188899800Y-86791800D02*
X189255400Y-87147400D01*
X189306200Y-82829400D02*
X188899800Y-83235800D01*
X189306200Y-81127600D02*
X189306200Y-81356200D01*
X189306200Y-81889600D02*
X189306200Y-82829400D01*
X188899800Y-83235800D02*
X188899800Y-86791800D01*
X189306200Y-81356200D02*
X189306200Y-81889600D01*
X184150000Y-84328000D02*
X184150000Y-82042000D01*
X181610000Y-86868000D02*
X183642000Y-84836000D01*
X181610000Y-87884000D02*
X181610000Y-86868000D01*
X183642000Y-84836000D02*
X184150000Y-84328000D01*
X184404000Y-87630000D02*
X186944000Y-87630000D01*
X186944000Y-87630000D02*
X187452000Y-87630000D01*
X187452000Y-87630000D02*
X188468000Y-86614000D01*
X188468000Y-86614000D02*
X188468000Y-82804000D01*
X176403000Y-64008000D02*
X176403000Y-52197000D01*
X176403000Y-52197000D02*
X177800000Y-50800000D01*
X177165000Y-64770000D02*
X176403000Y-64008000D01*
X181737000Y-66040000D02*
X180721000Y-66040000D01*
X179451000Y-64770000D02*
X177165000Y-64770000D01*
X180721000Y-66040000D02*
X179451000Y-64770000D01*
X180213000Y-55753000D02*
X177800000Y-53340000D01*
X180213000Y-58547000D02*
X184404000Y-62738000D01*
X184150000Y-64262000D02*
X181737000Y-64262000D01*
X184404000Y-63627000D02*
X184404000Y-64008000D01*
X184404000Y-62738000D02*
X184404000Y-63627000D01*
X184404000Y-64008000D02*
X184150000Y-64262000D01*
X180213000Y-58547000D02*
X180213000Y-55753000D01*
X179451000Y-63881000D02*
X179451000Y-57531000D01*
X179451000Y-57531000D02*
X177800000Y-55880000D01*
X182880000Y-65024000D02*
X180594000Y-65024000D01*
X183261000Y-65405000D02*
X182880000Y-65024000D01*
X180594000Y-65024000D02*
X179451000Y-63881000D01*
X180594000Y-63881000D02*
X180594000Y-62484000D01*
X180213000Y-60833000D02*
X180213000Y-59944000D01*
X179959000Y-61087000D02*
X180213000Y-60833000D01*
X179959000Y-61849000D02*
X179959000Y-61087000D01*
X180594000Y-62484000D02*
X179959000Y-61849000D01*
X182499000Y-63373000D02*
X180721000Y-61595000D01*
X180721000Y-61595000D02*
X180721000Y-61468000D01*
X179324000Y-67564000D02*
X177800000Y-66040000D01*
X179324000Y-69088000D02*
X179324000Y-67564000D01*
X192278000Y-92075000D02*
X194437000Y-89916000D01*
X181600000Y-89600000D02*
X189041000Y-89600000D01*
X193294000Y-78994000D02*
X193294000Y-74041000D01*
X189041000Y-89600000D02*
X191516000Y-92075000D01*
X177800000Y-83820000D02*
X179578000Y-83820000D01*
X194437000Y-83185000D02*
X194627500Y-82994500D01*
X191516000Y-92075000D02*
X192278000Y-92075000D01*
X194627500Y-82994500D02*
X194627500Y-80327500D01*
X179578000Y-83820000D02*
X180975000Y-85217000D01*
X180975000Y-88975000D02*
X181600000Y-89600000D01*
X180975000Y-85217000D02*
X180975000Y-88975000D01*
X194437000Y-89916000D02*
X194437000Y-83185000D01*
X194627500Y-80327500D02*
X193294000Y-78994000D01*
X194818000Y-74676000D02*
X197485000Y-74676000D01*
X194818000Y-75565000D02*
X196596000Y-75565000D01*
X196596000Y-75565000D02*
X196723000Y-75438000D01*
X196215000Y-63373000D02*
X198247000Y-63373000D01*
X195961000Y-63119000D02*
X196215000Y-63373000D01*
X198247000Y-63373000D02*
X200660000Y-60960000D01*
X200660000Y-63500000D02*
X200787000Y-63500000D01*
X200787000Y-63500000D02*
X201930000Y-62357000D01*
X195199000Y-61595000D02*
X195199000Y-63627000D01*
X201930000Y-62357000D02*
X201930000Y-60071000D01*
X201930000Y-60071000D02*
X201549000Y-59690000D01*
X201549000Y-59690000D02*
X197104000Y-59690000D01*
X197104000Y-59690000D02*
X195199000Y-61595000D01*
X197104000Y-67818000D02*
X198882000Y-67818000D01*
X196723000Y-68199000D02*
X197104000Y-67818000D01*
X193294000Y-68199000D02*
X196723000Y-68199000D01*
X198882000Y-67818000D02*
X200660000Y-66040000D01*
X192913000Y-67818000D02*
X193294000Y-68199000D01*
X191643000Y-68199000D02*
X191643000Y-67818000D01*
X192532000Y-69088000D02*
X191643000Y-68199000D01*
X196850000Y-69088000D02*
X192532000Y-69088000D01*
X200660000Y-68580000D02*
X197358000Y-68580000D01*
X197358000Y-68580000D02*
X196850000Y-69088000D01*
X192151000Y-69469000D02*
X196977000Y-69469000D01*
X190881000Y-68199000D02*
X190881000Y-68072000D01*
X198628000Y-71120000D02*
X200660000Y-71120000D01*
X196977000Y-69469000D02*
X198628000Y-71120000D01*
X192151000Y-69469000D02*
X190881000Y-68199000D01*
X198882000Y-71882000D02*
X199786818Y-71882000D01*
X190754000Y-68707000D02*
X191262000Y-69215000D01*
X191262000Y-69596000D02*
X191516000Y-69850000D01*
X196850000Y-69850000D02*
X198882000Y-71882000D01*
X199786818Y-71882000D02*
X200660000Y-72755182D01*
X200660000Y-72755182D02*
X200660000Y-73660000D01*
X190373000Y-68707000D02*
X190754000Y-68707000D01*
X191262000Y-69215000D02*
X191262000Y-69596000D01*
X191516000Y-69850000D02*
X196850000Y-69850000D01*
X189992000Y-70612000D02*
X196342000Y-70612000D01*
X199517000Y-73787000D02*
X199517000Y-74168000D01*
X188722000Y-69342000D02*
X189992000Y-70612000D01*
X199517000Y-74168000D02*
X200660000Y-75311000D01*
X196342000Y-70612000D02*
X199517000Y-73787000D01*
X200660000Y-75311000D02*
X200660000Y-76200000D01*
X188722000Y-68072000D02*
X188722000Y-69342000D01*
X190881000Y-69977000D02*
X190865182Y-69977000D01*
X196469000Y-70231000D02*
X191135000Y-70231000D01*
X190865182Y-69977000D02*
X189976182Y-69088000D01*
X189976182Y-69088000D02*
X189484000Y-69088000D01*
X199517000Y-72390000D02*
X198628000Y-72390000D01*
X199771000Y-72644000D02*
X199517000Y-72390000D01*
X191135000Y-70231000D02*
X190881000Y-69977000D01*
X198628000Y-72390000D02*
X196469000Y-70231000D01*
X192278000Y-68339026D02*
X192645974Y-68707000D01*
X201834000Y-68103000D02*
X201834000Y-80106000D01*
X197231000Y-68199000D02*
X199136000Y-68199000D01*
X200025000Y-67310000D02*
X201041000Y-67310000D01*
X192645974Y-68707000D02*
X196723000Y-68707000D01*
X201041000Y-67310000D02*
X201834000Y-68103000D01*
X191960500Y-67246500D02*
X192278000Y-67564000D01*
X201834000Y-80106000D02*
X200660000Y-81280000D01*
X192278000Y-67564000D02*
X192278000Y-68339026D01*
X190563500Y-67246500D02*
X191960500Y-67246500D01*
X196723000Y-68707000D02*
X197231000Y-68199000D01*
X199136000Y-68199000D02*
X200025000Y-67310000D01*
X190246000Y-67564000D02*
X190563500Y-67246500D01*
X186182000Y-64262000D02*
X199644000Y-64262000D01*
X184785000Y-65659000D02*
X186182000Y-64262000D01*
X199644000Y-64262000D02*
X200025000Y-64643000D01*
X202184000Y-82296000D02*
X200660000Y-83820000D01*
X202184000Y-65278000D02*
X202184000Y-82296000D01*
X200025000Y-64643000D02*
X201549000Y-64643000D01*
X201549000Y-64643000D02*
X202184000Y-65278000D01*
X189580000Y-70962000D02*
X195930000Y-70962000D01*
X199136000Y-74168000D02*
X199136000Y-74295000D01*
X195930000Y-70962000D02*
X199136000Y-74168000D01*
X187960000Y-68072000D02*
X187960000Y-69342000D01*
X199517000Y-80137000D02*
X196215000Y-83439000D01*
X199136000Y-74295000D02*
X199517000Y-74676000D01*
X199517000Y-74676000D02*
X199517000Y-80137000D01*
X196215000Y-83439000D02*
X196215000Y-85852000D01*
X187960000Y-69342000D02*
X189580000Y-70962000D01*
X196215000Y-85852000D02*
X196723000Y-86360000D01*
X196723000Y-86360000D02*
X200660000Y-86360000D01*
X199009000Y-64643000D02*
X199517000Y-65151000D01*
X185674000Y-65659000D02*
X186690000Y-64643000D01*
X199517000Y-65151000D02*
X199644000Y-65151000D01*
X186690000Y-64643000D02*
X199009000Y-64643000D01*
X198755000Y-75057000D02*
X198374000Y-74676000D01*
X198247000Y-79629000D02*
X198755000Y-79121000D01*
X195834000Y-74041000D02*
X197993000Y-74041000D01*
X195580000Y-73787000D02*
X195834000Y-74041000D01*
X198374000Y-74422000D02*
X197993000Y-74041000D01*
X196977000Y-79629000D02*
X198247000Y-79629000D01*
X198755000Y-79121000D02*
X198755000Y-75057000D01*
X198374000Y-74676000D02*
X198374000Y-74422000D01*
X180086000Y-82550000D02*
X177038000Y-82550000D01*
X177038000Y-85090000D02*
X179832000Y-85090000D01*
X176276000Y-83312000D02*
X176276000Y-84328000D01*
X179324000Y-72390000D02*
X177210000Y-72390000D01*
X176276000Y-84328000D02*
X177038000Y-85090000D01*
X177038000Y-82550000D02*
X176276000Y-83312000D01*
X176276000Y-75692000D02*
X176276000Y-83312000D01*
X177210000Y-72390000D02*
X176276000Y-73324000D01*
X176276000Y-73324000D02*
X176276000Y-75692000D01*
X183134000Y-83312000D02*
X182372000Y-82550000D01*
X176530000Y-86995000D02*
X177038000Y-87503000D01*
X183134000Y-84328000D02*
X183134000Y-83312000D01*
X180340000Y-86868000D02*
X179705000Y-87503000D01*
X179705000Y-87503000D02*
X177038000Y-87503000D01*
X182525000Y-84937000D02*
X183134000Y-84328000D01*
X176530000Y-86868000D02*
X176530000Y-86995000D01*
X192786000Y-86614000D02*
X192786000Y-87630000D01*
X183134000Y-76708000D02*
X185674000Y-76708000D01*
X180594000Y-78740000D02*
X181610000Y-78740000D01*
X189738000Y-78232000D02*
X192278000Y-80772000D01*
X192278000Y-85598000D02*
X192278000Y-86106000D01*
X180086000Y-79248000D02*
X180594000Y-78740000D01*
X192278000Y-86106000D02*
X192786000Y-86614000D01*
X185674000Y-76708000D02*
X187198000Y-78232000D01*
X182118000Y-76962000D02*
X182880000Y-76962000D01*
X192278000Y-80772000D02*
X192278000Y-85598000D01*
X187198000Y-78232000D02*
X189738000Y-78232000D01*
X181610000Y-78740000D02*
X182118000Y-78232000D01*
X182118000Y-78232000D02*
X182118000Y-76962000D01*
X182880000Y-76962000D02*
X183134000Y-76708000D01*
X184404000Y-77978000D02*
X185674000Y-79248000D01*
X192024000Y-86868000D02*
X192024000Y-88392000D01*
X184404000Y-78486000D02*
X184404000Y-77978000D01*
X192024000Y-90170000D02*
X192024000Y-91313000D01*
X192024000Y-91313000D02*
X191897000Y-91440000D01*
X191516000Y-86360000D02*
X192024000Y-86868000D01*
X182372000Y-79248000D02*
X183642000Y-79248000D01*
X192024000Y-88392000D02*
X192024000Y-90170000D01*
X183642000Y-79248000D02*
X184404000Y-78486000D01*
X190500000Y-80518000D02*
X190500000Y-83566000D01*
X191516000Y-84582000D02*
X191516000Y-86360000D01*
X185674000Y-79248000D02*
X189230000Y-79248000D01*
X190500000Y-83566000D02*
X191262000Y-84328000D01*
X189230000Y-79248000D02*
X190500000Y-80518000D01*
X191262000Y-84328000D02*
X191516000Y-84582000D01*
X181102000Y-77724000D02*
X181102000Y-76708000D01*
X183896000Y-74168000D02*
X183896000Y-76200000D01*
X180086000Y-74422000D02*
X180978000Y-74422000D01*
X181102000Y-76708000D02*
X181610000Y-76200000D01*
X186182000Y-76200000D02*
X187706000Y-77724000D01*
X183896000Y-76200000D02*
X186182000Y-76200000D01*
X181800000Y-73600000D02*
X183328000Y-73600000D01*
X183328000Y-73600000D02*
X183896000Y-74168000D01*
X181356000Y-77978000D02*
X181102000Y-77724000D01*
X187706000Y-77724000D02*
X189992000Y-77724000D01*
X193548000Y-81280000D02*
X193548000Y-81534000D01*
X189992000Y-77724000D02*
X193548000Y-81280000D01*
X180978000Y-74422000D02*
X181800000Y-73600000D01*
X181610000Y-76200000D02*
X183896000Y-76200000D01*
X189484000Y-78740000D02*
X191516000Y-80772000D01*
X183134000Y-77724000D02*
X183642000Y-77216000D01*
X182372000Y-74930000D02*
X182372000Y-74422000D01*
X191516000Y-80772000D02*
X191516000Y-82042000D01*
X185166000Y-77216000D02*
X186690000Y-78740000D01*
X183642000Y-77216000D02*
X185166000Y-77216000D01*
X186690000Y-78740000D02*
X189484000Y-78740000D01*
X183388000Y-78232000D02*
X183134000Y-77978000D01*
X183134000Y-77978000D02*
X183134000Y-77724000D01*
X197612000Y-78232000D02*
X196850000Y-78994000D01*
X196596000Y-78994000D02*
X195834000Y-79756000D01*
X196850000Y-78994000D02*
X196596000Y-78994000D01*
X195834000Y-79756000D02*
X195580000Y-79756000D01*
X195326000Y-77781000D02*
X194945000Y-77400000D01*
X195326000Y-78232000D02*
X195326000Y-77781000D01*
X193675000Y-82804000D02*
X194183000Y-82296000D01*
X193548000Y-80137000D02*
X193548000Y-80518000D01*
X198374000Y-90932000D02*
X197358000Y-89916000D01*
X193675000Y-85979000D02*
X193675000Y-82804000D01*
X193548000Y-80518000D02*
X194183000Y-81153000D01*
X194183000Y-81153000D02*
X194183000Y-82296000D01*
X197358000Y-89916000D02*
X197104000Y-89916000D01*
X196088000Y-90932000D02*
X195580000Y-91440000D01*
X190192000Y-88700000D02*
X187600000Y-88700000D01*
X183800000Y-87900000D02*
X183800000Y-87300000D01*
X191262000Y-87630000D02*
X190192000Y-88700000D01*
X187600000Y-88700000D02*
X187100000Y-88200000D01*
X187100000Y-88200000D02*
X184100000Y-88200000D01*
X184100000Y-88200000D02*
X183800000Y-87900000D01*
X186944000Y-83058000D02*
X188722000Y-81280000D01*
X188468000Y-87884000D02*
X189982695Y-87884000D01*
X189982695Y-87884000D02*
X190749348Y-87117347D01*
X190749348Y-85094652D02*
X190754000Y-85090000D01*
X190749348Y-87117347D02*
X190749348Y-85094652D01*
G04 #@! TA.AperFunction,Conductor*
G36*
X202931795Y-82409296D02*
G01*
X202981227Y-82454991D01*
X202999500Y-82519781D01*
X202999500Y-96125500D01*
X202982887Y-96187500D01*
X202937500Y-96232887D01*
X202875500Y-96249500D01*
X175624500Y-96249500D01*
X175562500Y-96232887D01*
X175517113Y-96187500D01*
X175500500Y-96125500D01*
X175500500Y-87079377D01*
X175519506Y-87013405D01*
X175570698Y-86967657D01*
X175638384Y-86956157D01*
X175701813Y-86982430D01*
X175741542Y-87038422D01*
X175744631Y-87047251D01*
X175744632Y-87047255D01*
X175804211Y-87217522D01*
X175843768Y-87280476D01*
X175900185Y-87370264D01*
X176027735Y-87497814D01*
X176027737Y-87497815D01*
X176027738Y-87497816D01*
X176180478Y-87593789D01*
X176306169Y-87637770D01*
X176352895Y-87667130D01*
X176579802Y-87894038D01*
X176590497Y-87906233D01*
X176595241Y-87912416D01*
X176609718Y-87931282D01*
X176641212Y-87955448D01*
X176641214Y-87955450D01*
X176658606Y-87968795D01*
X176696979Y-88018057D01*
X176706478Y-88079773D01*
X176684696Y-88138293D01*
X176625965Y-88222171D01*
X176526097Y-88436336D01*
X176464936Y-88664592D01*
X176444340Y-88899999D01*
X176464936Y-89135407D01*
X176505337Y-89286184D01*
X176526097Y-89363663D01*
X176625965Y-89577830D01*
X176761505Y-89771401D01*
X176928599Y-89938495D01*
X177122170Y-90074035D01*
X177336337Y-90173903D01*
X177564592Y-90235063D01*
X177799999Y-90255659D01*
X177799999Y-90255658D01*
X177800000Y-90255659D01*
X178035408Y-90235063D01*
X178163757Y-90200672D01*
X178227943Y-90200672D01*
X178283531Y-90232766D01*
X178441799Y-90391034D01*
X178452494Y-90403229D01*
X178471717Y-90428282D01*
X178559935Y-90495973D01*
X178586686Y-90516500D01*
X178597159Y-90524536D01*
X178743238Y-90585044D01*
X178821619Y-90595363D01*
X178899999Y-90605682D01*
X178899999Y-90605681D01*
X178900000Y-90605682D01*
X178931302Y-90601560D01*
X178947487Y-90600500D01*
X180030903Y-90600500D01*
X180087198Y-90614015D01*
X180131221Y-90651615D01*
X180153376Y-90705102D01*
X180148834Y-90762818D01*
X180118584Y-90812181D01*
X178337582Y-92593181D01*
X178297354Y-92620061D01*
X178249901Y-92629500D01*
X176902130Y-92629500D01*
X176842515Y-92635909D01*
X176707669Y-92686204D01*
X176592454Y-92772454D01*
X176506204Y-92887668D01*
X176462554Y-93004699D01*
X176455909Y-93022517D01*
X176450228Y-93075361D01*
X176449500Y-93082130D01*
X176449500Y-94877869D01*
X176455909Y-94937484D01*
X176481056Y-95004907D01*
X176506204Y-95072331D01*
X176592454Y-95187546D01*
X176707669Y-95273796D01*
X176842517Y-95324091D01*
X176902127Y-95330500D01*
X178697872Y-95330499D01*
X178757483Y-95324091D01*
X178892331Y-95273796D01*
X179007546Y-95187546D01*
X179093796Y-95072331D01*
X179142810Y-94940916D01*
X179177789Y-94890537D01*
X179232634Y-94863084D01*
X179293927Y-94865273D01*
X179346673Y-94896569D01*
X179468599Y-95018495D01*
X179662170Y-95154035D01*
X179876337Y-95253903D01*
X180104592Y-95315063D01*
X180340000Y-95335659D01*
X180575408Y-95315063D01*
X180803663Y-95253903D01*
X181017830Y-95154035D01*
X181211401Y-95018495D01*
X181378495Y-94851401D01*
X181508426Y-94665839D01*
X181552743Y-94626975D01*
X181610000Y-94612964D01*
X181667257Y-94626975D01*
X181711573Y-94665839D01*
X181841505Y-94851401D01*
X182008599Y-95018495D01*
X182202170Y-95154035D01*
X182416337Y-95253903D01*
X182644592Y-95315063D01*
X182880000Y-95335659D01*
X183115408Y-95315063D01*
X183343663Y-95253903D01*
X183557830Y-95154035D01*
X183751401Y-95018495D01*
X183918495Y-94851401D01*
X184048426Y-94665839D01*
X184092743Y-94626975D01*
X184150000Y-94612964D01*
X184207257Y-94626975D01*
X184251573Y-94665839D01*
X184381505Y-94851401D01*
X184548599Y-95018495D01*
X184742170Y-95154035D01*
X184956337Y-95253903D01*
X185184592Y-95315063D01*
X185420000Y-95335659D01*
X185655408Y-95315063D01*
X185883663Y-95253903D01*
X186097830Y-95154035D01*
X186291401Y-95018495D01*
X186458495Y-94851401D01*
X186588426Y-94665839D01*
X186632743Y-94626975D01*
X186690000Y-94612964D01*
X186747257Y-94626975D01*
X186791573Y-94665839D01*
X186921505Y-94851401D01*
X187088599Y-95018495D01*
X187282170Y-95154035D01*
X187496337Y-95253903D01*
X187724592Y-95315063D01*
X187960000Y-95335659D01*
X188195408Y-95315063D01*
X188423663Y-95253903D01*
X188637830Y-95154035D01*
X188831401Y-95018495D01*
X188998495Y-94851401D01*
X189128426Y-94665839D01*
X189172743Y-94626975D01*
X189230000Y-94612964D01*
X189287257Y-94626975D01*
X189331573Y-94665839D01*
X189461505Y-94851401D01*
X189628599Y-95018495D01*
X189822170Y-95154035D01*
X190036337Y-95253903D01*
X190264592Y-95315063D01*
X190500000Y-95335659D01*
X190735408Y-95315063D01*
X190963663Y-95253903D01*
X191177830Y-95154035D01*
X191371401Y-95018495D01*
X191538495Y-94851401D01*
X191668426Y-94665839D01*
X191712743Y-94626975D01*
X191770000Y-94612964D01*
X191827257Y-94626975D01*
X191871573Y-94665839D01*
X192001505Y-94851401D01*
X192168599Y-95018495D01*
X192362170Y-95154035D01*
X192576337Y-95253903D01*
X192804592Y-95315063D01*
X193040000Y-95335659D01*
X193275408Y-95315063D01*
X193503663Y-95253903D01*
X193717830Y-95154035D01*
X193911401Y-95018495D01*
X194078495Y-94851401D01*
X194214035Y-94657830D01*
X194313903Y-94443663D01*
X194375063Y-94215408D01*
X194377663Y-94185694D01*
X194397590Y-94128361D01*
X194442340Y-94087355D01*
X194501191Y-94072500D01*
X194516513Y-94072500D01*
X194532697Y-94073560D01*
X194564000Y-94077682D01*
X194720762Y-94057044D01*
X194866841Y-93996536D01*
X194954772Y-93929064D01*
X194992282Y-93900282D01*
X195011509Y-93875223D01*
X195022190Y-93863043D01*
X195391043Y-93494190D01*
X195403223Y-93483509D01*
X195428282Y-93464282D01*
X195524536Y-93338841D01*
X195585044Y-93192762D01*
X195600500Y-93075361D01*
X195605682Y-93036000D01*
X195601560Y-93004697D01*
X195600500Y-92988513D01*
X195600500Y-92354068D01*
X195614870Y-92296126D01*
X195654649Y-92251614D01*
X195710616Y-92230848D01*
X195759255Y-92225368D01*
X195929522Y-92165789D01*
X196082262Y-92069816D01*
X196197212Y-91954865D01*
X196231875Y-91930454D01*
X196272739Y-91919146D01*
X196284132Y-91918024D01*
X196472727Y-91860814D01*
X196646538Y-91767910D01*
X196798883Y-91642883D01*
X196923910Y-91490538D01*
X197016814Y-91316727D01*
X197074024Y-91128132D01*
X197093341Y-90932000D01*
X197084944Y-90846744D01*
X197095162Y-90783945D01*
X197135180Y-90734479D01*
X197194461Y-90711372D01*
X197233693Y-90706952D01*
X197288530Y-90713130D01*
X197335256Y-90742491D01*
X197341184Y-90748419D01*
X197370254Y-90794325D01*
X197376906Y-90848252D01*
X197368658Y-90931998D01*
X197387976Y-91128133D01*
X197445185Y-91316726D01*
X197445186Y-91316727D01*
X197538090Y-91490538D01*
X197663117Y-91642883D01*
X197815462Y-91767910D01*
X197989273Y-91860814D01*
X198177868Y-91918024D01*
X198374000Y-91937341D01*
X198570132Y-91918024D01*
X198758727Y-91860814D01*
X198932538Y-91767910D01*
X199084883Y-91642883D01*
X199209910Y-91490538D01*
X199302814Y-91316727D01*
X199360024Y-91128132D01*
X199379341Y-90932000D01*
X199360024Y-90735868D01*
X199302814Y-90547273D01*
X199209910Y-90373462D01*
X199084883Y-90221117D01*
X198932538Y-90096090D01*
X198891276Y-90074035D01*
X198758726Y-90003185D01*
X198570133Y-89945976D01*
X198373998Y-89926658D01*
X198290252Y-89934906D01*
X198236325Y-89928254D01*
X198190419Y-89899184D01*
X197816199Y-89524964D01*
X197805503Y-89512768D01*
X197796921Y-89501584D01*
X197786282Y-89487718D01*
X197776423Y-89474869D01*
X197762888Y-89460005D01*
X197746751Y-89434325D01*
X197733816Y-89413738D01*
X197606262Y-89286184D01*
X197606261Y-89286183D01*
X197529891Y-89238197D01*
X197453522Y-89190211D01*
X197283255Y-89130632D01*
X197283253Y-89130631D01*
X197283251Y-89130631D01*
X197104000Y-89110434D01*
X196938384Y-89129095D01*
X196870699Y-89117595D01*
X196819506Y-89071847D01*
X196800500Y-89005875D01*
X196800500Y-88551956D01*
X196814870Y-88494015D01*
X196854648Y-88449503D01*
X196910616Y-88428736D01*
X196977148Y-88421238D01*
X197029255Y-88415368D01*
X197199522Y-88355789D01*
X197292029Y-88297662D01*
X197358000Y-88278657D01*
X197423970Y-88297662D01*
X197516478Y-88355789D01*
X197686745Y-88415368D01*
X197866000Y-88435565D01*
X197866000Y-88435564D01*
X197871149Y-88436145D01*
X197904714Y-88444802D01*
X197963238Y-88469044D01*
X198041618Y-88479362D01*
X198119999Y-88489682D01*
X198119999Y-88489681D01*
X198120000Y-88489682D01*
X198151302Y-88485560D01*
X198167487Y-88484500D01*
X199088513Y-88484500D01*
X199104697Y-88485560D01*
X199136000Y-88489682D01*
X199196436Y-88481725D01*
X199256296Y-88488611D01*
X199305846Y-88522904D01*
X199333379Y-88576504D01*
X199332395Y-88636755D01*
X199324936Y-88664593D01*
X199304340Y-88899999D01*
X199324936Y-89135407D01*
X199365337Y-89286184D01*
X199386097Y-89363663D01*
X199485965Y-89577830D01*
X199621505Y-89771401D01*
X199788599Y-89938495D01*
X199982170Y-90074035D01*
X200196337Y-90173903D01*
X200424592Y-90235063D01*
X200659999Y-90255659D01*
X200659999Y-90255658D01*
X200660000Y-90255659D01*
X200895408Y-90235063D01*
X201123663Y-90173903D01*
X201337830Y-90074035D01*
X201531401Y-89938495D01*
X201698495Y-89771401D01*
X201834035Y-89577830D01*
X201933903Y-89363663D01*
X201995063Y-89135408D01*
X202015659Y-88900000D01*
X201995063Y-88664592D01*
X201933903Y-88436337D01*
X201834035Y-88222171D01*
X201698495Y-88028599D01*
X201531401Y-87861505D01*
X201345839Y-87731573D01*
X201306975Y-87687257D01*
X201292964Y-87630000D01*
X201306975Y-87572743D01*
X201345839Y-87528426D01*
X201531401Y-87398495D01*
X201698495Y-87231401D01*
X201834035Y-87037830D01*
X201933903Y-86823663D01*
X201995063Y-86595408D01*
X202015659Y-86360000D01*
X201995063Y-86124592D01*
X201933903Y-85896337D01*
X201834035Y-85682171D01*
X201698495Y-85488599D01*
X201531401Y-85321505D01*
X201345839Y-85191573D01*
X201306975Y-85147257D01*
X201292964Y-85090000D01*
X201306975Y-85032743D01*
X201345839Y-84988426D01*
X201531401Y-84858495D01*
X201698495Y-84691401D01*
X201834035Y-84497830D01*
X201933903Y-84283663D01*
X201995063Y-84055408D01*
X202015659Y-83820000D01*
X201995063Y-83584592D01*
X201960672Y-83456242D01*
X201960672Y-83392055D01*
X201992766Y-83336468D01*
X202239933Y-83089301D01*
X202575044Y-82754190D01*
X202587234Y-82743501D01*
X202609610Y-82726332D01*
X202612282Y-82724282D01*
X202637315Y-82691659D01*
X202708536Y-82598841D01*
X202760939Y-82472328D01*
X202802614Y-82419463D01*
X202865771Y-82396163D01*
X202931795Y-82409296D01*
G37*
G04 #@! TD.AperFunction*
G04 #@! TA.AperFunction,Conductor*
G36*
X182471512Y-91668939D02*
G01*
X182492088Y-91682687D01*
X182492908Y-91681383D01*
X182504738Y-91688816D01*
X182657478Y-91784789D01*
X182827745Y-91844368D01*
X182914666Y-91854161D01*
X182954585Y-91865661D01*
X182988465Y-91889700D01*
X183564799Y-92466034D01*
X183575494Y-92478229D01*
X183594717Y-92503282D01*
X183699326Y-92583550D01*
X183699329Y-92583552D01*
X183720160Y-92599537D01*
X183780041Y-92624340D01*
X183866238Y-92660044D01*
X183991698Y-92676561D01*
X184022999Y-92680682D01*
X184022999Y-92680681D01*
X184023000Y-92680682D01*
X184054302Y-92676560D01*
X184070487Y-92675500D01*
X184535217Y-92675500D01*
X184595333Y-92691047D01*
X184640375Y-92733790D01*
X184659047Y-92793011D01*
X184646667Y-92853858D01*
X184606341Y-92901073D01*
X184573927Y-92923770D01*
X184548597Y-92941506D01*
X184381505Y-93108598D01*
X184251575Y-93294159D01*
X184207257Y-93333025D01*
X184150000Y-93347036D01*
X184092743Y-93333025D01*
X184048425Y-93294159D01*
X183918494Y-93108598D01*
X183751404Y-92941508D01*
X183751404Y-92941507D01*
X183751401Y-92941505D01*
X183557830Y-92805965D01*
X183343663Y-92706097D01*
X183282502Y-92689709D01*
X183115407Y-92644936D01*
X182880000Y-92624340D01*
X182644592Y-92644936D01*
X182416336Y-92706097D01*
X182202170Y-92805965D01*
X182008598Y-92941505D01*
X181841505Y-93108598D01*
X181711575Y-93294159D01*
X181667257Y-93333025D01*
X181610000Y-93347036D01*
X181552743Y-93333025D01*
X181508425Y-93294159D01*
X181378494Y-93108598D01*
X181211404Y-92941508D01*
X181211404Y-92941507D01*
X181211401Y-92941505D01*
X181017830Y-92805965D01*
X180803663Y-92706097D01*
X180742502Y-92689709D01*
X180575407Y-92644936D01*
X180339997Y-92624340D01*
X180312152Y-92626776D01*
X180252895Y-92617390D01*
X180204980Y-92581283D01*
X180179625Y-92526907D01*
X180182765Y-92466993D01*
X180213664Y-92415570D01*
X180933415Y-91695819D01*
X180973644Y-91668939D01*
X181021097Y-91659500D01*
X182424059Y-91659500D01*
X182471512Y-91668939D01*
G37*
G04 #@! TD.AperFunction*
G04 #@! TA.AperFunction,Conductor*
G36*
X194348385Y-91001779D02*
G01*
X194385985Y-91045802D01*
X194399500Y-91102097D01*
X194399500Y-92635268D01*
X194385985Y-92691563D01*
X194348385Y-92735586D01*
X194294898Y-92757741D01*
X194237182Y-92753199D01*
X194187819Y-92722949D01*
X193783834Y-92318964D01*
X193773138Y-92306768D01*
X193753916Y-92281716D01*
X193628475Y-92185463D01*
X193482397Y-92124956D01*
X193373703Y-92110646D01*
X193311224Y-92083560D01*
X193272470Y-92027565D01*
X193269128Y-91959549D01*
X193302206Y-91900028D01*
X194187819Y-91014416D01*
X194237182Y-90984166D01*
X194294898Y-90979624D01*
X194348385Y-91001779D01*
G37*
G04 #@! TD.AperFunction*
G04 #@! TA.AperFunction,Conductor*
G36*
X195199818Y-87568166D02*
G01*
X195249181Y-87598416D01*
X195563181Y-87912416D01*
X195590061Y-87952644D01*
X195599500Y-88000097D01*
X195599500Y-89099903D01*
X195590061Y-89147356D01*
X195563181Y-89187584D01*
X195249181Y-89501584D01*
X195199818Y-89531834D01*
X195142102Y-89536376D01*
X195088615Y-89514221D01*
X195051015Y-89470198D01*
X195037500Y-89413903D01*
X195037500Y-87686097D01*
X195051015Y-87629802D01*
X195088615Y-87585779D01*
X195142102Y-87563624D01*
X195199818Y-87568166D01*
G37*
G04 #@! TD.AperFunction*
G04 #@! TA.AperFunction,Conductor*
G36*
X180318034Y-87878215D02*
G01*
X180359473Y-87923043D01*
X180374500Y-87982211D01*
X180374500Y-88927513D01*
X180373439Y-88943699D01*
X180369317Y-88975000D01*
X180373383Y-89005875D01*
X180374500Y-89014361D01*
X180389956Y-89131762D01*
X180429839Y-89228047D01*
X180438681Y-89287654D01*
X180418380Y-89344391D01*
X180373731Y-89384858D01*
X180315278Y-89399500D01*
X179225900Y-89399500D01*
X179171056Y-89386712D01*
X179127524Y-89350986D01*
X179104283Y-89299691D01*
X179106125Y-89243406D01*
X179120378Y-89190212D01*
X179135063Y-89135408D01*
X179155659Y-88900000D01*
X179135063Y-88664592D01*
X179073903Y-88436337D01*
X179000956Y-88279904D01*
X178989604Y-88219390D01*
X179008758Y-88160875D01*
X179053696Y-88118786D01*
X179113339Y-88103500D01*
X179657513Y-88103500D01*
X179673697Y-88104560D01*
X179705000Y-88108682D01*
X179861762Y-88088044D01*
X180007841Y-88027536D01*
X180091010Y-87963718D01*
X180133282Y-87931282D01*
X180152122Y-87906727D01*
X180200062Y-87868933D01*
X180260227Y-87858593D01*
X180318034Y-87878215D01*
G37*
G04 #@! TD.AperFunction*
G04 #@! TA.AperFunction,Conductor*
G36*
X183532522Y-85893985D02*
G01*
X183588515Y-85933714D01*
X183614788Y-85997143D01*
X183618631Y-86031250D01*
X183618632Y-86031255D01*
X183678211Y-86201522D01*
X183678212Y-86201523D01*
X183734196Y-86290622D01*
X183751699Y-86337349D01*
X183749368Y-86387192D01*
X183727578Y-86432080D01*
X183702495Y-86464769D01*
X183691800Y-86476964D01*
X183408965Y-86759798D01*
X183396774Y-86770490D01*
X183371721Y-86789715D01*
X183371719Y-86789716D01*
X183371718Y-86789718D01*
X183299538Y-86883785D01*
X183294144Y-86890815D01*
X183275462Y-86915161D01*
X183214956Y-87061237D01*
X183194317Y-87217999D01*
X183198439Y-87249301D01*
X183199500Y-87265487D01*
X183199500Y-87852513D01*
X183198439Y-87868699D01*
X183194317Y-87900000D01*
X183199500Y-87939360D01*
X183199500Y-87939361D01*
X183214956Y-88056762D01*
X183275463Y-88202840D01*
X183371716Y-88328281D01*
X183396768Y-88347503D01*
X183408964Y-88358199D01*
X183641799Y-88591034D01*
X183652494Y-88603229D01*
X183671717Y-88628282D01*
X183728900Y-88672159D01*
X183797159Y-88724536D01*
X183797160Y-88724536D01*
X183797161Y-88724537D01*
X183885043Y-88760939D01*
X183937909Y-88802614D01*
X183961209Y-88865771D01*
X183948076Y-88931795D01*
X183902381Y-88981227D01*
X183837591Y-88999500D01*
X181900098Y-88999500D01*
X181852645Y-88990061D01*
X181812417Y-88963181D01*
X181728082Y-88878846D01*
X181694867Y-88818737D01*
X181698735Y-88750171D01*
X181738499Y-88694179D01*
X181777491Y-88678054D01*
X181776067Y-88673982D01*
X181789251Y-88669368D01*
X181789255Y-88669368D01*
X181959522Y-88609789D01*
X182112262Y-88513816D01*
X182239816Y-88386262D01*
X182335789Y-88233522D01*
X182395368Y-88063255D01*
X182415565Y-87884000D01*
X182413030Y-87861505D01*
X182397759Y-87725965D01*
X182395368Y-87704745D01*
X182335789Y-87534478D01*
X182239816Y-87381738D01*
X182232383Y-87369908D01*
X182233687Y-87369088D01*
X182219939Y-87348512D01*
X182210500Y-87301059D01*
X182210500Y-87168097D01*
X182219939Y-87120644D01*
X182246819Y-87080416D01*
X182533830Y-86793405D01*
X183403889Y-85923344D01*
X183463975Y-85890136D01*
X183532522Y-85893985D01*
G37*
G04 #@! TD.AperFunction*
G04 #@! TA.AperFunction,Conductor*
G36*
X175697385Y-84548033D02*
G01*
X175739061Y-84600898D01*
X175751464Y-84630841D01*
X175847716Y-84756281D01*
X175872768Y-84775503D01*
X175884964Y-84786199D01*
X176579799Y-85481034D01*
X176590494Y-85493229D01*
X176619656Y-85531234D01*
X176617494Y-85532892D01*
X176639128Y-85560659D01*
X176648633Y-85622376D01*
X176630115Y-85672136D01*
X176630550Y-85672339D01*
X176628024Y-85677755D01*
X176626854Y-85680900D01*
X176625967Y-85682166D01*
X176526097Y-85896335D01*
X176501965Y-85986398D01*
X176480093Y-86030402D01*
X176442847Y-86062456D01*
X176396074Y-86077524D01*
X176350749Y-86082631D01*
X176350746Y-86082631D01*
X176350745Y-86082632D01*
X176180478Y-86142211D01*
X176180476Y-86142211D01*
X176180476Y-86142212D01*
X176027735Y-86238185D01*
X175900185Y-86365735D01*
X175804772Y-86517585D01*
X175804211Y-86518478D01*
X175744632Y-86688745D01*
X175744631Y-86688748D01*
X175741542Y-86697578D01*
X175701813Y-86753570D01*
X175638384Y-86779843D01*
X175570698Y-86768343D01*
X175519506Y-86722595D01*
X175500500Y-86656623D01*
X175500500Y-84648351D01*
X175518773Y-84583561D01*
X175568205Y-84537866D01*
X175634229Y-84524733D01*
X175697385Y-84548033D01*
G37*
G04 #@! TD.AperFunction*
G04 #@! TA.AperFunction,Conductor*
G36*
X184745680Y-79168915D02*
G01*
X185215799Y-79639034D01*
X185226494Y-79651229D01*
X185245717Y-79676282D01*
X185311028Y-79726396D01*
X185329409Y-79740500D01*
X185371159Y-79772536D01*
X185517238Y-79833044D01*
X185642698Y-79849561D01*
X185673999Y-79853682D01*
X185673999Y-79853681D01*
X185674000Y-79853682D01*
X185705302Y-79849560D01*
X185721487Y-79848500D01*
X187668875Y-79848500D01*
X187734847Y-79867506D01*
X187780595Y-79918698D01*
X187792095Y-79986383D01*
X187789434Y-80009999D01*
X187809631Y-80189251D01*
X187809631Y-80189253D01*
X187809632Y-80189255D01*
X187869211Y-80359522D01*
X187885733Y-80385816D01*
X187965185Y-80512264D01*
X188075694Y-80622773D01*
X188105054Y-80669499D01*
X188111233Y-80724337D01*
X188093007Y-80776425D01*
X187996213Y-80930473D01*
X187936631Y-81100748D01*
X187926837Y-81187669D01*
X187915337Y-81227586D01*
X187891298Y-81261465D01*
X186552965Y-82599798D01*
X186540773Y-82610491D01*
X186515717Y-82629717D01*
X186468197Y-82691649D01*
X186456941Y-82706318D01*
X186443157Y-82724282D01*
X186419462Y-82755161D01*
X186358956Y-82901237D01*
X186338317Y-83057999D01*
X186342439Y-83089301D01*
X186343500Y-83105487D01*
X186343500Y-84694292D01*
X186333154Y-84743879D01*
X186303842Y-84785190D01*
X186260455Y-84811333D01*
X186086480Y-84872209D01*
X185933735Y-84968185D01*
X185806185Y-85095735D01*
X185717466Y-85236932D01*
X185710211Y-85248478D01*
X185650632Y-85418745D01*
X185650631Y-85418748D01*
X185646788Y-85452856D01*
X185620515Y-85516284D01*
X185564522Y-85556013D01*
X185495975Y-85559862D01*
X185435887Y-85526652D01*
X185370199Y-85460964D01*
X185359503Y-85448768D01*
X185358470Y-85447422D01*
X185352167Y-85439207D01*
X185340281Y-85423716D01*
X185214841Y-85327464D01*
X185068762Y-85266956D01*
X185068761Y-85266955D01*
X185048451Y-85264282D01*
X184988285Y-85256361D01*
X184974917Y-85254601D01*
X184936259Y-85242874D01*
X184915389Y-85227918D01*
X184787016Y-85147257D01*
X184753522Y-85126211D01*
X184583255Y-85066632D01*
X184583253Y-85066631D01*
X184583251Y-85066631D01*
X184549143Y-85062788D01*
X184485715Y-85036515D01*
X184445986Y-84980522D01*
X184442137Y-84911975D01*
X184475346Y-84851888D01*
X184541043Y-84786191D01*
X184553234Y-84775501D01*
X184567509Y-84764548D01*
X184578282Y-84756282D01*
X184602451Y-84724785D01*
X184674536Y-84630841D01*
X184735044Y-84484762D01*
X184755682Y-84328000D01*
X184751560Y-84296697D01*
X184750500Y-84280513D01*
X184750500Y-82624941D01*
X184759939Y-82577488D01*
X184773687Y-82556911D01*
X184772383Y-82556092D01*
X184806899Y-82501159D01*
X184875789Y-82391522D01*
X184935368Y-82221255D01*
X184955565Y-82042000D01*
X184954918Y-82036262D01*
X184943620Y-81935985D01*
X184935368Y-81862745D01*
X184875789Y-81692478D01*
X184779816Y-81539738D01*
X184779815Y-81539737D01*
X184779814Y-81539735D01*
X184652264Y-81412185D01*
X184569325Y-81360071D01*
X184499522Y-81316211D01*
X184329255Y-81256632D01*
X184329253Y-81256631D01*
X184329251Y-81256631D01*
X184149999Y-81236434D01*
X183970748Y-81256631D01*
X183970745Y-81256631D01*
X183970745Y-81256632D01*
X183800478Y-81316211D01*
X183800476Y-81316211D01*
X183800476Y-81316212D01*
X183647735Y-81412185D01*
X183520185Y-81539735D01*
X183424212Y-81692476D01*
X183424211Y-81692478D01*
X183364632Y-81862745D01*
X183364631Y-81862747D01*
X183360018Y-81875933D01*
X183357554Y-81875071D01*
X183346274Y-81906308D01*
X183304393Y-81945783D01*
X183249202Y-81962099D01*
X183192590Y-81951741D01*
X183146751Y-81916940D01*
X183082883Y-81839117D01*
X182930538Y-81714090D01*
X182890101Y-81692476D01*
X182756726Y-81621185D01*
X182568133Y-81563976D01*
X182372000Y-81544659D01*
X182175866Y-81563976D01*
X181987273Y-81621185D01*
X181813463Y-81714089D01*
X181661117Y-81839117D01*
X181536089Y-81991463D01*
X181443185Y-82165273D01*
X181385976Y-82353866D01*
X181366659Y-82549999D01*
X181385976Y-82746133D01*
X181443185Y-82934726D01*
X181509076Y-83057999D01*
X181536090Y-83108538D01*
X181661117Y-83260883D01*
X181813462Y-83385910D01*
X181987273Y-83478814D01*
X182175868Y-83536024D01*
X182372000Y-83555341D01*
X182397346Y-83552844D01*
X182464343Y-83565034D01*
X182514801Y-83610766D01*
X182533500Y-83676247D01*
X182533500Y-84019664D01*
X182519130Y-84077605D01*
X182479352Y-84122118D01*
X182423384Y-84142884D01*
X182345748Y-84151631D01*
X182345745Y-84151631D01*
X182345745Y-84151632D01*
X182175478Y-84211211D01*
X182175476Y-84211211D01*
X182175476Y-84211212D01*
X182022735Y-84307185D01*
X181895185Y-84434735D01*
X181799212Y-84587476D01*
X181739631Y-84757748D01*
X181727948Y-84861439D01*
X181707959Y-84916253D01*
X181665115Y-84955857D01*
X181608902Y-84971485D01*
X181551765Y-84959675D01*
X181506353Y-84923043D01*
X181497860Y-84911975D01*
X181485846Y-84896318D01*
X181456823Y-84858494D01*
X181403282Y-84788717D01*
X181378229Y-84769494D01*
X181366034Y-84758799D01*
X180321867Y-83714632D01*
X180290040Y-83660023D01*
X180289264Y-83596821D01*
X180319742Y-83541448D01*
X180373547Y-83508293D01*
X180470727Y-83478814D01*
X180644538Y-83385910D01*
X180796883Y-83260883D01*
X180921910Y-83108538D01*
X181014814Y-82934727D01*
X181072024Y-82746132D01*
X181091341Y-82550000D01*
X181072024Y-82353868D01*
X181014814Y-82165273D01*
X180921910Y-81991462D01*
X180796883Y-81839117D01*
X180644538Y-81714090D01*
X180604101Y-81692476D01*
X180470726Y-81621185D01*
X180282133Y-81563976D01*
X180086000Y-81544659D01*
X179889866Y-81563976D01*
X179701273Y-81621185D01*
X179527462Y-81714089D01*
X179375116Y-81839117D01*
X179321733Y-81904165D01*
X179278897Y-81937595D01*
X179225880Y-81949500D01*
X179172560Y-81949500D01*
X179112917Y-81934214D01*
X179067979Y-81892125D01*
X179048825Y-81833609D01*
X179060177Y-81773097D01*
X179073903Y-81743663D01*
X179135063Y-81515408D01*
X179155659Y-81280000D01*
X179135063Y-81044592D01*
X179073903Y-80816337D01*
X178974035Y-80602171D01*
X178838495Y-80408599D01*
X178671401Y-80241505D01*
X178485839Y-80111573D01*
X178446976Y-80067257D01*
X178432965Y-80010000D01*
X178446976Y-79952743D01*
X178485839Y-79908426D01*
X178671401Y-79778495D01*
X178838495Y-79611401D01*
X178910112Y-79509120D01*
X178963297Y-79466076D01*
X179031217Y-79457793D01*
X179093190Y-79486794D01*
X179130346Y-79544249D01*
X179157185Y-79632726D01*
X179207253Y-79726396D01*
X179250090Y-79806538D01*
X179375117Y-79958883D01*
X179527462Y-80083910D01*
X179701273Y-80176814D01*
X179889868Y-80234024D01*
X180086000Y-80253341D01*
X180282132Y-80234024D01*
X180470727Y-80176814D01*
X180644538Y-80083910D01*
X180796883Y-79958883D01*
X180921910Y-79806538D01*
X181014814Y-79632727D01*
X181049658Y-79517863D01*
X181075570Y-79432444D01*
X181078065Y-79433201D01*
X181091515Y-79395610D01*
X181136164Y-79355142D01*
X181194618Y-79340500D01*
X181263382Y-79340500D01*
X181321836Y-79355142D01*
X181366485Y-79395610D01*
X181379934Y-79433201D01*
X181382430Y-79432444D01*
X181443185Y-79632726D01*
X181493253Y-79726396D01*
X181536090Y-79806538D01*
X181661117Y-79958883D01*
X181813462Y-80083910D01*
X181987273Y-80176814D01*
X182175868Y-80234024D01*
X182372000Y-80253341D01*
X182568132Y-80234024D01*
X182756727Y-80176814D01*
X182930538Y-80083910D01*
X183082883Y-79958883D01*
X183136267Y-79893835D01*
X183179103Y-79860405D01*
X183232120Y-79848500D01*
X183594513Y-79848500D01*
X183610697Y-79849560D01*
X183642000Y-79853682D01*
X183798762Y-79833044D01*
X183944841Y-79772536D01*
X183986591Y-79740500D01*
X184070282Y-79676282D01*
X184089509Y-79651223D01*
X184100190Y-79639043D01*
X184570322Y-79168912D01*
X184625905Y-79136821D01*
X184690093Y-79136821D01*
X184745680Y-79168915D01*
G37*
G04 #@! TD.AperFunction*
G04 #@! TA.AperFunction,Conductor*
G36*
X183795756Y-69951939D02*
G01*
X183835984Y-69978819D01*
X186079399Y-72222234D01*
X186090094Y-72234429D01*
X186109317Y-72259482D01*
X186213570Y-72339477D01*
X186213571Y-72339478D01*
X186225905Y-72348942D01*
X186234759Y-72355736D01*
X186380838Y-72416244D01*
X186506298Y-72432761D01*
X186537599Y-72436882D01*
X186537599Y-72436881D01*
X186537600Y-72436882D01*
X186568902Y-72432760D01*
X186585087Y-72431700D01*
X188909860Y-72431700D01*
X188969841Y-72447172D01*
X189014854Y-72489728D01*
X189108185Y-72638264D01*
X189235735Y-72765814D01*
X189235737Y-72765815D01*
X189235738Y-72765816D01*
X189388478Y-72861789D01*
X189558745Y-72921368D01*
X189738000Y-72941565D01*
X189917255Y-72921368D01*
X190087522Y-72861789D01*
X190240262Y-72765816D01*
X190367816Y-72638262D01*
X190463789Y-72485522D01*
X190523368Y-72315255D01*
X190543565Y-72136000D01*
X190543565Y-72135999D01*
X190540905Y-72112383D01*
X190552405Y-72044698D01*
X190598153Y-71993506D01*
X190664125Y-71974500D01*
X195533903Y-71974500D01*
X195581356Y-71983939D01*
X195621584Y-72010819D01*
X196839584Y-73228819D01*
X196869834Y-73278182D01*
X196874376Y-73335898D01*
X196852221Y-73389385D01*
X196808198Y-73426985D01*
X196751903Y-73440500D01*
X196376220Y-73440500D01*
X196316239Y-73425028D01*
X196271226Y-73382472D01*
X196209814Y-73284735D01*
X196082264Y-73157185D01*
X195952205Y-73075464D01*
X195929522Y-73061211D01*
X195759255Y-73001632D01*
X195759253Y-73001631D01*
X195759251Y-73001631D01*
X195580000Y-72981434D01*
X195400748Y-73001631D01*
X195400745Y-73001631D01*
X195400745Y-73001632D01*
X195230478Y-73061211D01*
X195230476Y-73061211D01*
X195230476Y-73061212D01*
X195077735Y-73157185D01*
X194950185Y-73284735D01*
X194862034Y-73425028D01*
X194854211Y-73437478D01*
X194808116Y-73569212D01*
X194794631Y-73607749D01*
X194793709Y-73615933D01*
X194767435Y-73679362D01*
X194711443Y-73719090D01*
X194642896Y-73722939D01*
X194582808Y-73689729D01*
X194558264Y-73665185D01*
X194495867Y-73625979D01*
X194405522Y-73569211D01*
X194235255Y-73509632D01*
X194235253Y-73509631D01*
X194235251Y-73509631D01*
X194055999Y-73489434D01*
X193952229Y-73501126D01*
X193897391Y-73494947D01*
X193850666Y-73465588D01*
X193796262Y-73411184D01*
X193643522Y-73315211D01*
X193473255Y-73255632D01*
X193473253Y-73255631D01*
X193473251Y-73255631D01*
X193294000Y-73235434D01*
X193114748Y-73255631D01*
X193114745Y-73255631D01*
X193114745Y-73255632D01*
X192944478Y-73315211D01*
X192944476Y-73315211D01*
X192944476Y-73315212D01*
X192791735Y-73411185D01*
X192664185Y-73538735D01*
X192584732Y-73665185D01*
X192568211Y-73691478D01*
X192532779Y-73792738D01*
X192508631Y-73861748D01*
X192488434Y-74041000D01*
X192508631Y-74220251D01*
X192508631Y-74220253D01*
X192508632Y-74220255D01*
X192568211Y-74390522D01*
X192568212Y-74390523D01*
X192671617Y-74555092D01*
X192670312Y-74555911D01*
X192684061Y-74576488D01*
X192693500Y-74623941D01*
X192693500Y-77978059D01*
X192679985Y-78034354D01*
X192642385Y-78078377D01*
X192588898Y-78100532D01*
X192531182Y-78095990D01*
X192481819Y-78065740D01*
X192373864Y-77957785D01*
X192231923Y-77868598D01*
X192221122Y-77861811D01*
X192050855Y-77802232D01*
X192050851Y-77802231D01*
X192050850Y-77802231D01*
X191963930Y-77792437D01*
X191924012Y-77780937D01*
X191890133Y-77756898D01*
X189688199Y-75554964D01*
X189677503Y-75542768D01*
X189673449Y-75537485D01*
X189670167Y-75533207D01*
X189658281Y-75517716D01*
X189532840Y-75421463D01*
X189386762Y-75360956D01*
X189269361Y-75345500D01*
X189264780Y-75344897D01*
X189230000Y-75340317D01*
X189202163Y-75343982D01*
X189198697Y-75344439D01*
X189182513Y-75345500D01*
X188923941Y-75345500D01*
X188876488Y-75336061D01*
X188855911Y-75322312D01*
X188855092Y-75323617D01*
X188783076Y-75278367D01*
X188690522Y-75220211D01*
X188520255Y-75160632D01*
X188520253Y-75160631D01*
X188520251Y-75160631D01*
X188341000Y-75140434D01*
X188161748Y-75160631D01*
X188161745Y-75160631D01*
X188161745Y-75160632D01*
X187991478Y-75220211D01*
X187991476Y-75220211D01*
X187991476Y-75220212D01*
X187838735Y-75316185D01*
X187711185Y-75443735D01*
X187617907Y-75592187D01*
X187615211Y-75596478D01*
X187587573Y-75675463D01*
X187555631Y-75766748D01*
X187535434Y-75945999D01*
X187555631Y-76125251D01*
X187555631Y-76125253D01*
X187555632Y-76125255D01*
X187615211Y-76295522D01*
X187643997Y-76341335D01*
X187711185Y-76448264D01*
X187838735Y-76575814D01*
X187838737Y-76575815D01*
X187838738Y-76575816D01*
X187991478Y-76671789D01*
X188161745Y-76731368D01*
X188296186Y-76746515D01*
X188340999Y-76751565D01*
X188340999Y-76751564D01*
X188341000Y-76751565D01*
X188520255Y-76731368D01*
X188690522Y-76671789D01*
X188843262Y-76575816D01*
X188843261Y-76575816D01*
X188855092Y-76568383D01*
X188855911Y-76569687D01*
X188876488Y-76555939D01*
X188923941Y-76546500D01*
X188929903Y-76546500D01*
X188977356Y-76555939D01*
X189017584Y-76582819D01*
X189346584Y-76911819D01*
X189376834Y-76961182D01*
X189381376Y-77018898D01*
X189359221Y-77072385D01*
X189315198Y-77109985D01*
X189258903Y-77123500D01*
X188006098Y-77123500D01*
X187958645Y-77114061D01*
X187918417Y-77087181D01*
X186640199Y-75808964D01*
X186629503Y-75796768D01*
X186610281Y-75771716D01*
X186484840Y-75675463D01*
X186338762Y-75614956D01*
X186221361Y-75599500D01*
X186216780Y-75598897D01*
X186182000Y-75594317D01*
X186154163Y-75597982D01*
X186150697Y-75598439D01*
X186134513Y-75599500D01*
X184620500Y-75599500D01*
X184558500Y-75582887D01*
X184513113Y-75537500D01*
X184496500Y-75475500D01*
X184496500Y-74215487D01*
X184497561Y-74199301D01*
X184501682Y-74167999D01*
X184481044Y-74011239D01*
X184426354Y-73879206D01*
X184420536Y-73865159D01*
X184417919Y-73861748D01*
X184407787Y-73848542D01*
X184407781Y-73848536D01*
X184324282Y-73739717D01*
X184299229Y-73720494D01*
X184287034Y-73709799D01*
X183786199Y-73208964D01*
X183775503Y-73196768D01*
X183775172Y-73196337D01*
X183759083Y-73175368D01*
X183756281Y-73171716D01*
X183630840Y-73075463D01*
X183484762Y-73014956D01*
X183328000Y-72994317D01*
X183300163Y-72997982D01*
X183296697Y-72998439D01*
X183280513Y-72999500D01*
X183127589Y-72999500D01*
X183069648Y-72985130D01*
X183025135Y-72945352D01*
X183004369Y-72889383D01*
X182985368Y-72720749D01*
X182985368Y-72720745D01*
X182925789Y-72550478D01*
X182829816Y-72397738D01*
X182829815Y-72397737D01*
X182829814Y-72397735D01*
X182702264Y-72270185D01*
X182607665Y-72210745D01*
X182549522Y-72174211D01*
X182379255Y-72114632D01*
X182379253Y-72114631D01*
X182379251Y-72114631D01*
X182200000Y-72094434D01*
X182020748Y-72114631D01*
X182020745Y-72114631D01*
X182020745Y-72114632D01*
X181850478Y-72174211D01*
X181850476Y-72174211D01*
X181850476Y-72174212D01*
X181685908Y-72277617D01*
X181685088Y-72276312D01*
X181664512Y-72290061D01*
X181617059Y-72299500D01*
X180547487Y-72299500D01*
X180531302Y-72298439D01*
X180527376Y-72297922D01*
X180499999Y-72294317D01*
X180378741Y-72310282D01*
X180343237Y-72314956D01*
X180343238Y-72314956D01*
X180283237Y-72339809D01*
X180227096Y-72348942D01*
X180172783Y-72332049D01*
X180131727Y-72292684D01*
X180112566Y-72239129D01*
X180109368Y-72210745D01*
X180049789Y-72040478D01*
X179953816Y-71887738D01*
X179953815Y-71887737D01*
X179953814Y-71887735D01*
X179826264Y-71760185D01*
X179763867Y-71720978D01*
X179673522Y-71664211D01*
X179503255Y-71604632D01*
X179503253Y-71604631D01*
X179503251Y-71604631D01*
X179323999Y-71584434D01*
X179246634Y-71593151D01*
X179187448Y-71585359D01*
X179138762Y-71550814D01*
X179111860Y-71497523D01*
X179112976Y-71437837D01*
X179135063Y-71355408D01*
X179155659Y-71120000D01*
X179135063Y-70884592D01*
X179073903Y-70656337D01*
X179003419Y-70505186D01*
X178992701Y-70437874D01*
X179019178Y-70375066D01*
X179074847Y-70335741D01*
X179114722Y-70321789D01*
X179203022Y-70266305D01*
X179268994Y-70247300D01*
X179632113Y-70247300D01*
X179648297Y-70248360D01*
X179679600Y-70252482D01*
X179836362Y-70231844D01*
X179982441Y-70171336D01*
X180029426Y-70135283D01*
X180107882Y-70075082D01*
X180127106Y-70050026D01*
X180137787Y-70037846D01*
X180196816Y-69978817D01*
X180237046Y-69951939D01*
X180284498Y-69942500D01*
X183748303Y-69942500D01*
X183795756Y-69951939D01*
G37*
G04 #@! TD.AperFunction*
G04 #@! TA.AperFunction,Conductor*
G36*
X185489011Y-48015015D02*
G01*
X185533597Y-48055160D01*
X185554117Y-48111539D01*
X185545767Y-48170951D01*
X185510501Y-48219490D01*
X185456577Y-48245790D01*
X185454239Y-48246286D01*
X185283804Y-48322168D01*
X185132875Y-48431824D01*
X185008041Y-48570466D01*
X184914761Y-48732032D01*
X184857112Y-48909460D01*
X184842500Y-49048488D01*
X184842500Y-49280000D01*
X186617500Y-49280000D01*
X186617500Y-49048488D01*
X186602887Y-48909460D01*
X186545238Y-48732032D01*
X186451960Y-48570469D01*
X186327123Y-48431825D01*
X186176193Y-48322167D01*
X186005761Y-48246286D01*
X186003423Y-48245790D01*
X185949499Y-48219490D01*
X185914233Y-48170951D01*
X185905883Y-48111539D01*
X185926403Y-48055160D01*
X185970989Y-48015015D01*
X186029204Y-48000500D01*
X192430796Y-48000500D01*
X192489011Y-48015015D01*
X192533597Y-48055160D01*
X192554117Y-48111539D01*
X192545767Y-48170951D01*
X192510501Y-48219490D01*
X192456577Y-48245790D01*
X192454239Y-48246286D01*
X192283804Y-48322168D01*
X192132875Y-48431824D01*
X192008041Y-48570466D01*
X191914761Y-48732032D01*
X191857112Y-48909460D01*
X191842500Y-49048488D01*
X191842500Y-49280000D01*
X193617500Y-49280000D01*
X193617500Y-49048488D01*
X193602887Y-48909460D01*
X193545238Y-48732032D01*
X193451960Y-48570469D01*
X193327123Y-48431825D01*
X193176193Y-48322167D01*
X193005761Y-48246286D01*
X193003423Y-48245790D01*
X192949499Y-48219490D01*
X192914233Y-48170951D01*
X192905883Y-48111539D01*
X192926403Y-48055160D01*
X192970989Y-48015015D01*
X193029204Y-48000500D01*
X202875500Y-48000500D01*
X202937500Y-48017113D01*
X202982887Y-48062500D01*
X202999500Y-48124500D01*
X202999500Y-65054219D01*
X202981227Y-65119009D01*
X202931795Y-65164704D01*
X202865771Y-65177837D01*
X202802614Y-65154537D01*
X202760939Y-65101671D01*
X202708536Y-64975159D01*
X202686896Y-64946957D01*
X202686895Y-64946956D01*
X202612282Y-64849717D01*
X202587229Y-64830494D01*
X202575034Y-64819799D01*
X202007199Y-64251964D01*
X201996504Y-64239769D01*
X201994529Y-64237196D01*
X201977282Y-64214718D01*
X201938067Y-64184627D01*
X201902745Y-64141903D01*
X201889569Y-64088055D01*
X201901175Y-64033847D01*
X201933902Y-63963665D01*
X201949245Y-63906406D01*
X201995063Y-63735408D01*
X202015659Y-63500000D01*
X201995063Y-63264592D01*
X201987510Y-63236404D01*
X201987510Y-63172217D01*
X202019602Y-63116631D01*
X202321043Y-62815190D01*
X202333223Y-62804509D01*
X202358282Y-62785282D01*
X202454536Y-62659841D01*
X202515044Y-62513762D01*
X202525539Y-62434044D01*
X202535682Y-62357000D01*
X202531560Y-62325697D01*
X202530500Y-62309513D01*
X202530500Y-60118487D01*
X202531561Y-60102301D01*
X202535682Y-60070999D01*
X202532964Y-60050361D01*
X202515044Y-59914238D01*
X202454536Y-59768159D01*
X202417400Y-59719762D01*
X202394563Y-59690000D01*
X202358282Y-59642717D01*
X202333229Y-59623494D01*
X202321034Y-59612799D01*
X202007199Y-59298964D01*
X201996503Y-59286768D01*
X201986902Y-59274256D01*
X201977282Y-59261718D01*
X201894454Y-59198162D01*
X201859130Y-59155437D01*
X201845954Y-59101589D01*
X201857558Y-59047384D01*
X201933903Y-58883663D01*
X201995063Y-58655408D01*
X202015659Y-58420000D01*
X201995063Y-58184592D01*
X201933903Y-57956337D01*
X201834035Y-57742171D01*
X201698495Y-57548599D01*
X201531401Y-57381505D01*
X201345839Y-57251573D01*
X201306975Y-57207257D01*
X201292964Y-57150000D01*
X201306975Y-57092743D01*
X201345839Y-57048426D01*
X201531401Y-56918495D01*
X201698495Y-56751401D01*
X201834035Y-56557830D01*
X201933903Y-56343663D01*
X201995063Y-56115408D01*
X202015659Y-55880000D01*
X202001902Y-55722766D01*
X201995063Y-55644592D01*
X201939470Y-55437115D01*
X201933903Y-55416337D01*
X201834035Y-55202171D01*
X201698495Y-55008599D01*
X201531401Y-54841505D01*
X201345839Y-54711573D01*
X201306974Y-54667255D01*
X201292964Y-54609999D01*
X201306975Y-54552742D01*
X201345837Y-54508428D01*
X201531401Y-54378495D01*
X201698495Y-54211401D01*
X201834035Y-54017830D01*
X201933903Y-53803663D01*
X201995063Y-53575408D01*
X202015659Y-53340000D01*
X201995063Y-53104592D01*
X201933903Y-52876337D01*
X201834035Y-52662171D01*
X201698495Y-52468599D01*
X201576569Y-52346673D01*
X201545273Y-52293927D01*
X201543084Y-52232634D01*
X201570537Y-52177789D01*
X201620916Y-52142810D01*
X201752331Y-52093796D01*
X201867546Y-52007546D01*
X201953796Y-51892331D01*
X202004091Y-51757483D01*
X202010500Y-51697873D01*
X202010499Y-49902128D01*
X202004091Y-49842517D01*
X201953796Y-49707669D01*
X201867546Y-49592454D01*
X201752331Y-49506204D01*
X201617483Y-49455909D01*
X201557873Y-49449500D01*
X201557869Y-49449500D01*
X199762130Y-49449500D01*
X199702515Y-49455909D01*
X199567669Y-49506204D01*
X199452454Y-49592454D01*
X199366204Y-49707668D01*
X199315909Y-49842516D01*
X199309500Y-49902130D01*
X199309500Y-51697869D01*
X199315909Y-51757484D01*
X199335594Y-51810262D01*
X199366204Y-51892331D01*
X199452454Y-52007546D01*
X199567669Y-52093796D01*
X199679907Y-52135658D01*
X199699082Y-52142810D01*
X199749462Y-52177789D01*
X199776915Y-52232634D01*
X199774726Y-52293926D01*
X199743431Y-52346673D01*
X199621503Y-52468601D01*
X199485965Y-52662170D01*
X199386097Y-52876336D01*
X199324936Y-53104592D01*
X199304340Y-53340000D01*
X199324936Y-53575407D01*
X199359327Y-53703756D01*
X199386097Y-53803663D01*
X199485965Y-54017830D01*
X199621505Y-54211401D01*
X199788599Y-54378495D01*
X199974160Y-54508426D01*
X200013024Y-54552743D01*
X200027035Y-54610000D01*
X200013024Y-54667257D01*
X199974159Y-54711575D01*
X199788595Y-54841508D01*
X199621505Y-55008598D01*
X199485965Y-55202170D01*
X199386097Y-55416336D01*
X199324936Y-55644592D01*
X199304340Y-55879999D01*
X199324936Y-56115407D01*
X199359327Y-56243756D01*
X199386097Y-56343663D01*
X199485965Y-56557830D01*
X199621505Y-56751401D01*
X199788599Y-56918495D01*
X199974160Y-57048426D01*
X200013024Y-57092743D01*
X200027035Y-57150000D01*
X200013024Y-57207257D01*
X199974158Y-57251575D01*
X199819312Y-57360000D01*
X199788595Y-57381508D01*
X199621505Y-57548598D01*
X199485965Y-57742170D01*
X199386097Y-57956336D01*
X199324936Y-58184592D01*
X199304340Y-58420000D01*
X199324936Y-58655407D01*
X199377205Y-58850479D01*
X199386097Y-58883663D01*
X199399822Y-58913097D01*
X199411175Y-58973609D01*
X199392021Y-59032125D01*
X199347083Y-59074214D01*
X199287440Y-59089500D01*
X197151487Y-59089500D01*
X197135302Y-59088439D01*
X197131376Y-59087922D01*
X197103999Y-59084317D01*
X197068741Y-59088959D01*
X197064639Y-59089500D01*
X196947237Y-59104956D01*
X196801161Y-59165462D01*
X196758546Y-59198162D01*
X196675718Y-59261718D01*
X196675716Y-59261719D01*
X196675715Y-59261721D01*
X196656490Y-59286774D01*
X196645798Y-59298965D01*
X194807965Y-61136798D01*
X194795773Y-61147491D01*
X194770717Y-61166717D01*
X194696105Y-61263956D01*
X194696103Y-61263957D01*
X194674463Y-61292159D01*
X194613956Y-61438237D01*
X194593317Y-61594999D01*
X194597439Y-61626301D01*
X194598500Y-61642487D01*
X194598500Y-63044059D01*
X194589061Y-63091512D01*
X194575312Y-63112088D01*
X194576617Y-63112908D01*
X194473212Y-63277476D01*
X194473211Y-63277478D01*
X194422566Y-63422215D01*
X194413631Y-63447749D01*
X194401954Y-63551384D01*
X194381187Y-63607352D01*
X194336675Y-63647130D01*
X194278734Y-63661500D01*
X186229487Y-63661500D01*
X186213302Y-63660439D01*
X186209376Y-63659922D01*
X186181999Y-63656317D01*
X186033707Y-63675841D01*
X186025238Y-63676956D01*
X185879158Y-63737464D01*
X185753719Y-63833716D01*
X185734877Y-63858273D01*
X185686937Y-63896067D01*
X185626772Y-63906406D01*
X185568965Y-63886784D01*
X185527527Y-63841956D01*
X185512500Y-63782788D01*
X185512500Y-63165097D01*
X185521939Y-63117644D01*
X185548819Y-63077416D01*
X185759416Y-62866819D01*
X185799644Y-62839939D01*
X185847097Y-62830500D01*
X186615059Y-62830500D01*
X186662512Y-62839939D01*
X186683088Y-62853687D01*
X186683908Y-62852383D01*
X186695738Y-62859816D01*
X186848478Y-62955789D01*
X187018745Y-63015368D01*
X187198000Y-63035565D01*
X187377255Y-63015368D01*
X187547522Y-62955789D01*
X187700262Y-62859816D01*
X187827816Y-62732262D01*
X187923789Y-62579522D01*
X187983368Y-62409255D01*
X187992114Y-62331632D01*
X188003566Y-62229999D01*
X187988074Y-62092514D01*
X187983368Y-62050745D01*
X187923789Y-61880478D01*
X187827816Y-61727738D01*
X187827815Y-61727737D01*
X187827814Y-61727735D01*
X187700264Y-61600185D01*
X187601911Y-61538386D01*
X187547522Y-61504211D01*
X187377255Y-61444632D01*
X187377253Y-61444631D01*
X187377251Y-61444631D01*
X187198000Y-61424434D01*
X187018748Y-61444631D01*
X187018745Y-61444631D01*
X187018745Y-61444632D01*
X186848478Y-61504211D01*
X186848476Y-61504211D01*
X186848476Y-61504212D01*
X186683908Y-61607617D01*
X186683088Y-61606312D01*
X186662512Y-61620061D01*
X186615059Y-61629500D01*
X185594487Y-61629500D01*
X185578302Y-61628439D01*
X185574376Y-61627922D01*
X185546999Y-61624317D01*
X185444366Y-61637830D01*
X185390237Y-61644956D01*
X185244161Y-61705462D01*
X185215135Y-61727735D01*
X185118718Y-61801718D01*
X185118716Y-61801719D01*
X185118715Y-61801721D01*
X185099490Y-61826774D01*
X185088798Y-61838965D01*
X184809180Y-62118583D01*
X184753593Y-62150677D01*
X184689405Y-62150677D01*
X184633818Y-62118583D01*
X183856234Y-61340999D01*
X191472434Y-61340999D01*
X191492631Y-61520251D01*
X191492631Y-61520253D01*
X191492632Y-61520255D01*
X191552211Y-61690522D01*
X191608979Y-61780867D01*
X191648185Y-61843264D01*
X191775735Y-61970814D01*
X191775737Y-61970815D01*
X191775738Y-61970816D01*
X191928478Y-62066789D01*
X192098745Y-62126368D01*
X192278000Y-62146565D01*
X192457255Y-62126368D01*
X192627522Y-62066789D01*
X192780262Y-61970816D01*
X192907816Y-61843262D01*
X193003789Y-61690522D01*
X193063368Y-61520255D01*
X193083565Y-61341000D01*
X193063368Y-61161745D01*
X193003789Y-60991478D01*
X192907816Y-60838738D01*
X192900383Y-60826908D01*
X192901687Y-60826088D01*
X192887939Y-60805512D01*
X192878500Y-60758059D01*
X192878500Y-60466708D01*
X192888846Y-60417121D01*
X192918158Y-60375810D01*
X192961545Y-60349667D01*
X193135519Y-60288790D01*
X193135518Y-60288790D01*
X193135522Y-60288789D01*
X193288262Y-60192816D01*
X193415816Y-60065262D01*
X193511789Y-59912522D01*
X193571368Y-59742255D01*
X193591565Y-59563000D01*
X193571368Y-59383745D01*
X193511789Y-59213478D01*
X193504852Y-59202439D01*
X193485858Y-59138207D01*
X193503043Y-59073465D01*
X193551391Y-59027109D01*
X193598538Y-59001910D01*
X193750883Y-58876883D01*
X193875910Y-58724538D01*
X193968814Y-58550727D01*
X194026024Y-58362132D01*
X194045341Y-58166000D01*
X194026024Y-57969868D01*
X193968814Y-57781273D01*
X193933115Y-57714485D01*
X193918550Y-57651688D01*
X193937478Y-57590066D01*
X194025789Y-57449522D01*
X194085368Y-57279255D01*
X194105565Y-57100000D01*
X194085368Y-56920745D01*
X194025789Y-56750478D01*
X193929816Y-56597738D01*
X193929815Y-56597737D01*
X193929814Y-56597735D01*
X193802264Y-56470185D01*
X193729096Y-56424211D01*
X193649522Y-56374211D01*
X193479255Y-56314632D01*
X193479253Y-56314631D01*
X193479251Y-56314631D01*
X193300000Y-56294434D01*
X193120748Y-56314631D01*
X193120745Y-56314631D01*
X193120745Y-56314632D01*
X192950478Y-56374211D01*
X192950476Y-56374211D01*
X192950476Y-56374212D01*
X192797735Y-56470185D01*
X192670185Y-56597735D01*
X192592282Y-56721718D01*
X192574211Y-56750478D01*
X192515420Y-56918495D01*
X192514631Y-56920749D01*
X192495168Y-57093491D01*
X192486510Y-57127060D01*
X192454955Y-57203240D01*
X192439417Y-57321262D01*
X192424865Y-57365310D01*
X192395144Y-57400928D01*
X192329117Y-57455116D01*
X192204089Y-57607462D01*
X192111185Y-57781273D01*
X192053976Y-57969866D01*
X192034659Y-58166000D01*
X192053976Y-58362133D01*
X192111185Y-58550726D01*
X192111186Y-58550727D01*
X192204090Y-58724538D01*
X192234507Y-58761601D01*
X192262742Y-58796006D01*
X192288505Y-58850479D01*
X192285549Y-58910665D01*
X192254570Y-58962351D01*
X192156183Y-59060738D01*
X192060212Y-59213476D01*
X192060211Y-59213478D01*
X192030298Y-59298964D01*
X192000631Y-59383748D01*
X191990837Y-59470669D01*
X191979337Y-59510586D01*
X191955298Y-59544465D01*
X191886965Y-59612798D01*
X191874774Y-59623490D01*
X191849720Y-59642715D01*
X191849717Y-59642718D01*
X191849718Y-59642718D01*
X191790600Y-59719762D01*
X191753463Y-59768159D01*
X191692956Y-59914237D01*
X191672317Y-60070999D01*
X191676439Y-60102301D01*
X191677500Y-60118487D01*
X191677500Y-60758059D01*
X191668061Y-60805512D01*
X191654312Y-60826088D01*
X191655617Y-60826908D01*
X191552212Y-60991476D01*
X191552211Y-60991478D01*
X191507772Y-61118478D01*
X191492631Y-61161748D01*
X191472434Y-61340999D01*
X183856234Y-61340999D01*
X180849819Y-58334584D01*
X180822939Y-58294356D01*
X180813500Y-58246903D01*
X180813500Y-58166000D01*
X184414659Y-58166000D01*
X184433976Y-58362133D01*
X184491185Y-58550726D01*
X184491186Y-58550727D01*
X184584090Y-58724538D01*
X184709117Y-58876883D01*
X184861462Y-59001910D01*
X185035273Y-59094814D01*
X185223868Y-59152024D01*
X185420000Y-59171341D01*
X185616132Y-59152024D01*
X185804727Y-59094814D01*
X185978538Y-59001910D01*
X186130883Y-58876883D01*
X186255910Y-58724538D01*
X186348814Y-58550727D01*
X186406024Y-58362132D01*
X186425341Y-58166000D01*
X186417092Y-58082252D01*
X186423743Y-58028326D01*
X186452810Y-57982423D01*
X186648418Y-57786816D01*
X186688645Y-57759939D01*
X186736097Y-57750500D01*
X187872059Y-57750500D01*
X187919512Y-57759939D01*
X187940088Y-57773687D01*
X187940908Y-57772383D01*
X187987000Y-57801344D01*
X188105478Y-57875789D01*
X188275745Y-57935368D01*
X188455000Y-57955565D01*
X188634255Y-57935368D01*
X188804522Y-57875789D01*
X188957262Y-57779816D01*
X189084816Y-57652262D01*
X189180789Y-57499522D01*
X189240368Y-57329255D01*
X189260565Y-57150000D01*
X189240368Y-56970745D01*
X189180789Y-56800478D01*
X189084816Y-56647738D01*
X189084815Y-56647737D01*
X189084814Y-56647735D01*
X188957264Y-56520185D01*
X188877689Y-56470185D01*
X188804522Y-56424211D01*
X188634255Y-56364632D01*
X188634253Y-56364631D01*
X188634251Y-56364631D01*
X188455000Y-56344434D01*
X188275748Y-56364631D01*
X188275745Y-56364631D01*
X188275745Y-56364632D01*
X188105478Y-56424211D01*
X188105476Y-56424211D01*
X188105476Y-56424212D01*
X187940908Y-56527617D01*
X187940088Y-56526312D01*
X187919512Y-56540061D01*
X187872059Y-56549500D01*
X186483487Y-56549500D01*
X186467302Y-56548439D01*
X186463376Y-56547922D01*
X186435999Y-56544317D01*
X186400741Y-56548959D01*
X186396639Y-56549500D01*
X186279237Y-56564956D01*
X186133161Y-56625462D01*
X186125183Y-56631584D01*
X186007718Y-56721718D01*
X186007716Y-56721719D01*
X186007715Y-56721721D01*
X185988490Y-56746774D01*
X185977798Y-56758965D01*
X185603579Y-57133184D01*
X185557673Y-57162254D01*
X185503745Y-57168906D01*
X185420001Y-57160658D01*
X185223866Y-57179976D01*
X185035273Y-57237185D01*
X184861463Y-57330089D01*
X184709117Y-57455117D01*
X184584089Y-57607463D01*
X184491185Y-57781273D01*
X184433976Y-57969866D01*
X184414659Y-58166000D01*
X180813500Y-58166000D01*
X180813500Y-55800487D01*
X180814561Y-55784301D01*
X180818682Y-55752999D01*
X180798044Y-55596239D01*
X180798044Y-55596238D01*
X180737536Y-55450159D01*
X180727525Y-55437113D01*
X180711583Y-55416337D01*
X180641282Y-55324717D01*
X180616229Y-55305494D01*
X180604034Y-55294799D01*
X179132766Y-53823531D01*
X179100672Y-53767943D01*
X179100672Y-53703756D01*
X179135063Y-53575408D01*
X179155659Y-53340000D01*
X179135063Y-53104592D01*
X179073903Y-52876337D01*
X178974035Y-52662171D01*
X178846478Y-52480000D01*
X185632869Y-52480000D01*
X185700123Y-52661595D01*
X185805019Y-52829883D01*
X185941635Y-52973602D01*
X186104389Y-53086883D01*
X186286614Y-53165081D01*
X186480000Y-53204824D01*
X186480000Y-52480000D01*
X186980000Y-52480000D01*
X186980000Y-53199858D01*
X187077278Y-53189966D01*
X187266480Y-53130603D01*
X187439859Y-53034371D01*
X187590317Y-52905207D01*
X187711693Y-52748402D01*
X187799022Y-52570369D01*
X187822420Y-52480000D01*
X190632869Y-52480000D01*
X190700123Y-52661595D01*
X190805019Y-52829883D01*
X190941635Y-52973602D01*
X191104389Y-53086883D01*
X191286614Y-53165081D01*
X191480000Y-53204824D01*
X191480000Y-52480000D01*
X191980000Y-52480000D01*
X191980000Y-53199858D01*
X192077278Y-53189966D01*
X192266480Y-53130603D01*
X192439859Y-53034371D01*
X192590317Y-52905207D01*
X192711693Y-52748402D01*
X192799022Y-52570369D01*
X192822420Y-52480000D01*
X191980000Y-52480000D01*
X191480000Y-52480000D01*
X190632869Y-52480000D01*
X187822420Y-52480000D01*
X186980000Y-52480000D01*
X186480000Y-52480000D01*
X185632869Y-52480000D01*
X178846478Y-52480000D01*
X178838495Y-52468599D01*
X178716569Y-52346673D01*
X178685273Y-52293927D01*
X178683084Y-52232634D01*
X178710537Y-52177789D01*
X178760916Y-52142810D01*
X178892331Y-52093796D01*
X179007546Y-52007546D01*
X179093796Y-51892331D01*
X179144091Y-51757483D01*
X179150500Y-51697873D01*
X179150500Y-51307999D01*
X181112659Y-51307999D01*
X181131976Y-51504133D01*
X181189185Y-51692726D01*
X181252010Y-51810262D01*
X181282090Y-51866538D01*
X181407117Y-52018883D01*
X181559462Y-52143910D01*
X181733273Y-52236814D01*
X181921868Y-52294024D01*
X182118000Y-52313341D01*
X182314132Y-52294024D01*
X182502727Y-52236814D01*
X182676538Y-52143910D01*
X182828883Y-52018883D01*
X182882267Y-51953835D01*
X182925103Y-51920405D01*
X182978120Y-51908500D01*
X184329059Y-51908500D01*
X184376512Y-51917939D01*
X184397088Y-51931687D01*
X184397908Y-51930383D01*
X184415886Y-51941679D01*
X184562478Y-52033789D01*
X184732745Y-52093368D01*
X184912000Y-52113565D01*
X185091255Y-52093368D01*
X185261522Y-52033789D01*
X185414262Y-51937816D01*
X185422178Y-51929899D01*
X185482849Y-51896558D01*
X185551941Y-51900939D01*
X185607916Y-51941679D01*
X185637579Y-51980000D01*
X186480000Y-51980000D01*
X186480000Y-51260142D01*
X186479999Y-51260141D01*
X186382721Y-51270033D01*
X186193519Y-51329396D01*
X186020140Y-51425628D01*
X185909793Y-51520358D01*
X185857402Y-51546981D01*
X185798637Y-51546491D01*
X185746697Y-51519000D01*
X185713248Y-51470681D01*
X185705803Y-51412389D01*
X185717565Y-51308000D01*
X185711613Y-51255175D01*
X186980000Y-51255175D01*
X186980000Y-51980000D01*
X187827130Y-51980000D01*
X187827130Y-51979999D01*
X190637579Y-51979999D01*
X190637580Y-51980000D01*
X191480000Y-51980000D01*
X191480000Y-51260142D01*
X191479999Y-51260141D01*
X191382721Y-51270033D01*
X191193519Y-51329396D01*
X191020140Y-51425628D01*
X190869682Y-51554792D01*
X190748306Y-51711597D01*
X190660977Y-51889630D01*
X190637579Y-51979999D01*
X187827130Y-51979999D01*
X187759876Y-51798404D01*
X187654980Y-51630116D01*
X187518364Y-51486397D01*
X187355610Y-51373116D01*
X187173385Y-51294918D01*
X186980000Y-51255175D01*
X191980000Y-51255175D01*
X191980000Y-51980000D01*
X192827130Y-51980000D01*
X192827130Y-51979999D01*
X192759876Y-51798404D01*
X192654980Y-51630116D01*
X192518364Y-51486397D01*
X192355610Y-51373116D01*
X192173385Y-51294918D01*
X191980000Y-51255175D01*
X186980000Y-51255175D01*
X185711613Y-51255175D01*
X185697368Y-51128745D01*
X185637789Y-50958478D01*
X185541816Y-50805738D01*
X185541815Y-50805737D01*
X185541814Y-50805735D01*
X185516319Y-50780240D01*
X185489439Y-50740012D01*
X185480000Y-50692559D01*
X185480000Y-49780000D01*
X185980000Y-49780000D01*
X185980000Y-50819187D01*
X186005764Y-50813711D01*
X186176195Y-50737831D01*
X186327124Y-50628175D01*
X186451958Y-50489533D01*
X186545238Y-50327967D01*
X186602887Y-50150539D01*
X186617500Y-50011512D01*
X186617500Y-49780000D01*
X191842500Y-49780000D01*
X191842500Y-50011512D01*
X191857112Y-50150539D01*
X191914761Y-50327967D01*
X192008039Y-50489530D01*
X192132876Y-50628174D01*
X192283806Y-50737832D01*
X192454235Y-50813711D01*
X192480000Y-50819187D01*
X192480000Y-49780000D01*
X192980000Y-49780000D01*
X192980000Y-50819187D01*
X193005764Y-50813711D01*
X193176195Y-50737831D01*
X193327124Y-50628175D01*
X193451958Y-50489533D01*
X193545238Y-50327967D01*
X193602887Y-50150539D01*
X193617500Y-50011512D01*
X193617500Y-49780000D01*
X192980000Y-49780000D01*
X192480000Y-49780000D01*
X191842500Y-49780000D01*
X186617500Y-49780000D01*
X185980000Y-49780000D01*
X185480000Y-49780000D01*
X184842500Y-49780000D01*
X184842500Y-50011512D01*
X184857112Y-50150539D01*
X184918789Y-50340362D01*
X184918179Y-50340560D01*
X184931039Y-50385989D01*
X184917784Y-50445349D01*
X184877896Y-50491265D01*
X184820973Y-50512690D01*
X184732748Y-50522631D01*
X184732745Y-50522631D01*
X184732745Y-50522632D01*
X184562478Y-50582211D01*
X184562476Y-50582211D01*
X184562476Y-50582212D01*
X184397908Y-50685617D01*
X184397088Y-50684312D01*
X184376512Y-50698061D01*
X184329059Y-50707500D01*
X182978120Y-50707500D01*
X182925103Y-50695595D01*
X182882267Y-50662165D01*
X182828883Y-50597117D01*
X182676537Y-50472089D01*
X182502726Y-50379185D01*
X182314133Y-50321976D01*
X182118000Y-50302659D01*
X181921866Y-50321976D01*
X181733273Y-50379185D01*
X181559463Y-50472089D01*
X181407117Y-50597117D01*
X181282089Y-50749463D01*
X181189185Y-50923273D01*
X181131976Y-51111866D01*
X181112659Y-51307999D01*
X179150500Y-51307999D01*
X179150499Y-49902128D01*
X179144091Y-49842517D01*
X179093796Y-49707669D01*
X179007546Y-49592454D01*
X178892331Y-49506204D01*
X178757483Y-49455909D01*
X178697873Y-49449500D01*
X178697869Y-49449500D01*
X176902130Y-49449500D01*
X176842515Y-49455909D01*
X176707669Y-49506204D01*
X176592454Y-49592454D01*
X176506204Y-49707668D01*
X176455909Y-49842516D01*
X176449500Y-49902131D01*
X176449500Y-51249902D01*
X176440061Y-51297355D01*
X176413181Y-51337583D01*
X176011965Y-51738798D01*
X175999773Y-51749491D01*
X175974717Y-51768717D01*
X175942840Y-51810262D01*
X175925749Y-51832536D01*
X175899660Y-51866536D01*
X175878462Y-51894161D01*
X175817956Y-52040237D01*
X175797317Y-52196999D01*
X175801439Y-52228301D01*
X175802500Y-52244487D01*
X175802500Y-63960513D01*
X175801439Y-63976699D01*
X175797317Y-64008000D01*
X175803545Y-64055301D01*
X175804365Y-64061530D01*
X175817956Y-64164762D01*
X175838649Y-64214719D01*
X175878464Y-64310841D01*
X175974716Y-64436281D01*
X175999768Y-64455503D01*
X176011964Y-64466199D01*
X176668517Y-65122752D01*
X176698542Y-65171429D01*
X176703527Y-65228404D01*
X176682413Y-65281553D01*
X176657341Y-65317361D01*
X176625963Y-65362174D01*
X176526097Y-65576336D01*
X176464936Y-65804592D01*
X176444340Y-66040000D01*
X176464936Y-66275407D01*
X176494245Y-66384789D01*
X176526097Y-66503663D01*
X176625965Y-66717830D01*
X176761505Y-66911401D01*
X176928599Y-67078495D01*
X177114160Y-67208426D01*
X177153024Y-67252743D01*
X177167035Y-67310000D01*
X177153024Y-67367257D01*
X177114158Y-67411575D01*
X177006504Y-67486956D01*
X176928595Y-67541508D01*
X176761505Y-67708598D01*
X176625965Y-67902170D01*
X176526097Y-68116336D01*
X176464936Y-68344592D01*
X176444340Y-68579999D01*
X176464936Y-68815407D01*
X176501259Y-68950964D01*
X176526097Y-69043663D01*
X176625965Y-69257830D01*
X176761505Y-69451401D01*
X176928599Y-69618495D01*
X177114160Y-69748426D01*
X177153024Y-69792743D01*
X177167035Y-69850000D01*
X177153024Y-69907257D01*
X177114158Y-69951575D01*
X176982758Y-70043583D01*
X176928595Y-70081508D01*
X176761505Y-70248598D01*
X176625965Y-70442170D01*
X176526097Y-70656336D01*
X176464936Y-70884592D01*
X176444340Y-71120000D01*
X176464936Y-71355407D01*
X176503016Y-71497523D01*
X176526097Y-71583663D01*
X176563657Y-71664211D01*
X176625965Y-71797831D01*
X176700942Y-71904910D01*
X176722058Y-71958062D01*
X176717073Y-72015037D01*
X176687048Y-72063714D01*
X175884965Y-72865798D01*
X175872773Y-72876491D01*
X175847717Y-72895717D01*
X175766448Y-73001632D01*
X175766446Y-73001633D01*
X175751464Y-73021158D01*
X175739061Y-73051103D01*
X175697386Y-73103969D01*
X175634229Y-73127269D01*
X175568205Y-73114136D01*
X175518773Y-73068441D01*
X175500500Y-73003651D01*
X175500500Y-48124500D01*
X175517113Y-48062500D01*
X175562500Y-48017113D01*
X175624500Y-48000500D01*
X185430796Y-48000500D01*
X185489011Y-48015015D01*
G37*
G04 #@! TD.AperFunction*
G04 #@! TA.AperFunction,Conductor*
G36*
X184269846Y-66283072D02*
G01*
X184270908Y-66281383D01*
X184282738Y-66288816D01*
X184435478Y-66384789D01*
X184605745Y-66444368D01*
X184785000Y-66464565D01*
X184964255Y-66444368D01*
X185134522Y-66384789D01*
X185163528Y-66366562D01*
X185229500Y-66347557D01*
X185295471Y-66366562D01*
X185324478Y-66384789D01*
X185494745Y-66444368D01*
X185598711Y-66456082D01*
X185673999Y-66464565D01*
X185673999Y-66464564D01*
X185674000Y-66464565D01*
X185694957Y-66462203D01*
X185749292Y-66456082D01*
X185812762Y-66465648D01*
X185862946Y-66505668D01*
X185886396Y-66565418D01*
X185903570Y-66717830D01*
X185904632Y-66727255D01*
X185964211Y-66897522D01*
X185987248Y-66934185D01*
X186060185Y-67050264D01*
X186187735Y-67177814D01*
X186187737Y-67177815D01*
X186187738Y-67177816D01*
X186340478Y-67273789D01*
X186510745Y-67333368D01*
X186574420Y-67340542D01*
X186627973Y-67359703D01*
X186667338Y-67400760D01*
X186684231Y-67455073D01*
X186675097Y-67511214D01*
X186612956Y-67661237D01*
X186592317Y-67817999D01*
X186596439Y-67849301D01*
X186597500Y-67865487D01*
X186597500Y-69548513D01*
X186596439Y-69564699D01*
X186592317Y-69596000D01*
X186597500Y-69635360D01*
X186597500Y-69635361D01*
X186612956Y-69752762D01*
X186673463Y-69898840D01*
X186769716Y-70024281D01*
X186794768Y-70043503D01*
X186806964Y-70054199D01*
X187771784Y-71019019D01*
X187802034Y-71068382D01*
X187806576Y-71126098D01*
X187784421Y-71179585D01*
X187740398Y-71217185D01*
X187684103Y-71230700D01*
X186837697Y-71230700D01*
X186790244Y-71221261D01*
X186750016Y-71194381D01*
X184506599Y-68950964D01*
X184495903Y-68938768D01*
X184476681Y-68913716D01*
X184351240Y-68817463D01*
X184205162Y-68756956D01*
X184087761Y-68741500D01*
X184083180Y-68740897D01*
X184048400Y-68736317D01*
X184020563Y-68739982D01*
X184017097Y-68740439D01*
X184000913Y-68741500D01*
X180708900Y-68741500D01*
X180646900Y-68724887D01*
X180601513Y-68679500D01*
X180584900Y-68617500D01*
X180584900Y-68092697D01*
X180594339Y-68045244D01*
X180621219Y-68005016D01*
X181314416Y-67311819D01*
X181354644Y-67284939D01*
X181402097Y-67275500D01*
X182832513Y-67275500D01*
X182848697Y-67276560D01*
X182880000Y-67280682D01*
X183036762Y-67260044D01*
X183182841Y-67199536D01*
X183224591Y-67167500D01*
X183308282Y-67103282D01*
X183327509Y-67078223D01*
X183338190Y-67066043D01*
X184111398Y-66292835D01*
X184166983Y-66260743D01*
X184231171Y-66260743D01*
X184269846Y-66283072D01*
G37*
G04 #@! TD.AperFunction*
G04 #@! TA.AperFunction,Conductor*
G36*
X197486356Y-66141939D02*
G01*
X197526584Y-66168819D01*
X198055508Y-66697743D01*
X198084869Y-66744469D01*
X198091047Y-66799307D01*
X198076434Y-66928999D01*
X198093405Y-67079616D01*
X198081905Y-67147301D01*
X198036157Y-67198494D01*
X197970185Y-67217500D01*
X197151487Y-67217500D01*
X197135302Y-67216439D01*
X197131376Y-67215922D01*
X197103999Y-67212317D01*
X197068741Y-67216959D01*
X197064639Y-67217500D01*
X196947237Y-67232956D01*
X196801159Y-67293463D01*
X196675716Y-67389718D01*
X196656494Y-67414770D01*
X196645801Y-67426964D01*
X196510581Y-67562183D01*
X196470356Y-67589061D01*
X196422903Y-67598500D01*
X193772268Y-67598500D01*
X193722681Y-67588154D01*
X193681369Y-67558841D01*
X193655227Y-67515456D01*
X193638789Y-67468478D01*
X193542816Y-67315738D01*
X193542815Y-67315737D01*
X193542814Y-67315735D01*
X193415264Y-67188185D01*
X193293301Y-67111551D01*
X193262522Y-67092211D01*
X193092255Y-67032632D01*
X193092253Y-67032631D01*
X193092251Y-67032631D01*
X192933285Y-67014720D01*
X192913000Y-67006976D01*
X192892715Y-67014720D01*
X192733747Y-67032631D01*
X192705145Y-67042639D01*
X192636599Y-67046487D01*
X192576512Y-67013277D01*
X192542416Y-66979181D01*
X192512166Y-66929818D01*
X192507624Y-66872102D01*
X192529779Y-66818615D01*
X192573802Y-66781015D01*
X192630097Y-66767500D01*
X192878831Y-66767500D01*
X192912999Y-66776313D01*
X192947169Y-66767500D01*
X194008513Y-66767500D01*
X194024697Y-66768560D01*
X194056000Y-66772682D01*
X194212762Y-66752044D01*
X194358841Y-66691536D01*
X194400591Y-66659500D01*
X194484282Y-66595282D01*
X194503517Y-66570212D01*
X194514186Y-66558047D01*
X194522423Y-66549810D01*
X194562647Y-66522937D01*
X194610096Y-66513500D01*
X194910780Y-66513500D01*
X194970761Y-66528972D01*
X195015773Y-66571527D01*
X195031914Y-66597215D01*
X195077185Y-66669264D01*
X195204735Y-66796814D01*
X195204737Y-66796815D01*
X195204738Y-66796816D01*
X195357478Y-66892789D01*
X195527745Y-66952368D01*
X195707000Y-66972565D01*
X195886255Y-66952368D01*
X196056522Y-66892789D01*
X196209262Y-66796816D01*
X196336816Y-66669262D01*
X196432789Y-66516522D01*
X196492368Y-66346255D01*
X196499487Y-66283072D01*
X196504046Y-66242616D01*
X196524813Y-66186648D01*
X196569325Y-66146870D01*
X196627266Y-66132500D01*
X197438903Y-66132500D01*
X197486356Y-66141939D01*
G37*
G04 #@! TD.AperFunction*
G04 #@! TA.AperFunction,Conductor*
G36*
X189764675Y-66146870D02*
G01*
X189809187Y-66186648D01*
X189829954Y-66242616D01*
X189841631Y-66346250D01*
X189841632Y-66346255D01*
X189901211Y-66516522D01*
X189946025Y-66587843D01*
X189983330Y-66647214D01*
X190001556Y-66699302D01*
X189995378Y-66754139D01*
X189966019Y-66800866D01*
X189919294Y-66830226D01*
X189896481Y-66838209D01*
X189743735Y-66934185D01*
X189616185Y-67061735D01*
X189520209Y-67214480D01*
X189504933Y-67258138D01*
X189467360Y-67312371D01*
X189407290Y-67339656D01*
X189341727Y-67332269D01*
X189289235Y-67292301D01*
X189264672Y-67231067D01*
X189253368Y-67130748D01*
X189253368Y-67130745D01*
X189193789Y-66960478D01*
X189097816Y-66807738D01*
X189097815Y-66807737D01*
X189097814Y-66807735D01*
X188970264Y-66680185D01*
X188856117Y-66608462D01*
X188817522Y-66584211D01*
X188647255Y-66524632D01*
X188647253Y-66524631D01*
X188647251Y-66524631D01*
X188468000Y-66504434D01*
X188288748Y-66524631D01*
X188288745Y-66524631D01*
X188288745Y-66524632D01*
X188118478Y-66584211D01*
X188118476Y-66584211D01*
X188118476Y-66584212D01*
X187953908Y-66687617D01*
X187953088Y-66686312D01*
X187932512Y-66700061D01*
X187885059Y-66709500D01*
X187753487Y-66709500D01*
X187737302Y-66708439D01*
X187731960Y-66707735D01*
X187705997Y-66704317D01*
X187696096Y-66705621D01*
X187635474Y-66698445D01*
X187585622Y-66663213D01*
X187558622Y-66608462D01*
X187561020Y-66547463D01*
X187592228Y-66495005D01*
X187918418Y-66168816D01*
X187958644Y-66141939D01*
X188006097Y-66132500D01*
X189706734Y-66132500D01*
X189764675Y-66146870D01*
G37*
G04 #@! TD.AperFunction*
M02*
